<svg id="b0631485-ef3e-41e2-aad4-f79e20cd1217" data-name="bdcaf0b4-9a41-40c4-b5df-221bd14d4a0a" xmlns="http://www.w3.org/2000/svg" width="5.84in" height="4.58in" viewBox="0 0 420.39 329.78"><title>08767-003</title><path d="M25.46,8.63H23.82V2.42a5.61,5.61,0,0,1-2.13,1.25V2.17a4.54,4.54,0,0,0,1.4-.8,3,3,0,0,0,1-1.37h1.33Z" transform="translate(-0.08 0)"/><path d="M29.34,4a1.89,1.89,0,0,1-.93-.74A2.08,2.08,0,0,1,28.79.66,2.67,2.67,0,0,1,30.7,0a2.69,2.69,0,0,1,1.9.63,2.1,2.1,0,0,1,.68,1.59A1.9,1.9,0,0,1,32.09,4a2.32,2.32,0,0,1,1.09.84,2.18,2.18,0,0,1,.35,1.24A2.53,2.53,0,0,1,32.77,8a2.75,2.75,0,0,1-2,.75,3,3,0,0,1-2-.62,2.39,2.39,0,0,1-.92-2,2.51,2.51,0,0,1,.35-1.28A2.19,2.19,0,0,1,29.34,4Zm.19,2a1.45,1.45,0,0,0,.34,1.06,1.17,1.17,0,0,0,1.67,0l.05,0A1.51,1.51,0,0,0,31.92,6a1.37,1.37,0,0,0-.34-1,1.12,1.12,0,0,0-.86-.37,1,1,0,0,0-.9.42,1.47,1.47,0,0,0-.29,1Zm.15-3.66a1,1,0,0,0,1,1h0a1,1,0,0,0,.75-.28,1.07,1.07,0,0,0,.3-.72,1,1,0,0,0-.28-.74,1,1,0,0,0-.74-.26,1,1,0,0,0-.75.28A1,1,0,0,0,29.68,2.33Z" transform="translate(-0.08 0)"/><path d="M25.46,39.34H23.82v-6.2a5.63,5.63,0,0,1-2.13,1.2V32.85a4.54,4.54,0,0,0,1.4-.8,3,3,0,0,0,1-1.37h1.33Z" transform="translate(-0.08 0)"/><path d="M33.53,32.82,31.94,33a1.16,1.16,0,0,0-.3-.73A1,1,0,0,0,31,32a1.08,1.08,0,0,0-.89.47,3.89,3.89,0,0,0-.45,2,2,2,0,0,1,1.53-.73,2.38,2.38,0,0,1,1.77.79,2.85,2.85,0,0,1,.73,2,2.88,2.88,0,0,1-.77,2.11,2.82,2.82,0,0,1-4-.05,1.07,1.07,0,0,1-.14-.16A5.19,5.19,0,0,1,28,35.14a5.31,5.31,0,0,1,.87-3.4,2.79,2.79,0,0,1,2.27-1,2.44,2.44,0,0,1,1.62.54A2.58,2.58,0,0,1,33.53,32.82ZM29.8,36.41a1.83,1.83,0,0,0,.37,1.24,1.08,1.08,0,0,0,.84.43,1,1,0,0,0,.77-.35,1.82,1.82,0,0,0,.3-1.18,1.88,1.88,0,0,0-.36-1.21,1,1,0,0,0-1.48-.14.93.93,0,0,0-.14.14,1.66,1.66,0,0,0-.33,1.07Z" transform="translate(-0.08 0)"/><path d="M25.46,73.59H23.82V67.35a5.61,5.61,0,0,1-2.13,1.25V67.1a4.54,4.54,0,0,0,1.4-.8,3,3,0,0,0,1-1.37h1.33Z" transform="translate(-0.08 0)"/><path d="M31.15,73.59V71.86H27.64V70.42L31.36,65h1.39v5.45h1.06v1.45H32.75v1.73Zm0-3.18V67.47l-2,2.94Z" transform="translate(-0.08 0)"/><path d="M25.46,103.36H23.82v-6.2a5.37,5.37,0,0,1-2.13,1.2V96.87a4.54,4.54,0,0,0,1.4-.8,3,3,0,0,0,1-1.37h1.33Z" transform="translate(-0.08 0)"/><path d="M33.53,101.79v1.57H27.71a4,4,0,0,1,.57-1.64,11,11,0,0,1,1.85-2.06,10.12,10.12,0,0,0,1.4-1.45,1.79,1.79,0,0,0,.34-1,1.12,1.12,0,0,0-.34-.85,1.09,1.09,0,0,0-.82-.3,1.14,1.14,0,0,0-.82.31,1.62,1.62,0,0,0-.36,1l-1.64-.16a2.66,2.66,0,0,1,.92-2,3,3,0,0,1,1.93-.59,2.81,2.81,0,0,1,2,.68,2.27,2.27,0,0,1,.79,1.75,3,3,0,0,1-.21,1.1,4.53,4.53,0,0,1-.66,1.1,10.37,10.37,0,0,1-1.13,1.07,8.11,8.11,0,0,0-1,1,2.36,2.36,0,0,0-.33.45Z" transform="translate(-0.08 0)"/><path d="M25.46,137H23.82v-6.22A5.61,5.61,0,0,1,21.69,132v-1.49a4.54,4.54,0,0,0,1.4-.8,3,3,0,0,0,1-1.38h1.33Z" transform="translate(-0.08 0)"/><path d="M30.71,128.31a2.38,2.38,0,0,1,2,.89,7.69,7.69,0,0,1,0,7,2.35,2.35,0,0,1-1.94.88,2.49,2.49,0,0,1-2-1,7.87,7.87,0,0,1,.07-6.94A2.39,2.39,0,0,1,30.71,128.31Zm0,1.37a.86.86,0,0,0-.53.19,1.27,1.27,0,0,0-.37.68,14.28,14.28,0,0,0,0,4.23,1.46,1.46,0,0,0,.39.76.84.84,0,0,0,1.06,0,1.34,1.34,0,0,0,.37-.69,9.61,9.61,0,0,0,.17-2.15,9.73,9.73,0,0,0-.16-2.08,1.46,1.46,0,0,0-.38-.75A.84.84,0,0,0,30.71,129.68Z" transform="translate(-0.08 0)"/><path d="M29.34,164.31a1.78,1.78,0,0,1-.93-.74,2,2,0,0,1-.29-1,2.09,2.09,0,0,1,.67-1.59,2.71,2.71,0,0,1,1.91-.63,2.73,2.73,0,0,1,1.9.63,2.1,2.1,0,0,1,.68,1.59,1.81,1.81,0,0,1-.32,1.06,1.84,1.84,0,0,1-.87.71,2.34,2.34,0,0,1,1.09.85,2.19,2.19,0,0,1,.35,1.2,2.62,2.62,0,0,1-.76,1.94,2.78,2.78,0,0,1-2,.74,3.11,3.11,0,0,1-2-.62,2.4,2.4,0,0,1-.92-2,2.46,2.46,0,0,1,.35-1.28A2.17,2.17,0,0,1,29.34,164.31Zm.19,2a1.47,1.47,0,0,0,.34,1.06,1.17,1.17,0,0,0,1.64.08l.08-.08a1.51,1.51,0,0,0,.33-1.06,1.35,1.35,0,0,0-.34-1,1.08,1.08,0,0,0-.86-.36,1,1,0,0,0-.9.41,1.48,1.48,0,0,0-.29,1Zm.15-3.69a1,1,0,0,0,.28.77,1,1,0,0,0,.74.28,1,1,0,0,0,.75-.28,1.06,1.06,0,0,0,.28-.77,1,1,0,0,0-1-1,1,1,0,0,0-1,1Z" transform="translate(-0.08 0)"/><path d="M33.53,194.6l-1.59.17a1.16,1.16,0,0,0-.3-.72.93.93,0,0,0-.64-.24,1.11,1.11,0,0,0-.89.47,3.9,3.9,0,0,0-.45,2,1.91,1.91,0,0,1,1.53-.73,2.31,2.31,0,0,1,1.77.79,2.82,2.82,0,0,1,.73,2,2.91,2.91,0,0,1-.77,2.11,2.82,2.82,0,0,1-4-.06l-.14-.15a5.22,5.22,0,0,1-.83-3.32,5.35,5.35,0,0,1,.87-3.41,2.85,2.85,0,0,1,2.27-1,2.43,2.43,0,0,1,1.62.55A2.56,2.56,0,0,1,33.53,194.6Zm-3.73,3.6a1.86,1.86,0,0,0,.37,1.24,1.11,1.11,0,0,0,.84.43,1,1,0,0,0,.77-.35,1.84,1.84,0,0,0,.3-1.18,1.81,1.81,0,0,0-.33-1.22,1,1,0,0,0-1.48-.15,1,1,0,0,0-.14.15,1.56,1.56,0,0,0-.36,1.08Z" transform="translate(-0.08 0)"/><path d="M31.15,234.89v-1.73H27.64v-1.44l3.72-5.46h1.39v5.45h1.06v1.45H32.75v1.73Zm0-3.18v-2.93l-2,2.93Z" transform="translate(-0.08 0)"/><path d="M33.53,264.59v1.53H27.71a4,4,0,0,1,.57-1.64,11,11,0,0,1,1.85-2.06,11,11,0,0,0,1.4-1.41,1.79,1.79,0,0,0,.34-1,1.15,1.15,0,0,0-.29-.85,1.25,1.25,0,0,0-1.64,0,1.62,1.62,0,0,0-.35,1L28,260a2.7,2.7,0,0,1,.92-1.95,3,3,0,0,1,1.93-.59,2.76,2.76,0,0,1,2,.68,2.26,2.26,0,0,1,.73,1.71,3,3,0,0,1-.21,1.1,4.94,4.94,0,0,1-.66,1.1,10.19,10.19,0,0,1-1.08,1.1,8.9,8.9,0,0,0-1,1,2.36,2.36,0,0,0-.33.45Z" transform="translate(-0.08 0)"/><path d="M30.71,289.43a2.32,2.32,0,0,1,2,.9,7.65,7.65,0,0,1,0,7,2.35,2.35,0,0,1-1.94.88,2.42,2.42,0,0,1-2-1,7.85,7.85,0,0,1,.07-6.93A2.36,2.36,0,0,1,30.71,289.43Zm0,1.37a.75.75,0,0,0-.53.19,1.27,1.27,0,0,0-.37.68,9.7,9.7,0,0,0-.17,2.15,9.11,9.11,0,0,0,.15,2.08,1.47,1.47,0,0,0,.39.75.84.84,0,0,0,1.06,0,1.27,1.27,0,0,0,.37-.68,9.14,9.14,0,0,0,.17-2.15,9,9,0,0,0-.16-2.07,1.45,1.45,0,0,0-.38-.76A.75.75,0,0,0,30.71,290.8Z" transform="translate(-0.08 0)"/><path d="M25.53,306.71v-1.23h6.68v1.23Z" transform="translate(-0.08 0)"/><path d="M36.91,309.21H35.27V303a5.61,5.61,0,0,1-2.13,1.25v-1.49a4.54,4.54,0,0,0,1.4-.8,3.12,3.12,0,0,0,1-1.38h1.33Z" transform="translate(-0.08 0)"/><path d="M42.16,300.58a2.37,2.37,0,0,1,2,.89,7.65,7.65,0,0,1,0,7,2.31,2.31,0,0,1-1.94.87,2.44,2.44,0,0,1-2-1,7.86,7.86,0,0,1,.07-6.93A2.37,2.37,0,0,1,42.16,300.58Zm0,1.37a.91.91,0,0,0-.54.19,1.45,1.45,0,0,0-.36.68,14.28,14.28,0,0,0,0,4.23,1.4,1.4,0,0,0,.39.75.75.75,0,0,0,.53.19.72.72,0,0,0,.53-.19,1.19,1.19,0,0,0,.36-.68,8.64,8.64,0,0,0,.17-2.15,9.07,9.07,0,0,0-.15-2.08,1.46,1.46,0,0,0-.38-.75A.79.79,0,0,0,42.16,302Z" transform="translate(-0.08 0)"/><path d="M48.84,300.58a2.35,2.35,0,0,1,2,.89,7.77,7.77,0,0,1,0,7,2.36,2.36,0,0,1-2,.87,2.42,2.42,0,0,1-2-1,7.82,7.82,0,0,1,.08-6.93A2.34,2.34,0,0,1,48.84,300.58Zm0,1.37a.77.77,0,0,0-.53.19,1.27,1.27,0,0,0-.37.68,9.14,9.14,0,0,0-.17,2.15,8.51,8.51,0,0,0,.16,2.08,1.42,1.42,0,0,0,.38.75.82.82,0,0,0,1.06,0,1.42,1.42,0,0,0,.37-.68,10.34,10.34,0,0,0,.17-2.15,9.08,9.08,0,0,0-.16-2.08,1.53,1.53,0,0,0-.38-.75A.8.8,0,0,0,48.84,302Z" transform="translate(-0.08 0)"/><path d="M64.79,306.71v-1.23h6.67v1.23Z" transform="translate(-0.08 0)"/><path d="M73.41,304.57a1.85,1.85,0,0,1-1.22-1.77,2.12,2.12,0,0,1,.67-1.59,2.64,2.64,0,0,1,1.9-.63,2.74,2.74,0,0,1,1.92.63,2.12,2.12,0,0,1,.67,1.59,1.88,1.88,0,0,1-.31,1.06,1.94,1.94,0,0,1-.87.71,2.19,2.19,0,0,1,1.46,2.11,2.59,2.59,0,0,1-.76,1.94,2.82,2.82,0,0,1-2,.74,3,3,0,0,1-2-.61,2.42,2.42,0,0,1-.92-2,2.51,2.51,0,0,1,.35-1.28A2.25,2.25,0,0,1,73.41,304.57Zm.18,2a1.54,1.54,0,0,0,.35,1.06,1.17,1.17,0,0,0,1.66.07l.07-.07a1.61,1.61,0,0,0,.33-1.06,1.42,1.42,0,0,0-.34-1,1.15,1.15,0,0,0-.87-.36,1.07,1.07,0,0,0-.9.41,1.56,1.56,0,0,0-.3,1Zm.16-3.68a1,1,0,0,0,.27.76,1,1,0,0,0,.74.28,1,1,0,0,0,.76-.28,1.14,1.14,0,0,0,0-1.51,1.15,1.15,0,0,0-1.5,0,1,1,0,0,0-.28.78Z" transform="translate(-0.08 0)"/><path d="M81.46,300.58a2.35,2.35,0,0,1,2,.89,7.71,7.71,0,0,1,0,7,2.35,2.35,0,0,1-2,.87,2.42,2.42,0,0,1-2-1,7.84,7.84,0,0,1,.09-6.91A2.37,2.37,0,0,1,81.46,300.58Zm0,1.37a.77.77,0,0,0-.53.19,1.27,1.27,0,0,0-.37.68,9.14,9.14,0,0,0-.17,2.15,8.51,8.51,0,0,0,.16,2.08,1.42,1.42,0,0,0,.38.75.82.82,0,0,0,1.06,0,1.34,1.34,0,0,0,.37-.68,10.34,10.34,0,0,0,.17-2.15,9.08,9.08,0,0,0-.16-2.08,1.62,1.62,0,0,0-.38-.75A.8.8,0,0,0,81.46,302Z" transform="translate(-0.08 0)"/><path d="M100.18,306.71v-1.23h6.69v1.23Z" transform="translate(-0.08 0)"/><path d="M113,302.72l-1.6.18a1.22,1.22,0,0,0-.3-.73.9.9,0,0,0-.64-.23,1.05,1.05,0,0,0-.88.47,3.9,3.9,0,0,0-.46,1.95,1.89,1.89,0,0,1,1.53-.73,2.32,2.32,0,0,1,1.77.79,2.84,2.84,0,0,1,.74,2,2.94,2.94,0,0,1-.78,2.12,2.83,2.83,0,0,1-4-.07l-.13-.15a5.09,5.09,0,0,1-.84-3.31,5.25,5.25,0,0,1,.87-3.4,2.81,2.81,0,0,1,2.27-1.05,2.45,2.45,0,0,1,1.62.55A2.61,2.61,0,0,1,113,302.72Zm-3.74,3.59a1.83,1.83,0,0,0,.37,1.24,1.09,1.09,0,0,0,.85.44,1,1,0,0,0,.76-.36,1.82,1.82,0,0,0,.34-1.2,2.07,2.07,0,0,0-.32-1.23,1.07,1.07,0,0,0-1.5-.14l-.13.14A1.56,1.56,0,0,0,109.24,306.31Z" transform="translate(-0.08 0)"/><path d="M116.86,300.58a2.35,2.35,0,0,1,2,.89,7.77,7.77,0,0,1,0,7,2.31,2.31,0,0,1-1.94.87,2.44,2.44,0,0,1-2-1,7.92,7.92,0,0,1,.08-6.93A2.37,2.37,0,0,1,116.86,300.58Zm0,1.37a.87.87,0,0,0-.54.19,1.36,1.36,0,0,0-.36.68,14.28,14.28,0,0,0,0,4.23,1.33,1.33,0,0,0,.39.75.74.74,0,0,0,.53.19.75.75,0,0,0,.53-.19,1.25,1.25,0,0,0,.36-.68,14.07,14.07,0,0,0,0-4.23,1.53,1.53,0,0,0-.38-.75A.79.79,0,0,0,116.86,302Z" transform="translate(-0.08 0)"/><path d="M136.87,306.71v-1.23h6.7v1.23Z" transform="translate(-0.08 0)"/><path d="M147.3,309.21v-1.73h-3.51V306l3.72-5.46h1.39V306H150v1.45H148.9v1.73Zm0-3.18V303.1l-2,2.93Z" transform="translate(-0.08 0)"/><path d="M153.57,300.58a2.37,2.37,0,0,1,2,.89,7.71,7.71,0,0,1,0,7,2.33,2.33,0,0,1-2,.87,2.44,2.44,0,0,1-2-1,8.14,8.14,0,0,1,0-6.91A2.37,2.37,0,0,1,153.57,300.58Zm0,1.37a.8.8,0,0,0-.53.19,1.19,1.19,0,0,0-.36.68,9.14,9.14,0,0,0-.17,2.15,9,9,0,0,0,.15,2.08,1.42,1.42,0,0,0,.38.75.75.75,0,0,0,.53.19.76.76,0,0,0,.54-.19,1.36,1.36,0,0,0,.36-.68,14.28,14.28,0,0,0,0-4.23,1.55,1.55,0,0,0-.39-.75A.78.78,0,0,0,153.57,302Z" transform="translate(-0.08 0)"/><path d="M172.58,306.71v-1.23h6.68v1.23Z" transform="translate(-0.08 0)"/><path d="M185.31,307.68v1.53h-5.73a3.91,3.91,0,0,1,.56-1.65,11.25,11.25,0,0,1,1.85-2.05,11.41,11.41,0,0,0,1.37-1.41,1.79,1.79,0,0,0,.34-1,1.16,1.16,0,0,0-.3-.85,1.26,1.26,0,0,0-1.63,0,1.59,1.59,0,0,0-.36,1l-1.64-.16a2.7,2.7,0,0,1,.92-1.95,3.06,3.06,0,0,1,1.94-.6,2.77,2.77,0,0,1,2,.69,2.21,2.21,0,0,1,.73,1.7,3,3,0,0,1-.21,1.11,4.23,4.23,0,0,1-.66,1.1,8.47,8.47,0,0,1-1.07,1.09,9.87,9.87,0,0,0-1,1,3.63,3.63,0,0,0-.34.46Z" transform="translate(-0.08 0)"/><path d="M189.21,300.58a2.34,2.34,0,0,1,2,.89,7.65,7.65,0,0,1,0,7,2.31,2.31,0,0,1-1.94.87,2.44,2.44,0,0,1-2-1,5.6,5.6,0,0,1-.77-3.44,5.71,5.71,0,0,1,.84-3.49A2.4,2.4,0,0,1,189.21,300.58Zm0,1.37a.89.89,0,0,0-.54.19,1.36,1.36,0,0,0-.36.68,14.28,14.28,0,0,0,0,4.23,1.4,1.4,0,0,0,.39.75.75.75,0,0,0,.53.19.72.72,0,0,0,.53-.19,1.19,1.19,0,0,0,.36-.68,8.64,8.64,0,0,0,.17-2.15,9.07,9.07,0,0,0-.15-2.08,1.46,1.46,0,0,0-.38-.75A.79.79,0,0,0,189.21,302Z" transform="translate(-0.08 0)"/><path d="M218.21,300.58a2.37,2.37,0,0,1,1.95.89,7.71,7.71,0,0,1,0,7,2.33,2.33,0,0,1-1.95.87,2.44,2.44,0,0,1-2-1,7.82,7.82,0,0,1,.08-6.93A2.37,2.37,0,0,1,218.21,300.58Zm0,1.37a.8.8,0,0,0-.53.19,1.27,1.27,0,0,0-.37.68,10.34,10.34,0,0,0-.17,2.15,9,9,0,0,0,.16,2.08,1.42,1.42,0,0,0,.38.75.82.82,0,0,0,1.06,0,1.27,1.27,0,0,0,.37-.68,9.14,9.14,0,0,0,.17-2.15,8.55,8.55,0,0,0-.16-2.08,1.46,1.46,0,0,0-.38-.75A.77.77,0,0,0,218.21,302Z" transform="translate(-0.08 0)"/><path d="M254.33,307.68v1.53H248.6a4.2,4.2,0,0,1,.56-1.65,11.25,11.25,0,0,1,1.85-2.05,10.65,10.65,0,0,0,1.36-1.41,1.79,1.79,0,0,0,.34-1,1,1,0,0,0-.84-1.14h-.27a1.1,1.1,0,0,0-.82.31,1.66,1.66,0,0,0-.35,1l-1.64-.16a2.66,2.66,0,0,1,.92-1.95,3,3,0,0,1,1.93-.6,2.8,2.8,0,0,1,2,.69,2.22,2.22,0,0,1,.73,1.7,2.81,2.81,0,0,1-.21,1.11,4.23,4.23,0,0,1-.66,1.1,9.27,9.27,0,0,1-1.08,1.09,9.87,9.87,0,0,0-1,1,4.84,4.84,0,0,0-.33.46Z" transform="translate(-0.08 0)"/><path d="M258.23,300.58a2.32,2.32,0,0,1,1.95.89,7.77,7.77,0,0,1,0,7,2.35,2.35,0,0,1-1.95.87,2.42,2.42,0,0,1-2-1,7.78,7.78,0,0,1,.08-6.93A2.34,2.34,0,0,1,258.23,300.58Zm0,1.37a.82.82,0,0,0-.53.19,1.14,1.14,0,0,0-.36.68,8.64,8.64,0,0,0-.17,2.15,9,9,0,0,0,.15,2.08,1.35,1.35,0,0,0,.38.75.72.72,0,0,0,.53.19.8.8,0,0,0,.54-.19,1.45,1.45,0,0,0,.36-.68,14.28,14.28,0,0,0,0-4.23,1.55,1.55,0,0,0-.39-.75A.83.83,0,0,0,258.23,302Z" transform="translate(-0.08 0)"/><path d="M288.68,309.21v-1.73h-3.52V306l3.73-5.46h1.38V306h1.07v1.45h-1.07v1.73Zm0-3.18V303.1l-2,2.93Z" transform="translate(-0.08 0)"/><path d="M294.91,300.58a2.38,2.38,0,0,1,1.95.89,7.71,7.71,0,0,1,0,7,2.31,2.31,0,0,1-1.94.87,2.42,2.42,0,0,1-2-1,7.85,7.85,0,0,1,.07-6.93A2.38,2.38,0,0,1,294.91,300.58Zm0,1.37a.77.77,0,0,0-.53.19,1.27,1.27,0,0,0-.37.68,9.14,9.14,0,0,0-.17,2.15,8.51,8.51,0,0,0,.16,2.08,1.32,1.32,0,0,0,.38.75.82.82,0,0,0,1.06,0,1.27,1.27,0,0,0,.37-.68A9.7,9.7,0,0,0,296,305a9.08,9.08,0,0,0-.16-2.08,1.62,1.62,0,0,0-.38-.75A.8.8,0,0,0,294.91,302Z" transform="translate(-0.08 0)"/><path d="M325.71,302.72l-1.6.18a1.22,1.22,0,0,0-.3-.73.9.9,0,0,0-.64-.23,1.05,1.05,0,0,0-.88.47,3.9,3.9,0,0,0-.46,1.95,1.9,1.9,0,0,1,1.53-.73,2.32,2.32,0,0,1,1.77.79,2.85,2.85,0,0,1,.73,2,2.91,2.91,0,0,1-.77,2.12,2.83,2.83,0,0,1-4-.07l-.13-.15a5.09,5.09,0,0,1-.84-3.31,5.25,5.25,0,0,1,.87-3.4,2.81,2.81,0,0,1,2.27-1.05,2.45,2.45,0,0,1,1.62.55A2.56,2.56,0,0,1,325.71,302.72ZM322,306.31a1.83,1.83,0,0,0,.37,1.24,1.09,1.09,0,0,0,.85.44,1,1,0,0,0,.76-.36,1.84,1.84,0,0,0,.3-1.17,2,2,0,0,0-.32-1.23,1.07,1.07,0,0,0-1.5-.14l-.13.14A1.56,1.56,0,0,0,322,306.31Z" transform="translate(-0.08 0)"/><path d="M329.63,300.58a2.35,2.35,0,0,1,2,.89,7.77,7.77,0,0,1,0,7,2.31,2.31,0,0,1-1.94.87,2.44,2.44,0,0,1-2-1,7.91,7.91,0,0,1-.06-6.91A2.36,2.36,0,0,1,329.63,300.58Zm0,1.37a.87.87,0,0,0-.54.19,1.36,1.36,0,0,0-.36.68,14.28,14.28,0,0,0,0,4.23,1.33,1.33,0,0,0,.39.75.75.75,0,0,0,.53.19.8.8,0,0,0,.53-.19,1.25,1.25,0,0,0,.36-.68,14.07,14.07,0,0,0,0-4.23,1.53,1.53,0,0,0-.38-.75A.79.79,0,0,0,329.63,302Z" transform="translate(-0.08 0)"/><path d="M359.22,304.57A1.82,1.82,0,0,1,358,302.8a2.09,2.09,0,0,1,.67-1.59,3.2,3.2,0,0,1,3.81,0,2.09,2.09,0,0,1,.67,1.59,1.8,1.8,0,0,1-.31,1.06,1.84,1.84,0,0,1-.87.71,2.32,2.32,0,0,1,1.09.84,2.22,2.22,0,0,1,.37,1.27,2.55,2.55,0,0,1-.76,1.94,2.78,2.78,0,0,1-2,.74,3,3,0,0,1-1.95-.61,2.42,2.42,0,0,1-.92-2,2.51,2.51,0,0,1,.35-1.28A2.2,2.2,0,0,1,359.22,304.57Zm.18,2a1.5,1.5,0,0,0,.35,1.06,1.15,1.15,0,0,0,.87.38,1.11,1.11,0,0,0,.85-.37,1.51,1.51,0,0,0,.33-1.06,1.37,1.37,0,0,0-.34-1,1.11,1.11,0,0,0-.86-.36,1,1,0,0,0-.9.41,1.53,1.53,0,0,0-.3,1Zm.16-3.68a1,1,0,0,0,.27.76,1.13,1.13,0,0,0,1.5,0,1.1,1.1,0,0,0,.28-.77,1,1,0,0,0-1-1,1,1,0,0,0-1,1Z" transform="translate(-0.08 0)"/><path d="M367.26,300.58a2.37,2.37,0,0,1,1.95.89,7.71,7.71,0,0,1,0,7,2.33,2.33,0,0,1-1.95.87,2.44,2.44,0,0,1-2-1,5.74,5.74,0,0,1-.77-3.44,5.65,5.65,0,0,1,.85-3.49A2.37,2.37,0,0,1,367.26,300.58Zm0,1.37a.8.8,0,0,0-.53.19,1.19,1.19,0,0,0-.36.68,9.14,9.14,0,0,0-.17,2.15,10.3,10.3,0,0,0,.15,2.08,1.42,1.42,0,0,0,.38.75.75.75,0,0,0,.53.19.72.72,0,0,0,.53-.19,1.27,1.27,0,0,0,.37-.68,13.64,13.64,0,0,0,0-4.23,1.47,1.47,0,0,0-.39-.75A.78.78,0,0,0,367.26,302Z" transform="translate(-0.08 0)"/><path d="M393,309.21h-1.64V303a5.61,5.61,0,0,1-2.13,1.25v-1.49a4.54,4.54,0,0,0,1.4-.8,3.12,3.12,0,0,0,1-1.38H393Z" transform="translate(-0.08 0)"/><path d="M398.27,300.58a2.37,2.37,0,0,1,2,.89,7.65,7.65,0,0,1,0,7,2.31,2.31,0,0,1-1.94.87,2.44,2.44,0,0,1-2-1,5.6,5.6,0,0,1-.77-3.44,5.71,5.71,0,0,1,.84-3.49A2.37,2.37,0,0,1,398.27,300.58Zm0,1.37a.89.89,0,0,0-.54.19,1.36,1.36,0,0,0-.36.68,14.28,14.28,0,0,0,0,4.23,1.4,1.4,0,0,0,.39.75.75.75,0,0,0,.53.19.72.72,0,0,0,.53-.19,1.19,1.19,0,0,0,.36-.68,8.64,8.64,0,0,0,.17-2.15,9.07,9.07,0,0,0-.15-2.08,1.46,1.46,0,0,0-.38-.75A.79.79,0,0,0,398.27,302Z" transform="translate(-0.08 0)"/><path d="M404.94,300.58a2.39,2.39,0,0,1,2,.89,7.77,7.77,0,0,1,0,7,2.35,2.35,0,0,1-2,.87,2.45,2.45,0,0,1-2-1,7.82,7.82,0,0,1,.08-6.93A2.37,2.37,0,0,1,404.94,300.58Zm0,1.37a.8.8,0,0,0-.53.19,1.27,1.27,0,0,0-.37.68,10.34,10.34,0,0,0-.17,2.15,9,9,0,0,0,.16,2.08,1.49,1.49,0,0,0,.38.75.83.83,0,0,0,1.07,0,1.42,1.42,0,0,0,.37-.68A10.34,10.34,0,0,0,406,305a9.08,9.08,0,0,0-.16-2.08,1.53,1.53,0,0,0-.38-.75A.81.81,0,0,0,404.94,302Z" transform="translate(-0.08 0)"/><path d="M119.56,326.71h-1.89l-.75-1.95h-3.36l-.71,1.95H111l3.34-8.59h1.84Zm-3.2-3.4-1.18-3.19L114,323.31Z" transform="translate(-0.08 0)"/><path d="M120.56,326.71v-8.59h1.69l3.52,5.74v-5.74h1.61v8.59h-1.74l-3.47-5.6v5.6Z" transform="translate(-0.08 0)"/><path d="M133.18,323.55v-1.44h3.75v3.42a5,5,0,0,1-1.58.93,6.12,6.12,0,0,1-2.11.4,4.7,4.7,0,0,1-2.35-.57,3.57,3.57,0,0,1-1.5-1.62,5.28,5.28,0,0,1-.51-2.28,5,5,0,0,1,.57-2.39,3.78,3.78,0,0,1,1.64-1.6,4.47,4.47,0,0,1,2.06-.43,4.13,4.13,0,0,1,2.51.68,3,3,0,0,1,1.15,1.85l-1.73.32a1.78,1.78,0,0,0-.68-1,2,2,0,0,0-1.25-.36,2.35,2.35,0,0,0-1.81.72,3,3,0,0,0-.67,2.14,3.38,3.38,0,0,0,.68,2.29,2.28,2.28,0,0,0,1.78.76,2.86,2.86,0,0,0,1.09-.21,3.32,3.32,0,0,0,.94-.52v-1.09Z" transform="translate(-0.08 0)"/><path d="M138.57,326.71v-8.52h1.74v7.07h4.31v1.45Z" transform="translate(-0.08 0)"/><path d="M145.86,326.71v-8.59h6.36v1.45h-4.65v1.87h4.31v1.45h-4.31v2.33h4.8v1.45Z" transform="translate(-0.08 0)"/><path d="M156.84,322.44a5.5,5.5,0,0,1,.39-2.2,4.17,4.17,0,0,1,.8-1.18,3.29,3.29,0,0,1,1.11-.78,4.79,4.79,0,0,1,1.86-.34,4,4,0,0,1,3,1.18,5.27,5.27,0,0,1,0,6.57,4,4,0,0,1-3,1.18,4.05,4.05,0,0,1-3-1.17A4.47,4.47,0,0,1,156.84,322.44Zm1.79-.06a3.21,3.21,0,0,0,.67,2.21,2.23,2.23,0,0,0,1.71.75,2.17,2.17,0,0,0,1.71-.74,3.28,3.28,0,0,0,.66-2.24,3.15,3.15,0,0,0-.65-2.21,2.4,2.4,0,0,0-3.39,0l-.05,0a3.25,3.25,0,0,0-.66,2.29Z" transform="translate(-0.08 0)"/><path d="M166.58,326.71v-8.59h5.89v1.45h-4.19v2h3.59V323h-3.59v3.65Z" transform="translate(-0.08 0)"/><path d="M177.15,326.71v-8.59h1.73v8.59Z" transform="translate(-0.08 0)"/><path d="M180.58,326.71v-8.59h1.69l3.52,5.74v-5.74h1.61v8.59h-1.74l-3.47-5.6v5.6Z" transform="translate(-0.08 0)"/><path d="M194.7,323.55l1.69.54a3.79,3.79,0,0,1-1.3,2.08,3.64,3.64,0,0,1-2.28.69,3.7,3.7,0,0,1-2.81-1.17,4.46,4.46,0,0,1-1.1-3.2,4.73,4.73,0,0,1,1.1-3.33,3.79,3.79,0,0,1,2.92-1.19,3.54,3.54,0,0,1,2.57.94,3.39,3.39,0,0,1,.88,1.58l-1.73.41a1.73,1.73,0,0,0-.64-1.06,1.81,1.81,0,0,0-1.17-.38,2,2,0,0,0-1.55.68,3.42,3.42,0,0,0-.6,2.22,3.66,3.66,0,0,0,.59,2.32,1.91,1.91,0,0,0,1.52.69,1.71,1.71,0,0,0,1.19-.43A2.6,2.6,0,0,0,194.7,323.55Z" transform="translate(-0.08 0)"/><path d="M197.92,326.71v-8.52h1.74v7.07H204v1.45Z" transform="translate(-0.08 0)"/><path d="M205.15,326.71v-8.59h1.74v8.59Z" transform="translate(-0.08 0)"/><path d="M208.59,326.71v-8.59h1.69l3.51,5.74v-5.74h1.61v8.59h-1.81l-3.46-5.6v5.6Z" transform="translate(-0.08 0)"/><path d="M225,326.71h-1.88l-.75-1.95h-3.44l-.71,1.95h-1.84l3.35-8.59h1.83Zm-3.19-3.4-1.17-3.19-1.16,3.19Z" transform="translate(-0.08 0)"/><path d="M227.82,326.71v-7.14h-2.55v-1.45h6.82v1.45H229.6v7.14Z" transform="translate(-0.08 0)"/><path d="M233.16,326.71v-8.59h1.74v8.59Z" transform="translate(-0.08 0)"/><path d="M236.2,322.44a5.5,5.5,0,0,1,.39-2.2,3.79,3.79,0,0,1,.8-1.18,3.2,3.2,0,0,1,1.11-.78,4.71,4.71,0,0,1,1.85-.34,4,4,0,0,1,3,1.18,5.25,5.25,0,0,1,0,6.53,4.52,4.52,0,0,1-6.07,0A4.44,4.44,0,0,1,236.2,322.44Zm1.78-.06a3.22,3.22,0,0,0,.68,2.21,2.23,2.23,0,0,0,1.71.75,2.17,2.17,0,0,0,1.7-.74,3.29,3.29,0,0,0,.67-2.24,3.25,3.25,0,0,0-.65-2.21,2.41,2.41,0,0,0-3.41,0l0,0a3.25,3.25,0,0,0-.66,2.29Z" transform="translate(-0.08 0)"/><path d="M245.9,326.71v-8.59h1.7l3.51,5.74v-5.74h1.61v8.59H251l-3.46-5.6v5.6Z" transform="translate(-0.08 0)"/><path d="M254.5,325.06h1.65v1.18a4.3,4.3,0,0,1-.12,1.13,1.71,1.71,0,0,1-.47.74,2.53,2.53,0,0,1-.88.52l-.32-.68a1.17,1.17,0,0,0,.94-1.24h-.8Z" transform="translate(-0.08 0)"/><path d="M263.61,318q2.79,0,2.79,4.45c0,3-.93,4.44-2.79,4.43a2.4,2.4,0,0,1-2-1,5.89,5.89,0,0,1-.75-3.46C260.81,319.44,261.74,318,263.61,318Zm1.09,3.76a4.75,4.75,0,0,0-.32-1.94.83.83,0,0,0-.77-.47.85.85,0,0,0-.77.47,4.75,4.75,0,0,0-.32,1.94Zm0,1.37h-2.19a4.73,4.73,0,0,0,.32,1.93.86.86,0,0,0,1.15.39.92.92,0,0,0,.39-.39,4.73,4.73,0,0,0,.32-1.93Z" transform="translate(-0.08 0)"/><path d="M273.76,329.24h-1.15a11.3,11.3,0,0,1-1.36-2.82,9.31,9.31,0,0,1-.47-2.82,8.77,8.77,0,0,1,.58-3.21,11.43,11.43,0,0,1,1.28-2.42h1.12a18.56,18.56,0,0,0-1.1,3,11.68,11.68,0,0,0-.3,2.64,12.18,12.18,0,0,0,.17,2,14.22,14.22,0,0,0,.49,1.92C273.18,327.92,273.42,328.49,273.76,329.24Z" transform="translate(-0.08 0)"/><path d="M275,318.12h3.17a6.36,6.36,0,0,1,1.63.16,2.8,2.8,0,0,1,1.3.8,3.45,3.45,0,0,1,.82,1.39,6.45,6.45,0,0,1,.28,2,5.42,5.42,0,0,1-.27,1.83,3.63,3.63,0,0,1-.92,1.51,2.92,2.92,0,0,1-1.21.69,5.69,5.69,0,0,1-1.54.18H275Zm1.73,1.45v5.69h1.3a4.77,4.77,0,0,0,1-.08,1.51,1.51,0,0,0,.7-.36,1.71,1.71,0,0,0,.46-.83,5.19,5.19,0,0,0,.17-1.57,4.93,4.93,0,0,0-.17-1.53,1.89,1.89,0,0,0-.49-.83,1.52,1.52,0,0,0-.81-.4,6.74,6.74,0,0,0-1.42-.09Z" transform="translate(-0.08 0)"/><path d="M287.31,324.73,289,325a2.75,2.75,0,0,1-1,1.37,3,3,0,0,1-1.71.47,2.81,2.81,0,0,1-2.41-1.06,3.61,3.61,0,0,1-.61-2.14,3.52,3.52,0,0,1,.8-2.43,2.7,2.7,0,0,1,2-.87,2.73,2.73,0,0,1,2.19.91,4.09,4.09,0,0,1,.77,2.81h-4.14a1.77,1.77,0,0,0,.41,1.14,1.28,1.28,0,0,0,.95.41,1,1,0,0,0,.65-.21A1.32,1.32,0,0,0,287.31,324.73Zm.09-1.66A1.59,1.59,0,0,0,287,322a1.08,1.08,0,0,0-.85-.37,1.12,1.12,0,0,0-.89.39,1.55,1.55,0,0,0-.36,1.07Z" transform="translate(-0.08 0)"/><path d="M290.23,327.12l1.88.23a.58.58,0,0,0,.22.45,1.16,1.16,0,0,0,.73.18,1.84,1.84,0,0,0,1-.2.79.79,0,0,0,.33-.41,2.8,2.8,0,0,0,.07-.76v-.91a2.23,2.23,0,0,1-1.86,1,2.27,2.27,0,0,1-2-1.06,3.52,3.52,0,0,1-.58-2.09,3.44,3.44,0,0,1,.75-2.39,2.4,2.4,0,0,1,1.88-.82,2.27,2.27,0,0,1,1.9,1v-.87h1.54v5.58a5.76,5.76,0,0,1-.18,1.65,2.06,2.06,0,0,1-.51.85,2.32,2.32,0,0,1-.88.49,4.63,4.63,0,0,1-1.38.18,3.56,3.56,0,0,1-2.25-.55,1.69,1.69,0,0,1-.66-1.37A.54.54,0,0,1,290.23,327.12Zm1.47-3.65a2.27,2.27,0,0,0,.38,1.45,1.17,1.17,0,0,0,1,.46,1.38,1.38,0,0,0,1-.47,2.07,2.07,0,0,0,.41-1.4,2.19,2.19,0,0,0-.39-1.43,1.26,1.26,0,0,0-1-.47,1.18,1.18,0,0,0-1,.46,2.1,2.1,0,0,0-.4,1.37Z" transform="translate(-0.08 0)"/><path d="M299.29,326.71h-1.67v-6.22h1.53v.88a2.54,2.54,0,0,1,.71-.82,1.2,1.2,0,0,1,.71-.2,2.05,2.05,0,0,1,1.08.31l-.51,1.43a1.43,1.43,0,0,0-.77-.27,1,1,0,0,0-.59.19,1.43,1.43,0,0,0-.38.69,9.75,9.75,0,0,0-.13,2.09Z" transform="translate(-0.08 0)"/><path d="M306,324.73l1.64.28a2.75,2.75,0,0,1-1,1.37,3,3,0,0,1-1.71.47,2.78,2.78,0,0,1-2.4-1.06,3.55,3.55,0,0,1-.62-2.14,3.45,3.45,0,0,1,.81-2.43,2.66,2.66,0,0,1,2-.87,2.72,2.72,0,0,1,2.19.91,4,4,0,0,1,.77,2.81h-4a1.64,1.64,0,0,0,.4,1.14,1.28,1.28,0,0,0,.94.41,1,1,0,0,0,.66-.18A1.31,1.31,0,0,0,306,324.73Zm.1-1.66a1.54,1.54,0,0,0-.37-1.09,1.12,1.12,0,0,0-.86-.37,1.13,1.13,0,0,0-.89.39,1.48,1.48,0,0,0-.34,1.07Z" transform="translate(-0.08 0)"/><path d="M312.62,324.73l1.64.28a2.75,2.75,0,0,1-1,1.37,3,3,0,0,1-1.71.47,2.79,2.79,0,0,1-2.4-1.06,3.62,3.62,0,0,1-.62-2.14,3.45,3.45,0,0,1,.81-2.43,2.68,2.68,0,0,1,2.05-.87,2.75,2.75,0,0,1,2.19.91,4,4,0,0,1,.77,2.81h-4.13a1.71,1.71,0,0,0,.4,1.14,1.24,1.24,0,0,0,.95.41,1,1,0,0,0,.65-.21A1.32,1.32,0,0,0,312.62,324.73Zm.09-1.66a1.54,1.54,0,0,0-.37-1.09,1.09,1.09,0,0,0-.85-.37,1.13,1.13,0,0,0-.89.39,1.54,1.54,0,0,0-.35,1.07Z" transform="translate(-0.08 0)"/><path d="M315.16,324.94l1.65-.26a1.13,1.13,0,0,0,.43.73,1.43,1.43,0,0,0,.9.25,1.67,1.67,0,0,0,1-.23.54.54,0,0,0,.22-.44.43.43,0,0,0-.12-.31,1.25,1.25,0,0,0-.61-.24,8.89,8.89,0,0,1-2.53-.8,1.59,1.59,0,0,1-.73-1.4,1.68,1.68,0,0,1,.64-1.36,3,3,0,0,1,2-.55,3.38,3.38,0,0,1,1.89.41,2.16,2.16,0,0,1,.86,1.23l-1.55.29a1,1,0,0,0-.38-.56,1.42,1.42,0,0,0-.8-.19,1.75,1.75,0,0,0-.93.18.38.38,0,0,0-.18.34.37.37,0,0,0,.16.3,6.83,6.83,0,0,0,1.54.46,4.41,4.41,0,0,1,1.83.73,1.51,1.51,0,0,1,.52,1.23,1.91,1.91,0,0,1-.71,1.47,3.24,3.24,0,0,1-2.12.61,3.43,3.43,0,0,1-2-.51A2.36,2.36,0,0,1,315.16,324.94Z" transform="translate(-0.08 0)"/><path d="M322,329.24c.33-.7.56-1.23.69-1.6a11.22,11.22,0,0,0,.37-1.29,13.34,13.34,0,0,0,.25-1.38,10,10,0,0,0,.08-1.34A11.68,11.68,0,0,0,323,321a16.57,16.57,0,0,0-1.1-3h1.12a10.63,10.63,0,0,1,1.38,2.68,9,9,0,0,1,.49,2.86,9.79,9.79,0,0,1-.39,2.63,11.11,11.11,0,0,1-1.45,3.1Z" transform="translate(-0.08 0)"/><path d="M8.82,260.66H.23v-1.74H8.82Z" transform="translate(-0.08 0)"/><path d="M8.82,257.25H.23v-1.68L6,252H.23v-1.63H8.82v1.74l-5.61,3.47H8.82Z" transform="translate(-0.08 0)"/><path d="M5.66,243.1l.53-1.69a3.88,3.88,0,0,1,2.09,1.28A3.74,3.74,0,0,1,9,245a3.65,3.65,0,0,1-1.17,2.81,4.44,4.44,0,0,1-3.19,1.1,4.65,4.65,0,0,1-3.33-1.11,3.79,3.79,0,0,1-1.19-2.91A3.56,3.56,0,0,1,1,242.31a3.57,3.57,0,0,1,1.58-.9L3,243.13A1.77,1.77,0,0,0,1.52,245a2,2,0,0,0,.69,1.55,3.28,3.28,0,0,0,2.31.59,3.58,3.58,0,0,0,2.32-.58A1.91,1.91,0,0,0,7.52,245a1.73,1.73,0,0,0-.44-1.18A2.49,2.49,0,0,0,5.66,243.1Z" transform="translate(-0.08 0)"/><path d="M8.82,239.92H.23v-3.65a6.13,6.13,0,0,1,.23-2,2,2,0,0,1,.82-1,2.48,2.48,0,0,1,1.35-.37,2.28,2.28,0,0,1,1.6.57,2.65,2.65,0,0,1,.79,1.7,3.66,3.66,0,0,1,.73-.93,8.43,8.43,0,0,1,1.39-1l1.68-1.05v2.08L7,235.52a14,14,0,0,0-1.27.91,1.26,1.26,0,0,0-.35.53,2.84,2.84,0,0,0-.1.87v.35H8.82Zm-5-1.73v-1.28a6.28,6.28,0,0,0-.11-1.56,1,1,0,0,0-.36-.49,1.1,1.1,0,0,0-.64-.17,1,1,0,0,0-.7.23,1,1,0,0,0-.34.65v2.62Z" transform="translate(-0.08 0)"/><path d="M8.82,231.26H.23V224.9H1.68v4.63h1.9v-4.31H5v4.31H7.37v-4.81H8.82Z" transform="translate(-0.08 0)"/><path d="M8.82,223.27H.23v-2.59l5.86-1.56L.23,217.58V215H8.82v1.61H2.05l6.77,1.7V220l-6.77,1.7H8.82Z" transform="translate(-0.08 0)"/><path d="M8.82,213.25H.23v-6.36H1.68v4.63h1.9v-4.31H5v4.31H7.37v-4.8H8.82Z" transform="translate(-0.08 0)"/><path d="M8.82,205.23H.23v-1.68L6,200H.23V198.4H8.82v1.74L3.21,203.6H8.82Z" transform="translate(-0.08 0)"/><path d="M8.82,194.64H1.68v2.56H.23v-6.81H1.68v2.55H8.82Z" transform="translate(-0.08 0)"/><path d="M8.82,181.5v1.89l-2,.75v3.43l2,.71v1.84L.23,186.77v-1.83Zm-3.4,3.19-3.19,1.19L5.42,187Z" transform="translate(-0.08 0)"/><path d="M8.82,180.53H.3V178.8H7.37v-4.32H8.82Z" transform="translate(-0.08 0)"/><path d="M6,170.39l-.16-1.68a2.11,2.11,0,0,0,1.24-.62,1.87,1.87,0,0,0,.42-1.3,1.83,1.83,0,0,0-.35-1.26,1,1,0,0,0-.83-.43.72.72,0,0,0-.52.18,1.49,1.49,0,0,0-.37.63c-.07.2-.2.66-.38,1.39a4.62,4.62,0,0,1-.85,2,2.19,2.19,0,0,1-1.72.79,2.22,2.22,0,0,1-1.23-.37,2.4,2.4,0,0,1-.87-1.07A4.47,4.47,0,0,1,.1,167a3.7,3.7,0,0,1,.71-2.45,2.53,2.53,0,0,1,1.89-.85l.06,1.73a1.39,1.39,0,0,0-1,.48,1.71,1.71,0,0,0-.29,1.1,2.07,2.07,0,0,0,.31,1.18.66.66,0,0,0,.53.28.69.69,0,0,0,.52-.26,4.65,4.65,0,0,0,.57-1.6A8.82,8.82,0,0,1,4,164.69a2.57,2.57,0,0,1,.88-1,2.56,2.56,0,0,1,1.41-.31,2.6,2.6,0,0,1,1.39.41,2.38,2.38,0,0,1,1,1.17A4.76,4.76,0,0,1,9,166.83a3.71,3.71,0,0,1-.75,2.5A3.32,3.32,0,0,1,6,170.39Z" transform="translate(-0.08 0)"/><path d="M8.82,161.9H.23v-6.37H1.68v4.64h1.9v-4.32H5v4.32H7.37v-4.79H8.82Z" transform="translate(-0.08 0)"/><path d="M8.82,153.88H.23v-1.69L6,148.68H.23v-1.62H8.82v1.74l-5.61,3.47H8.82Z" transform="translate(-0.08 0)"/><path d="M6,145.67,5.86,144a2,2,0,0,0,1.24-.6,1.84,1.84,0,0,0,.4-1.25,1.92,1.92,0,0,0-.35-1.27,1,1,0,0,0-.83-.48.77.77,0,0,0-.52.18,1.45,1.45,0,0,0-.37.62c-.07.21-.2.67-.38,1.39a4.62,4.62,0,0,1-.85,2,2.23,2.23,0,0,1-1.68.81A2.22,2.22,0,0,1,1.29,145a2.4,2.4,0,0,1-.87-1.07,4.48,4.48,0,0,1-.3-1.7,3.65,3.65,0,0,1,.71-2.43A2.51,2.51,0,0,1,2.72,139l.08,1.74a1.47,1.47,0,0,0-1,.47,1.71,1.71,0,0,0-.29,1.1,2,2,0,0,0,.31,1.19.65.65,0,0,0,1.05,0,4.53,4.53,0,0,0,.57-1.59A8.55,8.55,0,0,1,4.06,140a2.44,2.44,0,0,1,.88-.95,2.51,2.51,0,0,1,1.36-.34,2.36,2.36,0,0,1,1.39.41,2.32,2.32,0,0,1,1,1.16A4.76,4.76,0,0,1,9,142.15a3.71,3.71,0,0,1-.75,2.5A3.32,3.32,0,0,1,6,145.67Z" transform="translate(-0.08 0)"/><path d="M8.82,137.28H.23v-1.73H8.82Z" transform="translate(-0.08 0)"/><path d="M8.82,132H1.68v2.55H.23v-6.83H1.68v2.54H8.82Z" transform="translate(-0.08 0)"/><path d="M8.82,126.61H.23v-1.74H8.82Z" transform="translate(-0.08 0)"/><path d="M8.82,121,.23,124.1v-1.88L6.58,120l-6.35-2.1V116.1l8.59,3.08Z" transform="translate(-0.08 0)"/><path d="M8.82,115.27H.23v-1.74H8.82Z" transform="translate(-0.08 0)"/><path d="M8.82,110H1.68v2.55H.23v-6.83H1.68v2.54H8.82Z" transform="translate(-0.08 0)"/><path d="M8.82,102.28H5.2l-5,3.16v-2l3.39-2-3.39-2V97.36l5,3.16H8.82Z" transform="translate(-0.08 0)"/><path d="M7.17,96.59V94.94H8.35a3.93,3.93,0,0,1,1.13.13,1.72,1.72,0,0,1,.74.46,2.33,2.33,0,0,1,.51.87l-.68.32A1.35,1.35,0,0,0,9.6,96a1.28,1.28,0,0,0-.78-.23v.8Z" transform="translate(-0.08 0)"/><path d="M6,90.36l-.16-1.69a2,2,0,0,0,1.24-.62,1.85,1.85,0,0,0,.42-1.3,1.92,1.92,0,0,0-.35-1.27,1,1,0,0,0-.83-.42.77.77,0,0,0-.52.18,1.45,1.45,0,0,0-.37.62c-.07.2-.2.67-.38,1.39a4.62,4.62,0,0,1-.85,2,2.27,2.27,0,0,1-2.93.38,2.31,2.31,0,0,1-.87-1.08,4.25,4.25,0,0,1-.3-1.69,3.65,3.65,0,0,1,.71-2.43,2.46,2.46,0,0,1,1.89-.86L2.8,85.3a1.53,1.53,0,0,0-1,.48,1.77,1.77,0,0,0-.28,1.1,2,2,0,0,0,.31,1.18.61.61,0,0,0,.53.28.66.66,0,0,0,.52-.26,4.53,4.53,0,0,0,.57-1.59,8.21,8.21,0,0,1,.62-1.87,2.44,2.44,0,0,1,.88-1,2.38,2.38,0,0,1,1.36-.26,2.51,2.51,0,0,1,1.39.41,2.41,2.41,0,0,1,1,1.16A4.76,4.76,0,0,1,9,86.8a3.72,3.72,0,0,1-.75,2.51A3.33,3.33,0,0,1,6,90.36Z" transform="translate(-0.08 0)"/><path d="M11.34,75.81v1.13a11.31,11.31,0,0,1-2.82,1.42,9.38,9.38,0,0,1-2.83.47,9.08,9.08,0,0,1-3.17-.63A11.43,11.43,0,0,1,.1,76.92V75.79a17.7,17.7,0,0,0,3,1.11A11.54,11.54,0,0,0,7.71,77a13.71,13.71,0,0,0,1.91-.49A17.33,17.33,0,0,0,11.34,75.81Z" transform="translate(-0.08 0)"/><path d="M2.59,74.66V73.14h.85a2.43,2.43,0,0,1-1-1.94,2.06,2.06,0,0,1,.25-1,1.86,1.86,0,0,1,.74-.73,2.53,2.53,0,0,1-.74-.88,2.15,2.15,0,0,1-.25-1,2.34,2.34,0,0,1,.29-1.24,1.72,1.72,0,0,1,.79-.67,3.33,3.33,0,0,1,1.29-.17h4v1.64H5.26a2.87,2.87,0,0,0-1.2.17.81.81,0,0,0-.35.71,1.15,1.15,0,0,0,.83,1.09,4.32,4.32,0,0,0,1.29.13h3V70.9H5.41A4.7,4.7,0,0,0,4.23,71a.81.81,0,0,0-.39.27.89.89,0,0,0-.13.5,1.14,1.14,0,0,0,.21.68,1,1,0,0,0,.59.44A4,4,0,0,0,5.79,73h3v1.65Z" transform="translate(-0.08 0)"/><path d="M9.14,64.35l.26-1.78a.71.71,0,0,0,.41-.09A.7.7,0,0,0,10,62.2a1.11,1.11,0,0,0,.1-.54,1.5,1.5,0,0,0-.21-.85,1.17,1.17,0,0,0-.53-.4,8.1,8.1,0,0,0-1-.24l-.3-.06a2.78,2.78,0,0,1,.73,1.81,1.92,1.92,0,0,1-.65,1.5A2.67,2.67,0,0,1,6.3,64a5.07,5.07,0,0,1-2-.4,3,3,0,0,1-1.38-1.13A2.65,2.65,0,0,1,2.45,61a2.18,2.18,0,0,1,.32-1.14,2.29,2.29,0,0,1,.92-.8l-1.1-.24V57.26l5.19,1.09a15.42,15.42,0,0,1,1.78.44,2.7,2.7,0,0,1,.85.42,1.86,1.86,0,0,1,.53.59,2.5,2.5,0,0,1,.31.84,4.75,4.75,0,0,1,.09,1.06,3.57,3.57,0,0,1-.45,2,1.65,1.65,0,0,1-1.5.67Zm-3-2A1.6,1.6,0,0,0,7.22,62a1,1,0,0,0,.37-.8,1.38,1.38,0,0,0-.33-.89,2.11,2.11,0,0,0-1-.63,3.44,3.44,0,0,0-1.19-.22A1.55,1.55,0,0,0,4,59.86a1.05,1.05,0,0,0-.4.82,1.15,1.15,0,0,0,.36.83,2.54,2.54,0,0,0,1.1.63A3.34,3.34,0,0,0,6.14,62.35Z" transform="translate(-0.08 0)"/><path d="M9,57.42.08,55.29V54.05L9,56.2Z" transform="translate(-0.08 0)"/><path d="M8.82,49.35V51H2.61a5.62,5.62,0,0,1,1.25,2.12H2.36a4.43,4.43,0,0,0-.8-1.4,3,3,0,0,0-1.37-1V49.35Z" transform="translate(-0.08 0)"/><path d="M2,46.89A1.87,1.87,0,0,1,.08,45v0a1.8,1.8,0,0,1,.55-1.33A1.77,1.77,0,0,1,2,43.14a1.84,1.84,0,0,1,1.32.55,1.88,1.88,0,0,1,0,2.66A1.85,1.85,0,0,1,2,46.89Zm0-1a.86.86,0,0,0,.63-.26.89.89,0,0,0,0-1.25l0,0a.91.91,0,0,0-1.26,0,.89.89,0,0,0,0,1.25l0,0a.85.85,0,0,0,.63.29Z" transform="translate(-0.08 0)"/><path d="M11.34,42.18c-.52-.25-1.05-.48-1.6-.69-.37-.13-.8-.25-1.28-.37s-.91-.19-1.38-.25a11.9,11.9,0,0,0-1.34-.08,11.75,11.75,0,0,0-2.64.3,17.66,17.66,0,0,0-3,1.1V41.07A10.71,10.71,0,0,1,2.77,39.7a8.74,8.74,0,0,1,2.87-.49,10.5,10.5,0,0,1,2.62.38A11.71,11.71,0,0,1,11.36,41Z" transform="translate(-0.08 0)"/><path d="M417.47,329.76a5,5,0,0,1-1.63-.21,2,2,0,0,1-.95-.62,1.52,1.52,0,0,1-.34-1,1.75,1.75,0,0,1,.18-.81,1.55,1.55,0,0,1,.54-.57,2.9,2.9,0,0,1,.85-.36,6.11,6.11,0,0,1,1.35-.12,5.28,5.28,0,0,1,1.63.2,2.14,2.14,0,0,1,1,.62,1.65,1.65,0,0,1,.34,1,1.57,1.57,0,0,1-.6,1.3A3.73,3.73,0,0,1,417.47,329.76Zm0-.72a3.6,3.6,0,0,0,1.88-.33.94.94,0,0,0,.35-1.28,1,1,0,0,0-.35-.35,3.6,3.6,0,0,0-1.88-.33,3.55,3.55,0,0,0-1.87.33,1,1,0,0,0-.47.82.89.89,0,0,0,.41.77A3.56,3.56,0,0,0,417.47,329Z" transform="translate(-0.08 0)"/><path d="M417.19,324.23a1.35,1.35,0,0,1-.45.65,1.28,1.28,0,0,1-.71.21,1.41,1.41,0,0,1-1.06-.45,1.7,1.7,0,0,1-.42-1.2,1.61,1.61,0,0,1,.43-1.2,1.39,1.39,0,0,1,1.07-.46,1.13,1.13,0,0,1,.69.21,1.29,1.29,0,0,1,.45.63,1.45,1.45,0,0,1,1.47-1.07,1.65,1.65,0,0,1,1.24.51,2.11,2.11,0,0,1,0,2.74,1.68,1.68,0,0,1-1.25.52,1.55,1.55,0,0,1-.93-.28A1.42,1.42,0,0,1,417.19,324.23Zm-1.19.14a1,1,0,0,0,.88-1.11,1.12,1.12,0,0,0-.21-.5.91.91,0,0,0-1.28,0,.93.93,0,0,0-.26.67.87.87,0,0,0,.26.66.82.82,0,0,0,.61.27Zm2.65.23a1.19,1.19,0,0,0,.58-.15.92.92,0,0,0,.43-.42,1.21,1.21,0,0,0,.16-.61,1.12,1.12,0,0,0-.33-.83,1.09,1.09,0,0,0-.82-.33,1.1,1.1,0,0,0-.84.34,1.17,1.17,0,0,0-.33.85,1.13,1.13,0,0,0,1.11,1.15Z" transform="translate(-0.08 0)"/><path d="M415.32,320.82h-.66v-3.71h.54a8.42,8.42,0,0,0,1.55,1.08,9.48,9.48,0,0,0,2,.83,8.56,8.56,0,0,0,1.58.27V320a6.93,6.93,0,0,1-1.63-.26,8.69,8.69,0,0,1-1.85-.73,8.52,8.52,0,0,1-1.5-1Z" transform="translate(-0.08 0)"/><path d="M416,312.75l.06.7a1.31,1.31,0,0,0-.6.27.9.9,0,0,0-.3.7,1,1,0,0,0,.18.6,1.8,1.8,0,0,0,.71.53,4,4,0,0,0,1.33.19,1.57,1.57,0,0,1-.58-.62,1.76,1.76,0,0,1-.19-.78,1.64,1.64,0,0,1,.52-1.19,1.92,1.92,0,0,1,1.34-.5,2.17,2.17,0,0,1,1,.24,1.73,1.73,0,0,1,.71.63,1.89,1.89,0,0,1-.4,2.37,3.28,3.28,0,0,1-2.09.55,3.86,3.86,0,0,1-2.41-.61,1.77,1.77,0,0,1-.66-1.45,1.63,1.63,0,0,1,.38-1.11A1.65,1.65,0,0,1,416,312.75Zm2.47,2.89a1.88,1.88,0,0,0,.7-.16,1.1,1.1,0,0,0,.5-.43,1.13,1.13,0,0,0,.18-.59,1,1,0,0,0-.36-.77,1.5,1.5,0,0,0-1-.32,1.37,1.37,0,0,0-.93.32,1,1,0,0,0-.34.79,1.09,1.09,0,0,0,.34.82A1.26,1.26,0,0,0,418.44,315.64Z" transform="translate(-0.08 0)"/><path d="M415.32,311.91h-.66V308.2h.54a7.55,7.55,0,0,0,1.55,1.08,8.54,8.54,0,0,0,2,.83,7.16,7.16,0,0,0,1.58.27v.73a6.46,6.46,0,0,1-1.63-.27,8.19,8.19,0,0,1-1.85-.73,7.54,7.54,0,0,1-1.5-1Z" transform="translate(-0.08 0)"/><path d="M418.58,307.58h-.71v-2.15h.71Z" transform="translate(-0.08 0)"/><path d="M417.47,304.84a5,5,0,0,1-1.63-.21,2,2,0,0,1-.95-.62,1.52,1.52,0,0,1-.34-1,1.75,1.75,0,0,1,.18-.81,1.55,1.55,0,0,1,.54-.57,3.2,3.2,0,0,1,.85-.36,6.11,6.11,0,0,1,1.35-.12,5.28,5.28,0,0,1,1.63.2,2.14,2.14,0,0,1,1,.62,1.65,1.65,0,0,1,.34,1,1.56,1.56,0,0,1-.6,1.3A3.73,3.73,0,0,1,417.47,304.84Zm0-.72a3.6,3.6,0,0,0,1.88-.33.94.94,0,0,0,.35-1.28,1,1,0,0,0-.35-.35,3.6,3.6,0,0,0-1.88-.33,3.55,3.55,0,0,0-1.87.33,1,1,0,0,0-.47.82.89.89,0,0,0,.41.77A3.56,3.56,0,0,0,417.47,304.12Z" transform="translate(-0.08 0)"/><path d="M417.47,300.43a5,5,0,0,1-1.63-.21,2,2,0,0,1-.95-.62,1.52,1.52,0,0,1-.34-1,1.59,1.59,0,0,1,.18-.8,1.51,1.51,0,0,1,.54-.58,2.88,2.88,0,0,1,.85-.35,6.9,6.9,0,0,1,3,.07,2.14,2.14,0,0,1,1,.62,1.65,1.65,0,0,1,.34,1,1.56,1.56,0,0,1-.6,1.3A3.79,3.79,0,0,1,417.47,300.43Zm0-.72a3.6,3.6,0,0,0,1.88-.33.94.94,0,0,0,.35-1.28,1,1,0,0,0-.35-.35,3.6,3.6,0,0,0-1.88-.33,3.55,3.55,0,0,0-1.87.33,1,1,0,0,0-.47.82.93.93,0,0,0,.41.78,3.66,3.66,0,0,0,1.93.32Z" transform="translate(-0.08 0)"/><path d="M418.79,295.94l-.1-.71a1.57,1.57,0,0,0,.87-.41,1,1,0,0,0,.26-.71,1.07,1.07,0,0,0-.35-.83,1.13,1.13,0,0,0-.85-.35,1.08,1.08,0,0,0-1.11,1.05v.07a2.09,2.09,0,0,0,.08.5l-.62-.08v-.11a1.45,1.45,0,0,0-.24-.81.8.8,0,0,0-.72-.36.86.86,0,0,0-.64.26.94.94,0,0,0-.25.68.91.91,0,0,0,.26.68,1.3,1.3,0,0,0,.77.35l-.13.71a1.79,1.79,0,0,1-1.09-.59,1.65,1.65,0,0,1-.39-1.14,2,2,0,0,1,.2-.86,1.45,1.45,0,0,1,1.29-.81,1.22,1.22,0,0,1,.67.2,1.28,1.28,0,0,1,.49.59,1.34,1.34,0,0,1,.47-.83,1.42,1.42,0,0,1,.93-.28,1.7,1.7,0,0,1,1.27.54,1.91,1.91,0,0,1,.52,1.39,1.8,1.8,0,0,1-.45,1.25A1.77,1.77,0,0,1,418.79,295.94Z" transform="translate(-0.08 0)"/><line x1="362.53" y1="4.78" x2="362.53" y2="292.88" fill="none" stroke="#000" stroke-width="1"/><line x1="326.57" y1="4.78" x2="326.57" y2="292.88" fill="none" stroke="#000" stroke-width="1"/><line x1="290.52" y1="4.78" x2="290.52" y2="292.88" fill="none" stroke="#000" stroke-width="1"/><line x1="254.57" y1="4.78" x2="254.57" y2="292.88" fill="none" stroke="#000" stroke-width="1"/><line x1="218.52" y1="4.78" x2="218.52" y2="292.88" fill="none" stroke="#000" stroke-width="1"/><line x1="182.47" y1="4.78" x2="182.47" y2="292.88" fill="none" stroke="#000" stroke-width="1"/><line x1="146.51" y1="4.78" x2="146.51" y2="292.88" fill="none" stroke="#000" stroke-width="1"/><line x1="110.46" y1="4.78" x2="110.46" y2="292.88" fill="none" stroke="#000" stroke-width="1"/><line x1="74.51" y1="4.78" x2="74.51" y2="292.88" fill="none" stroke="#000" stroke-width="1"/><rect x="38.13" y="4.09" width="360.79" height="288.77" fill="none" stroke="#000" stroke-width="1.5"/><line x1="38.13" y1="261.31" x2="398.91" y2="261.31" fill="none" stroke="#000" stroke-width="1"/><line x1="38.13" y1="229.23" x2="398.91" y2="229.23" fill="none" stroke="#000" stroke-width="1"/><line x1="38.13" y1="197" x2="398.91" y2="197" fill="none" stroke="#000" stroke-width="1"/><line x1="38.13" y1="164.92" x2="398.91" y2="164.92" fill="none" stroke="#000" stroke-width="1"/><line x1="38.13" y1="132.69" x2="398.91" y2="132.69" fill="none" stroke="#000" stroke-width="1"/><line x1="38.13" y1="100.61" x2="398.91" y2="100.61" fill="none" stroke="#000" stroke-width="1"/><line x1="38.13" y1="68.39" x2="398.91" y2="68.39" fill="none" stroke="#000" stroke-width="1"/><line x1="38.13" y1="36.31" x2="398.91" y2="36.31" fill="none" stroke="#000" stroke-width="1"/><polyline points="55.9 290.6 57.57 285.55 60.06 280.47 61.72 275.42 63.41 270.38 65.08 266.14 66.75 261.1 68.42 256.01 70.91 250.96 72.57 246.76 74.24 241.69 75.9 236.64 77.56 232.41 79.25 227.36 81.75 222.28 83.42 218.07 85.08 213.02 86.74 208.79 88.41 203.74 90.07 199.51 92.57 194.46 94.25 190.26 95.92 186.02 97.6 180.98 99.26 176.74 100.92 172.53 103.42 168.32 105.08 163.24 106.74 159.03 108.4 154.81 110.1 150.6 111.76 146.39 114.26 142.17 115.92 137.96 117.58 134.59 119.24 130.35 120.92 126.15 122.58 122.78 125.11 118.55 126.77 115.18 128.43 110.98 130.09 107.59 131.77 103.37 134.25 100.01 135.93 96.61 137.59 93.25 139.25 89.88 140.94 86.52 142.6 83.13 145.1 79.77 146.76 77.24 148.43 73.84 150.09 70.48 151.75 67.95 153.41 65.43 155.94 62.04 157.61 59.52 159.28 56.99 160.94 54.47 162.6 51.92 164.27 49.39 166.76 46.87 168.42 44.34 170.09 42.65 171.78 40.1 173.44 38.42 175.11 35.9 177.6 34.22 179.27 32.54 180.93 30.86 182.59 29.18 184.25 27.46 185.93 25.78 188.46 24.94 190.12 23.26 191.78 21.58 193.44 20.73 195.1 19.9 196.76 19.05 199.26 17.34 200.92 16.5 202.62 16.5 204.28 15.65 205.94 14.81 207.62 13.97 210.1 13.97 211.78 13.97 213.44 13.12 215.1 13.12 216.76 13.12 219.29 13.12 220.95 13.12 222.63 13.12 224.29 13.12 225.95 13.97 227.61 13.97 230.11 13.97 231.77 14.81 233.46 15.65 235.13 16.5 236.79 16.5 238.45 17.34 240.95 19.05 242.61 19.9 244.28 20.73 245.94 21.58 247.62 23.26 249.3 24.94 251.8 25.78 253.46 27.46 255.13 29.18 256.79 30.86 258.45 32.54 260.12 34.22 262.61 35.9 264.3 38.42 265.97 40.1 267.63 42.65 269.29 44.34 270.96 46.87 273.45 49.39 275.13 51.92 276.79 54.47 278.46 56.99 280.14 59.52 281.8 62.04 284.3 65.43 285.96 67.95" fill="none" stroke="#000" stroke-linejoin="round" stroke-width="2.5"/><polyline points="285.96 67.95 287.63 70.48 289.3 73.84 290.96 77.24 292.62 79.77 295.14 83.13 296.8 86.52 298.48 89.88 300.14 93.25 301.8 96.61 303.46 100.01 305.96 103.37 307.63 107.59 309.29 110.98 310.99 115.18 312.65 118.55 315.15 122.78 316.81 126.15 318.47 130.35 320.13 134.59 321.81 137.96 323.47 142.17 325.99 146.39 327.65 150.6 329.31 154.81 330.97 159.03 332.64 163.24 334.31 168.32 336.81 172.53 338.48 176.74 340.14 180.98 341.83 186.02 343.49 190.26 345.16 194.46 347.65 199.51 349.31 203.74 350.98 208.79 352.64 213.02 354.3 218.07 356 222.28 358.49 227.36 360.15 232.41 361.82 236.64 363.48 241.69 365.15 246.76 366.82 250.96 369.32 256.01 370.98 261.1 372.67 266.14 374.34 270.38 376 275.42 377.66 280.47 380.16 285.55 381.82 290.6" fill="none" stroke="#000" stroke-linejoin="round" stroke-width="2.5"/><rect x="212.84" y="40.77" width="50.69" height="29.34" fill="#fff"/><path d="M232.25,52.11l2.94-4.48-2.66-4.12h2l1.72,2.77,1.69-2.77h2l-2.68,4.19,2.94,4.41h-2.09l-1.91-3-1.91,3Z" transform="translate(-0.08 0)"/><path d="M241.44,47.54V45.89h1.64v1.65Zm0,4.57V50.47h1.64v1.64Z" transform="translate(-0.08 0)"/><path d="M253.66,50.58v1.53h-5.77a4.16,4.16,0,0,1,.56-1.64,10.69,10.69,0,0,1,1.85-2.06A11.39,11.39,0,0,0,251.67,47a1.85,1.85,0,0,0,.34-1,1.1,1.1,0,0,0-.3-.85,1.12,1.12,0,0,0-.82-.31,1.15,1.15,0,0,0-.82.32,1.68,1.68,0,0,0-.35,1L248.08,46a2.72,2.72,0,0,1,.92-2,3.17,3.17,0,0,1,1.93-.59,2.85,2.85,0,0,1,2,.68,2.25,2.25,0,0,1,.73,1.72,2.8,2.8,0,0,1-.21,1.1,4.29,4.29,0,0,1-.66,1.1,10.19,10.19,0,0,1-1.08,1.1,11.8,11.8,0,0,0-1,1,2.22,2.22,0,0,0-.34.45Z" transform="translate(-0.08 0)"/><path d="M258,52.11V50.35h-3.53V48.94l3.74-5.46h1.39v5.46h1.07v1.41h-1.07v1.72Zm0-3.17V46l-2,2.94Z" transform="translate(-0.08 0)"/><path d="M219.59,66.51V62.9l-3.14-5h2l2,3.4,2-3.4h2l-3.16,5v3.6Z" transform="translate(-0.08 0)"/><path d="M224.74,61.94V60.29h1.66v1.65Zm0,4.57V64.87h1.66v1.64Z" transform="translate(-0.08 0)"/><path d="M235.6,66.51H234V60.35a5.7,5.7,0,0,1-2.12,1.25V60.1a4.54,4.54,0,0,0,1.4-.8,3,3,0,0,0,1-1.37h1.37Z" transform="translate(-0.08 0)"/><path d="M243.67,60l-1.6.17a1.07,1.07,0,0,0-.3-.72.88.88,0,0,0-.64-.24,1.08,1.08,0,0,0-.88.47,4.11,4.11,0,0,0-.46,2,1.93,1.93,0,0,1,1.53-.72,2.33,2.33,0,0,1,1.77.78,3.16,3.16,0,0,1,0,4.11,2.8,2.8,0,0,1-4,0l-.15-.16a5.17,5.17,0,0,1-.84-3.31A5.29,5.29,0,0,1,239,59a2.82,2.82,0,0,1,2.27-1,2.38,2.38,0,0,1,1.62.55A2.49,2.49,0,0,1,243.67,60Zm-3.73,3.59a1.9,1.9,0,0,0,.36,1.24,1.07,1.07,0,0,0,.85.43,1,1,0,0,0,.76-.35,1.8,1.8,0,0,0,.3-1.17,1.86,1.86,0,0,0-.32-1.23,1.06,1.06,0,0,0-1.49-.14l-.14.14a1.61,1.61,0,0,0-.32,1.08Z" transform="translate(-0.08 0)"/><path d="M245.12,66.51V64.87h1.64v1.64Z" transform="translate(-0.08 0)"/><path d="M250.88,57.89a2.37,2.37,0,0,1,2,.89,5.59,5.59,0,0,1,.84,3.5,5.66,5.66,0,0,1-.84,3.5,2.33,2.33,0,0,1-2,.88,2.44,2.44,0,0,1-2-1,5.75,5.75,0,0,1-.77-3.44,5.65,5.65,0,0,1,.85-3.49A2.33,2.33,0,0,1,250.88,57.89Zm0,1.36a.86.86,0,0,0-.53.19,1.34,1.34,0,0,0-.37.69,10.34,10.34,0,0,0-.17,2.15,9.59,9.59,0,0,0,.16,2.07,1.61,1.61,0,0,0,.38.76.85.85,0,0,0,.53.18.72.72,0,0,0,.53-.19,1.15,1.15,0,0,0,.37-.68,9,9,0,0,0,.17-2.14,8.51,8.51,0,0,0-.16-2.08,1.38,1.38,0,0,0-.38-.76A.84.84,0,0,0,250.88,59.25Z" transform="translate(-0.08 0)"/><path d="M259,66.51h-1.64V60.35a5.7,5.7,0,0,1-2.14,1.25V60.1a4.48,4.48,0,0,0,1.41-.8,3.11,3.11,0,0,0,1-1.37H259Z" transform="translate(-0.08 0)"/><rect x="277.45" y="158.14" width="50.69" height="29.34" fill="#fff"/><path d="M296.85,169.49l2.94-4.49-2.66-4.11h2l1.73,2.76,1.68-2.76h2l-2.67,4.18,2.94,4.42h-2.09l-1.91-3-1.91,3Z" transform="translate(-0.08 0)"/><path d="M306,164.91v-1.66h1.65v1.66Zm0,4.58v-1.65h1.65v1.65Z" transform="translate(-0.08 0)"/><path d="M318.28,163l-1.59.18a1.32,1.32,0,0,0-.3-.73.9.9,0,0,0-.64-.23,1.16,1.16,0,0,0-.9.46,4.1,4.1,0,0,0-.45,2,2,2,0,0,1,1.54-.73,2.4,2.4,0,0,1,1.77.78,2.9,2.9,0,0,1,.73,2,3,3,0,0,1-.77,2.12,2.84,2.84,0,0,1-4-.08l-.13-.14a5.24,5.24,0,0,1-.83-3.31,5.43,5.43,0,0,1,.87-3.42,2.87,2.87,0,0,1,2.28-1,2.47,2.47,0,0,1,1.62.55A2.64,2.64,0,0,1,318.28,163Zm-3.74,3.6a1.91,1.91,0,0,0,.37,1.24,1.15,1.15,0,0,0,.85.44,1,1,0,0,0,.77-.36,1.87,1.87,0,0,0,.3-1.17,1.9,1.9,0,0,0-.33-1.23,1,1,0,0,0-.82-.39,1.07,1.07,0,0,0-.81.37,1.65,1.65,0,0,0-.33,1.1Z" transform="translate(-0.08 0)"/><path d="M319.32,167.21l1.59-.2a1.58,1.58,0,0,0,.41.94,1.21,1.21,0,0,0,.81.32,1.14,1.14,0,0,0,.86-.39,1.53,1.53,0,0,0,.35-1,1.43,1.43,0,0,0-.33-1,1,1,0,0,0-.82-.36,2.36,2.36,0,0,0-.75.12l.18-1.35a1.39,1.39,0,0,0,1-.29,1,1,0,0,0,.35-.82,1,1,0,0,0-.26-.69,1,1,0,0,0-.68-.25,1,1,0,0,0-.73.29,1.38,1.38,0,0,0-.36.85l-1.52-.25a3.6,3.6,0,0,1,.48-1.25,2.12,2.12,0,0,1,.89-.73,3.13,3.13,0,0,1,1.28-.27,2.58,2.58,0,0,1,2,.78,2,2,0,0,1,0,2.83,2.21,2.21,0,0,1-.6.41,1.92,1.92,0,0,1,1.19.71,2.09,2.09,0,0,1,.44,1.33,2.62,2.62,0,0,1-.83,1.93,3.1,3.1,0,0,1-4,.12A2.58,2.58,0,0,1,319.32,167.21Z" transform="translate(-0.08 0)"/><path d="M284.18,183.89v-3.62l-3.15-5h2l2,3.4,2-3.4h2l-3.16,5v3.61Z" transform="translate(-0.08 0)"/><path d="M289.35,179.31v-1.65H291v1.65Zm0,4.58v-1.65H291v1.65Z" transform="translate(-0.08 0)"/><path d="M297.43,179.25a1.83,1.83,0,0,1-1.22-1.77,2.09,2.09,0,0,1,.67-1.59,3.2,3.2,0,0,1,3.81,0,2.09,2.09,0,0,1,.67,1.59,1.88,1.88,0,0,1-1.18,1.77,2.26,2.26,0,0,1,1.09.84,2.22,2.22,0,0,1,.35,1.3,2.58,2.58,0,0,1-.76,1.93,2.75,2.75,0,0,1-2,.75,3,3,0,0,1-1.95-.62,2.36,2.36,0,0,1-.92-2,2.51,2.51,0,0,1,.35-1.28A2.19,2.19,0,0,1,297.43,179.25Zm.18,2a1.5,1.5,0,0,0,.35,1.06,1.12,1.12,0,0,0,.87.38,1.11,1.11,0,0,0,.85-.36,1.56,1.56,0,0,0,.33-1.06,1.39,1.39,0,0,0-.34-1,1.12,1.12,0,0,0-.86-.37,1,1,0,0,0-.9.42,1.55,1.55,0,0,0-.29,1Zm.16-3.68a1.06,1.06,0,0,0,1,1.06,1,1,0,0,0,1-1.06,1,1,0,0,0-.28-.74,1.14,1.14,0,0,0-1.49,0,1,1,0,0,0-.28.76Z" transform="translate(-0.08 0)"/><path d="M303,183.89v-1.65h1.65v1.65Z" transform="translate(-0.08 0)"/><path d="M308.81,175.26a2.37,2.37,0,0,1,1.95.89,5.67,5.67,0,0,1,.83,3.5,5.59,5.59,0,0,1-.84,3.5,2.31,2.31,0,0,1-1.94.88,2.51,2.51,0,0,1-2-1,7.92,7.92,0,0,1,.08-6.93A2.33,2.33,0,0,1,308.81,175.26Zm0,1.37a.83.83,0,0,0-.54.19,1.25,1.25,0,0,0-.36.68,14.28,14.28,0,0,0,0,4.23,1.53,1.53,0,0,0,.38.75.83.83,0,0,0,.54.19.84.84,0,0,0,.53-.19,1.25,1.25,0,0,0,.36-.69,13.57,13.57,0,0,0,0-4.22,1.46,1.46,0,0,0-.38-.75.84.84,0,0,0-.53-.19Z" transform="translate(-0.08 0)"/><path d="M312.72,181.68l1.64-.17a1.52,1.52,0,0,0,.42.88,1.15,1.15,0,0,0,1.62,0l.06-.07a2,2,0,0,0,.35-1.27,1.79,1.79,0,0,0-.35-1.18,1.21,1.21,0,0,0-.92-.4,1.71,1.71,0,0,0-1.29.63l-1.33-.2.84-4.47h4.37V177H315l-.27,1.46a2.52,2.52,0,0,1,1.14-.27,2.43,2.43,0,0,1,1.85.8,2.91,2.91,0,0,1,.77,2.06,3.24,3.24,0,0,1-.62,1.9,2.73,2.73,0,0,1-2.32,1.13,2.87,2.87,0,0,1-1.95-.64A2.64,2.64,0,0,1,312.72,181.68Z" transform="translate(-0.08 0)"/><path d="M319.41,181.9l1.6-.18a1.16,1.16,0,0,0,.3.73.91.91,0,0,0,.65.23,1.09,1.09,0,0,0,.87-.47,4.08,4.08,0,0,0,.46-1.94,2,2,0,0,1-1.56.72,2.3,2.3,0,0,1-1.74-.79,2.8,2.8,0,0,1-.74-2,2.85,2.85,0,0,1,.78-2.11,2.63,2.63,0,0,1,2-.8,2.68,2.68,0,0,1,2.15,1,7,7,0,0,1,0,6.73,2.79,2.79,0,0,1-2.27,1,2.37,2.37,0,0,1-1.63-.54A2.58,2.58,0,0,1,319.41,181.9Zm3.73-3.6a1.86,1.86,0,0,0-.36-1.23,1.11,1.11,0,0,0-.85-.44.93.93,0,0,0-.76.36,2.44,2.44,0,0,0,0,2.4,1,1,0,0,0,.82.39,1,1,0,0,0,.8-.38,1.73,1.73,0,0,0,.32-1.1Z" transform="translate(-0.08 0)"/><rect x="302.21" y="222.16" width="50.69" height="29.34" fill="#fff"/><path d="M321.63,233.5l2.94-4.48-2.66-4.11h2l1.73,2.76,1.68-2.76h2l-2.69,4.18,2.94,4.41h-2.09l-1.91-3-1.91,3Z" transform="translate(-0.08 0)"/><path d="M330.8,228.93v-1.65h1.65v1.65Zm0,4.57v-1.64h1.65v1.64Z" transform="translate(-0.08 0)"/><path d="M337.46,226.56V225h5.64v1.2a8.63,8.63,0,0,0-1.42,2,11.49,11.49,0,0,0-1.1,2.72,10.24,10.24,0,0,0-.37,2.58h-1.58a11.28,11.28,0,0,1,.73-3.63,12.53,12.53,0,0,1,1.86-3.31Z" transform="translate(-0.08 0)"/><path d="M344.14,226.56V225h5.64v1.2a8.07,8.07,0,0,0-1.42,2,10.71,10.71,0,0,0-1.1,2.72,10.24,10.24,0,0,0-.37,2.58H345.3a11,11,0,0,1,.74-3.63,11.72,11.72,0,0,1,1.85-3.31Z" transform="translate(-0.08 0)"/><path d="M309,247.9v-3.61l-3.15-5h2l2,3.4,2-3.4h2l-3.16,5v3.6Z" transform="translate(-0.08 0)"/><path d="M314.11,243.33v-1.65h1.66v1.65Zm0,4.57v-1.64h1.66v1.64Z" transform="translate(-0.08 0)"/><path d="M324,247.9v-1.72H320.5v-1.45l3.72-5.45h1.41v5.45h1v1.45h-1v1.72Zm0-3.17v-2.94l-2,2.94Z" transform="translate(-0.08 0)"/><path d="M327.81,247.9v-1.64h1.64v1.64Z" transform="translate(-0.08 0)"/><path d="M333.57,239.28a2.35,2.35,0,0,1,2,.89,7.71,7.71,0,0,1,0,7,2.33,2.33,0,0,1-1.95.88,2.44,2.44,0,0,1-2-1,7.82,7.82,0,0,1,.08-6.93A2.29,2.29,0,0,1,333.57,239.28Zm0,1.36a.81.81,0,0,0-.53.2,1.19,1.19,0,0,0-.36.68,9.14,9.14,0,0,0-.17,2.15,9,9,0,0,0,.15,2.08,1.53,1.53,0,0,0,.38.75.85.85,0,0,0,1.07,0,1.4,1.4,0,0,0,.36-.69,14.21,14.21,0,0,0,0-4.22,1.37,1.37,0,0,0-.39-.75A.74.74,0,0,0,333.57,240.64Z" transform="translate(-0.08 0)"/><path d="M337.46,241v-1.55h5.64v1.2a8.85,8.85,0,0,0-1.42,2,11.67,11.67,0,0,0-1.1,2.72,10.24,10.24,0,0,0-.37,2.58h-1.58a11.28,11.28,0,0,1,.73-3.63,12.69,12.69,0,0,1,1.86-3.31Z" transform="translate(-0.08 0)"/><path d="M347.38,247.9v-1.72h-3.53v-1.45l3.74-5.45H349v5.45H350v1.45H349v1.72Zm0-3.17v-2.94l-2,2.94Z" transform="translate(-0.08 0)"/><rect x="257.83" y="30.12" width="9.19" height="9.32" fill="#fff"/><rect x="259.61" y="31.93" width="5.61" height="5.69"/><rect x="328.51" y="158.16" width="9.19" height="9.32" fill="#fff"/><rect x="330.3" y="159.97" width="5.61" height="5.69"/><rect x="353.19" y="222.85" width="9.19" height="9.32" fill="#fff"/><rect x="354.98" y="224.66" width="5.61" height="5.69"/></svg>