<svg id="bb9329e3-6af2-48c1-9a8e-9e7ce1abf756" data-name="eb578195-32ef-4115-8fa4-b602dd58b830" xmlns="http://www.w3.org/2000/svg" width="5.99in" height="4.58in" viewBox="0 0 431.35 329.74"><title>08767-009</title><rect x="56.09" y="4.8" width="360.08" height="288.07" fill="none" stroke="#000" stroke-width="1.5"/><line x1="56.09" y1="266.7" x2="416.17" y2="266.7" fill="none" stroke="#000" stroke-width="1"/><line x1="56.09" y1="240.53" x2="416.17" y2="240.53" fill="none" stroke="#000" stroke-width="1"/><line x1="56.09" y1="214.24" x2="416.17" y2="214.24" fill="none" stroke="#000" stroke-width="1"/><line x1="56.09" y1="188.07" x2="416.17" y2="188.07" fill="none" stroke="#000" stroke-width="1"/><line x1="56.09" y1="161.9" x2="416.17" y2="161.9" fill="none" stroke="#000" stroke-width="1"/><line x1="56.09" y1="135.75" x2="416.17" y2="135.75" fill="none" stroke="#000" stroke-width="1"/><line x1="56.09" y1="109.58" x2="416.17" y2="109.58" fill="none" stroke="#000" stroke-width="1"/><line x1="56.09" y1="83.43" x2="416.17" y2="83.43" fill="none" stroke="#000" stroke-width="1"/><line x1="56.09" y1="57.12" x2="416.17" y2="57.12" fill="none" stroke="#000" stroke-width="1"/><line x1="56.09" y1="30.95" x2="416.17" y2="30.95" fill="none" stroke="#000" stroke-width="1"/><path d="M36.34,8.65H34.7V2.44a5.82,5.82,0,0,1-2.13,1.25V2.19a4.54,4.54,0,0,0,1.4-.8A3.11,3.11,0,0,0,35,0H36.3Z" transform="translate(0 -0.02)"/><path d="M41.59,0a2.38,2.38,0,0,1,2,.89,5.68,5.68,0,0,1,.83,3.5,5.73,5.73,0,0,1-.84,3.5,2.32,2.32,0,0,1-1.94.88,2.44,2.44,0,0,1-2-1,5.7,5.7,0,0,1-.84-3.44A5.65,5.65,0,0,1,39.64.86,2.35,2.35,0,0,1,41.59,0Zm0,1.37a.87.87,0,0,0-.54.19,1.29,1.29,0,0,0-.36.68,9.14,9.14,0,0,0-.17,2.15,9,9,0,0,0,.15,2.08,1.4,1.4,0,0,0,.39.75.8.8,0,0,0,.53.19.86.86,0,0,0,.53-.19,1.21,1.21,0,0,0,.33-.69,9,9,0,0,0,.17-2.14,10.14,10.14,0,0,0-.12-2.06,1.46,1.46,0,0,0-.38-.75.88.88,0,0,0-.53-.25Z" transform="translate(0 -0.02)"/><path d="M48.26,0a2.37,2.37,0,0,1,2,.89,5.69,5.69,0,0,1,.84,3.5,5.6,5.6,0,0,1-.85,3.5,2.31,2.31,0,0,1-1.94.88,2.44,2.44,0,0,1-2-1,5.68,5.68,0,0,1-.81-3.44A5.71,5.71,0,0,1,46.29.86,2.36,2.36,0,0,1,48.26,0Zm0,1.37a.86.86,0,0,0-.53.19,1.27,1.27,0,0,0-.37.68,9.7,9.7,0,0,0-.17,2.15,8.51,8.51,0,0,0,.16,2.08,1.38,1.38,0,0,0,.38.75.82.82,0,0,0,1.06,0,1.26,1.26,0,0,0,.37-.69,9,9,0,0,0,.17-2.14,8.39,8.39,0,0,0-.16-2.06,1.46,1.46,0,0,0-.38-.75.78.78,0,0,0-.53-.25Z" transform="translate(0 -0.02)"/><path d="M38.84,32.67l1.61-.18a1.08,1.08,0,0,0,.31.72.86.86,0,0,0,.65.24,1,1,0,0,0,.86-.47A4,4,0,0,0,42.73,31a2,2,0,0,1-1.55.73A2.35,2.35,0,0,1,39.45,31a2.84,2.84,0,0,1-.74-2,2.85,2.85,0,0,1,.74-2.14,2.8,2.8,0,0,1,4,.05l.15.16a5.2,5.2,0,0,1,.88,3.32,5.31,5.31,0,0,1-.87,3.4,2.89,2.89,0,0,1-2.28,1,2.42,2.42,0,0,1-1.63-.54A2.53,2.53,0,0,1,38.84,32.67Zm3.72-3.6a1.86,1.86,0,0,0-.36-1.23,1.06,1.06,0,0,0-.85-.48,1,1,0,0,0-.76.36,1.82,1.82,0,0,0-.3,1.18,1.84,1.84,0,0,0,.33,1.22,1,1,0,0,0,1.4.22,1.15,1.15,0,0,0,.22-.22A1.58,1.58,0,0,0,42.56,29.07Z" transform="translate(0 -0.02)"/><path d="M48.26,26a2.37,2.37,0,0,1,2,.89,5.66,5.66,0,0,1,.84,3.5,5.6,5.6,0,0,1-.85,3.5,2.31,2.31,0,0,1-1.94.88,2.44,2.44,0,0,1-2-1,5.69,5.69,0,0,1-.81-3.44,5.7,5.7,0,0,1,.84-3.49A2.33,2.33,0,0,1,48.26,26Zm0,1.37a.75.75,0,0,0-.53.19,1.27,1.27,0,0,0-.37.68,9.7,9.7,0,0,0-.17,2.15,8.55,8.55,0,0,0,.16,2.08,1.46,1.46,0,0,0,.38.75.84.84,0,0,0,1.06,0,1.34,1.34,0,0,0,.37-.69,9.05,9.05,0,0,0,.17-2.14,8.39,8.39,0,0,0-.16-2.06,1.46,1.46,0,0,0-.38-.75.78.78,0,0,0-.53-.25Z" transform="translate(0 -0.02)"/><path d="M40.21,56.74A1.85,1.85,0,0,1,39,55a2,2,0,0,1,.67-1.64,2.69,2.69,0,0,1,1.9-.63,2.75,2.75,0,0,1,1.88.63,2,2,0,0,1,.67,1.58A1.84,1.84,0,0,1,43.81,56a1.94,1.94,0,0,1-.87.71,2.34,2.34,0,0,1,1.09.85,2.19,2.19,0,0,1,.42,1.29,2.58,2.58,0,0,1-.76,1.93,2.83,2.83,0,0,1-2,.75,3.11,3.11,0,0,1-2-.62,2.61,2.61,0,0,1-.58-3.28A2.31,2.31,0,0,1,40.21,56.74Zm.19,2a1.53,1.53,0,0,0,.35,1.06,1.12,1.12,0,0,0,.87.38,1.14,1.14,0,0,0,.84-.36,1.52,1.52,0,0,0,.34-1.06,1.35,1.35,0,0,0-.34-1,1.09,1.09,0,0,0-.86-.37,1,1,0,0,0-.9.42,1.51,1.51,0,0,0-.25,1Zm.15-3.69a1,1,0,0,0,.28.77,1.16,1.16,0,0,0,1.49,0,1.16,1.16,0,0,0,0-1.52,1.06,1.06,0,0,0-.74-.27,1,1,0,0,0-1,1Z" transform="translate(0 -0.02)"/><path d="M48.26,52.75a2.37,2.37,0,0,1,2,.89,5.71,5.71,0,0,1,.84,3.51,5.63,5.63,0,0,1-.85,3.5,2.34,2.34,0,0,1-1.94.88,2.49,2.49,0,0,1-2-1,5.73,5.73,0,0,1-.81-3.4,5.74,5.74,0,0,1,.84-3.5A2.38,2.38,0,0,1,48.26,52.75Zm0,1.36a.81.81,0,0,0-.53.2,1.31,1.31,0,0,0-.37.68,9.75,9.75,0,0,0-.17,2.16,8.59,8.59,0,0,0,.16,2.08,1.46,1.46,0,0,0,.38.75.84.84,0,0,0,1.06,0,1.34,1.34,0,0,0,.37-.69,9.1,9.1,0,0,0,.17-2.14,8.63,8.63,0,0,0-.16-2.09,1.46,1.46,0,0,0-.38-.75A.78.78,0,0,0,48.26,54.11Z" transform="translate(0 -0.02)"/><path d="M38.8,80.44V78.91h5.65v1.2a8.71,8.71,0,0,0-1.41,2,10.71,10.71,0,0,0-1.1,2.72,10,10,0,0,0-.4,2.54H40a11,11,0,0,1,.73-3.63,12.14,12.14,0,0,1,1.86-3.31Z" transform="translate(0 -0.02)"/><path d="M48.26,78.76a2.37,2.37,0,0,1,2,.89,5.66,5.66,0,0,1,.84,3.5,5.6,5.6,0,0,1-.85,3.5,2.31,2.31,0,0,1-1.94.88,2.44,2.44,0,0,1-2-1,5.71,5.71,0,0,1-.81-3.4,5.71,5.71,0,0,1,.84-3.49A2.35,2.35,0,0,1,48.26,78.76Zm0,1.36a.81.81,0,0,0-.53.2,1.27,1.27,0,0,0-.37.68,9.7,9.7,0,0,0-.17,2.15,8.51,8.51,0,0,0,.16,2.08,1.46,1.46,0,0,0,.38.75.82.82,0,0,0,1.06,0,1.34,1.34,0,0,0,.37-.69,9,9,0,0,0,.17-2.14,8.55,8.55,0,0,0-.16-2.08,1.46,1.46,0,0,0-.38-.75A.78.78,0,0,0,48.26,80.12Z" transform="translate(0 -0.02)"/><path d="M44.38,106.91l-1.59.17a1.14,1.14,0,0,0-.34-.7.81.81,0,0,0-.64-.24,1.08,1.08,0,0,0-.88.47,3.85,3.85,0,0,0-.45,2,1.9,1.9,0,0,1,1.53-.72,2.33,2.33,0,0,1,1.76.78,3.17,3.17,0,0,1,0,4.11,2.84,2.84,0,0,1-4.14-.2,7,7,0,0,1,0-6.72,2.77,2.77,0,0,1,2.26-1,2.33,2.33,0,0,1,1.62.55A2.52,2.52,0,0,1,44.38,106.91Zm-3.73,3.59a1.86,1.86,0,0,0,.37,1.24,1.09,1.09,0,0,0,.84.44,1,1,0,0,0,.76-.36,1.75,1.75,0,0,0,.31-1.17,1.85,1.85,0,0,0-.33-1.23,1.05,1.05,0,0,0-1.62,0A1.6,1.6,0,0,0,40.65,110.5Z" transform="translate(0 -0.02)"/><path d="M48.26,104.77a2.31,2.31,0,0,1,2,.89,7.65,7.65,0,0,1,0,7,2.31,2.31,0,0,1-1.94.88,2.46,2.46,0,0,1-2-1,7.88,7.88,0,0,1,.07-6.93A2.32,2.32,0,0,1,48.26,104.77Zm0,1.36a.81.81,0,0,0-.53.2,1.27,1.27,0,0,0-.37.68,9.66,9.66,0,0,0-.17,2.15,8.59,8.59,0,0,0,.16,2.08,1.46,1.46,0,0,0,.38.75.84.84,0,0,0,1.06,0,1.34,1.34,0,0,0,.37-.69,9.1,9.1,0,0,0,.17-2.14,8.51,8.51,0,0,0-.16-2.08,1.38,1.38,0,0,0-.38-.75A.78.78,0,0,0,48.26,106.13Z" transform="translate(0 -0.02)"/><path d="M38.83,137.19l1.64-.17a1.32,1.32,0,0,0,.41.88,1.14,1.14,0,0,0,.8.32,1.09,1.09,0,0,0,.87-.42,1.89,1.89,0,0,0,.36-1.26,1.78,1.78,0,0,0-.35-1.19,1.22,1.22,0,0,0-.93-.39,1.72,1.72,0,0,0-1.27.63l-1.33-.2.84-4.47h4.35v1.54h-3.1l-.26,1.46a2.71,2.71,0,0,1,1.12-.27,2.52,2.52,0,0,1,1.86.79,2.88,2.88,0,0,1,.76,2.07A3.05,3.05,0,0,1,44,138.4a2.72,2.72,0,0,1-2.33,1.14,2.81,2.81,0,0,1-1.94-.64A2.52,2.52,0,0,1,38.83,137.19Z" transform="translate(0 -0.02)"/><path d="M48.26,130.77a2.37,2.37,0,0,1,2,.89,7.65,7.65,0,0,1,0,7,2.31,2.31,0,0,1-1.94.88,2.44,2.44,0,0,1-2-1,7.88,7.88,0,0,1,.07-6.93A2.38,2.38,0,0,1,48.26,130.77Zm0,1.36a.81.81,0,0,0-.53.2,1.27,1.27,0,0,0-.37.68,9.7,9.7,0,0,0-.17,2.15,8.51,8.51,0,0,0,.16,2.08,1.38,1.38,0,0,0,.38.75.82.82,0,0,0,1.06,0,1.26,1.26,0,0,0,.37-.69,9,9,0,0,0,.17-2.14,8.59,8.59,0,0,0-.16-2.08,1.46,1.46,0,0,0-.38-.75A.78.78,0,0,0,48.26,132.13Z" transform="translate(0 -0.02)"/><path d="M42,165.39v-1.72H38.52v-1.45l3.72-5.45h1.38v5.45h1.07v1.45H43.62v1.72Zm0-3.17v-2.93l-2,2.94Z" transform="translate(0 -0.02)"/><path d="M48.26,156.78a2.37,2.37,0,0,1,2,.89,7.65,7.65,0,0,1,0,7,2.31,2.31,0,0,1-1.94.88,2.44,2.44,0,0,1-2-1,7.88,7.88,0,0,1,.07-6.93A2.32,2.32,0,0,1,48.26,156.78Zm0,1.36a.81.81,0,0,0-.53.2,1.27,1.27,0,0,0-.37.68,9.7,9.7,0,0,0-.17,2.15,8.55,8.55,0,0,0,.16,2.08,1.46,1.46,0,0,0,.38.75.84.84,0,0,0,1.06,0,1.34,1.34,0,0,0,.37-.69,9.05,9.05,0,0,0,.17-2.14,8.51,8.51,0,0,0-.16-2.08,1.46,1.46,0,0,0-.38-.75A.78.78,0,0,0,48.26,158.14Z" transform="translate(0 -0.02)"/><path d="M38.74,189.86l1.6-.2a1.52,1.52,0,0,0,.41.93,1.16,1.16,0,0,0,.81.33,1.1,1.1,0,0,0,.85-.39,1.48,1.48,0,0,0,.35-1,1.43,1.43,0,0,0-.33-1,1,1,0,0,0-.81-.36,2.46,2.46,0,0,0-.76.12L41,187a1.48,1.48,0,0,0,1-.29,1,1,0,0,0,.35-.83.91.91,0,0,0-.26-.69,1,1,0,0,0-.68-.26,1,1,0,0,0-.72.3,1.4,1.4,0,0,0-.37.85l-1.51-.26a3.29,3.29,0,0,1,.47-1.24,2.21,2.21,0,0,1,.9-.73,3.13,3.13,0,0,1,1.28-.27,2.64,2.64,0,0,1,1.94.77,2,2,0,0,1,0,2.83,2,2,0,0,1-.61.42,1.94,1.94,0,0,1,1.18.71,2,2,0,0,1,.44,1.33,2.54,2.54,0,0,1-.83,1.92,2.85,2.85,0,0,1-2.05.8,2.9,2.9,0,0,1-1.94-.67A2.66,2.66,0,0,1,38.74,189.86Z" transform="translate(0 -0.02)"/><path d="M48.26,183.5a2.37,2.37,0,0,1,2,.89,7.67,7.67,0,0,1,0,7,2.34,2.34,0,0,1-1.94.88,2.49,2.49,0,0,1-2-1,7.9,7.9,0,0,1,.07-6.94A2.38,2.38,0,0,1,48.26,183.5Zm0,1.37a.86.86,0,0,0-.53.19,1.31,1.31,0,0,0-.37.68,9.75,9.75,0,0,0-.17,2.16,8.59,8.59,0,0,0,.16,2.08,1.46,1.46,0,0,0,.38.75.84.84,0,0,0,1.06,0,1.34,1.34,0,0,0,.37-.69,9.1,9.1,0,0,0,.17-2.14,8.63,8.63,0,0,0-.16-2.09,1.46,1.46,0,0,0-.38-.75A.84.84,0,0,0,48.26,184.87Z" transform="translate(0 -0.02)"/><path d="M44.36,217.33v1.53H38.59a3.91,3.91,0,0,1,.56-1.65A11.37,11.37,0,0,1,41,215.15a12.85,12.85,0,0,0,1.36-1.4,1.79,1.79,0,0,0,.34-1,1.16,1.16,0,0,0-.3-.85,1.06,1.06,0,0,0-.81-.29,1.08,1.08,0,0,0-.82.31,1.53,1.53,0,0,0-.35,1l-1.65-.17a2.73,2.73,0,0,1,.92-2,3.2,3.2,0,0,1,1.94-.59,2.81,2.81,0,0,1,2,.69,2.25,2.25,0,0,1,.72,1.7,3.21,3.21,0,0,1-.2,1.11,4.66,4.66,0,0,1-.66,1.09,10.19,10.19,0,0,1-1.08,1.1c-.52.48-.85.79-1,1a3,3,0,0,0-.34.46Z" transform="translate(0 -0.02)"/><path d="M48.26,210.23a2.37,2.37,0,0,1,2,.89,7.65,7.65,0,0,1,0,7,2.31,2.31,0,0,1-1.94.88,2.44,2.44,0,0,1-2-1,7.88,7.88,0,0,1,.07-6.93A2.32,2.32,0,0,1,48.26,210.23Zm0,1.37a.8.8,0,0,0-.53.19,1.27,1.27,0,0,0-.37.68,9.7,9.7,0,0,0-.17,2.15,8.51,8.51,0,0,0,.16,2.08,1.42,1.42,0,0,0,.38.75.82.82,0,0,0,1.06,0,1.3,1.3,0,0,0,.37-.69,9,9,0,0,0,.17-2.14,8.55,8.55,0,0,0-.16-2.08,1.46,1.46,0,0,0-.38-.75A.78.78,0,0,0,48.26,211.6Z" transform="translate(0 -0.02)"/><path d="M43,244.87H41.37v-6.21a5.88,5.88,0,0,1-2.13,1.25v-1.5a4.73,4.73,0,0,0,1.4-.79,3.12,3.12,0,0,0,1-1.38H43Z" transform="translate(0 -0.02)"/><path d="M48.26,236.24a2.31,2.31,0,0,1,2,.89,7.65,7.65,0,0,1,0,7,2.31,2.31,0,0,1-1.94.88,2.46,2.46,0,0,1-2-1,7.88,7.88,0,0,1,.07-6.93A2.32,2.32,0,0,1,48.26,236.24Zm0,1.37a.75.75,0,0,0-.53.19,1.27,1.27,0,0,0-.37.68,9.7,9.7,0,0,0-.17,2.15,8.59,8.59,0,0,0,.16,2.08,1.46,1.46,0,0,0,.38.75.84.84,0,0,0,1.06,0,1.34,1.34,0,0,0,.37-.69,9.05,9.05,0,0,0,.17-2.14,8.51,8.51,0,0,0-.16-2.08,1.42,1.42,0,0,0-.38-.75A.74.74,0,0,0,48.26,237.61Z" transform="translate(0 -0.02)"/><path d="M48.26,263a2.37,2.37,0,0,1,2,.89,7.65,7.65,0,0,1,0,7,2.28,2.28,0,0,1-1.94.88,2.44,2.44,0,0,1-2-1,7.88,7.88,0,0,1,.07-6.93A2.38,2.38,0,0,1,48.26,263Zm0,1.37a.86.86,0,0,0-.53.19,1.27,1.27,0,0,0-.37.68,9.7,9.7,0,0,0-.17,2.15,8.87,8.87,0,0,0,.16,2.06,1.38,1.38,0,0,0,.38.75.82.82,0,0,0,1.06,0,1.26,1.26,0,0,0,.37-.69,9,9,0,0,0,.17-2.14,8.59,8.59,0,0,0-.16-2.08,1.46,1.46,0,0,0-.38-.75.78.78,0,0,0-.53-.17Z" transform="translate(0 -0.02)"/><path d="M31.6,293.66v-1.24h6.67v1.23Z" transform="translate(0 -0.02)"/><path d="M43,296.16H41.37V290a5.74,5.74,0,0,1-2.13,1.25v-1.5a4.54,4.54,0,0,0,1.4-.8,3,3,0,0,0,1-1.37H43Z" transform="translate(0 -0.02)"/><path d="M48.26,287.53a2.37,2.37,0,0,1,2,.89,7.65,7.65,0,0,1,0,7,2.31,2.31,0,0,1-1.94.88,2.44,2.44,0,0,1-2-1,7.88,7.88,0,0,1,.07-6.93A2.32,2.32,0,0,1,48.26,287.53Zm0,1.37a.75.75,0,0,0-.53.19,1.27,1.27,0,0,0-.37.68,9.7,9.7,0,0,0-.17,2.15,8.51,8.51,0,0,0,.16,2.08,1.46,1.46,0,0,0,.38.75.82.82,0,0,0,1.06,0,1.34,1.34,0,0,0,.37-.69,9,9,0,0,0,.17-2.14,8.51,8.51,0,0,0-.16-2.08,1.46,1.46,0,0,0-.38-.75.74.74,0,0,0-.53-.19Z" transform="translate(0 -0.02)"/><path d="M49.72,306.7v-1.23h6.67v1.23Z" transform="translate(0 -0.02)"/><path d="M61.14,309.2H59.45V303a5.53,5.53,0,0,1-2.13,1.25v-1.5a4.43,4.43,0,0,0,1.4-.8,3,3,0,0,0,1-1.37h1.34Z" transform="translate(0 -0.02)"/><path d="M107.71,300.57a2.4,2.4,0,0,1,2,.89,7.77,7.77,0,0,1,0,7,2.34,2.34,0,0,1-2,.88,2.45,2.45,0,0,1-2-1,7.85,7.85,0,0,1,.08-6.93A2.33,2.33,0,0,1,107.71,300.57Zm0,1.37a.86.86,0,0,0-.53.19,1.25,1.25,0,0,0-.36.68,9.7,9.7,0,0,0-.17,2.15,10.3,10.3,0,0,0,.15,2.08,1.62,1.62,0,0,0,.38.75.88.88,0,0,0,.53.19.92.92,0,0,0,.55-.19,1.48,1.48,0,0,0,.36-.69,14.21,14.21,0,0,0,0-4.22,1.47,1.47,0,0,0-.39-.75A.83.83,0,0,0,107.71,301.94Z" transform="translate(0 -0.02)"/><path d="M159.16,309.2h-1.68V303a5.82,5.82,0,0,1-2.13,1.25v-1.5a4.54,4.54,0,0,0,1.4-.8,3.11,3.11,0,0,0,1-1.37h1.33Z" transform="translate(0 -0.02)"/><path d="M213.19,307.67v1.53h-5.78a3.92,3.92,0,0,1,.57-1.65,11.31,11.31,0,0,1,1.85-2.06,10.6,10.6,0,0,0,1.36-1.4,1.79,1.79,0,0,0,.34-1,1.15,1.15,0,0,0-.29-.85,1.27,1.27,0,0,0-1.64,0,1.6,1.6,0,0,0-.35,1l-1.64-.17a2.68,2.68,0,0,1,.92-1.95,3.17,3.17,0,0,1,1.93-.59,2.81,2.81,0,0,1,2,.69,2.26,2.26,0,0,1,.73,1.7,3,3,0,0,1-.21,1.11,4.47,4.47,0,0,1-.66,1.09,9.35,9.35,0,0,1-1.08,1.1,8.9,8.9,0,0,0-1,1,2.43,2.43,0,0,0-.33.46Z" transform="translate(0 -0.02)"/><path d="M259,306.92l1.59-.2a1.47,1.47,0,0,0,.41.93,1.15,1.15,0,0,0,1.63,0l0-.05a1.51,1.51,0,0,0,.35-1,1.42,1.42,0,0,0-.34-1,1.08,1.08,0,0,0-.81-.36,3.26,3.26,0,0,0-.76.12l.18-1.34a1.38,1.38,0,0,0,1-.29,1,1,0,0,0,.36-.82.89.89,0,0,0-.82-.95h-.13a1,1,0,0,0-.72.3,1.34,1.34,0,0,0-.36.85l-1.52-.25a3.35,3.35,0,0,1,.48-1.25,2.18,2.18,0,0,1,.89-.73,3.13,3.13,0,0,1,1.28-.27,2.56,2.56,0,0,1,1.94.77,2,2,0,0,1-.63,3.24,2,2,0,0,1,1.18.71,2,2,0,0,1,.44,1.33,2.61,2.61,0,0,1-.82,1.93,3.1,3.1,0,0,1-4,.12A2.62,2.62,0,0,1,259,306.92Z" transform="translate(0 -0.02)"/><path d="M313.65,309.2v-1.73h-3.52V306l3.73-5.46h1.38V306h1.07v1.45h-1.07v1.73Zm0-3.18v-2.94l-2,2.94Z" transform="translate(0 -0.02)"/><path d="M360.34,307l1.64-.17a1.49,1.49,0,0,0,.42.88,1.15,1.15,0,0,0,1.62,0,.18.18,0,0,0,.05-.07,1.85,1.85,0,0,0,.36-1.27,1.65,1.65,0,0,0-.36-1.18,1.16,1.16,0,0,0-.92-.4,1.67,1.67,0,0,0-1.27.63l-1.34-.2.85-4.47h4.35v1.54h-3.11l-.25,1.46a2.54,2.54,0,0,1,3,.52,2.84,2.84,0,0,1,.76,2.07,3,3,0,0,1-.61,1.9,2.7,2.7,0,0,1-2.33,1.13,2.81,2.81,0,0,1-1.94-.64A2.64,2.64,0,0,1,360.34,307Z" transform="translate(0 -0.02)"/><path d="M418.54,302.71l-1.59.18a1.23,1.23,0,0,0-.31-.73.87.87,0,0,0-.63-.24,1.11,1.11,0,0,0-.89.47,3.89,3.89,0,0,0-.45,1.95,1.92,1.92,0,0,1,1.53-.72,2.39,2.39,0,0,1,1.77.78,2.9,2.9,0,0,1,.73,2,3,3,0,0,1-.77,2.12,2.84,2.84,0,0,1-4-.07l-.12-.15A5.09,5.09,0,0,1,413,305a5.24,5.24,0,0,1,.88-3.41,2.83,2.83,0,0,1,2.26-1,2.42,2.42,0,0,1,1.63.55A2.53,2.53,0,0,1,418.54,302.71Zm-3.73,3.59a1.83,1.83,0,0,0,.37,1.24,1.07,1.07,0,0,0,.84.44.93.93,0,0,0,.76-.36,1.79,1.79,0,0,0,.31-1.17,1.93,1.93,0,0,0-.33-1.23,1.05,1.05,0,0,0-1.62,0,1.6,1.6,0,0,0-.29,1.1Z" transform="translate(0 -0.02)"/><path d="M104,326.7h-1.89l-.75-1.95H98l-.71,1.95H95.46l3.34-8.59h1.84Zm-3.2-3.4-1.18-3.19-1.19,3.19Z" transform="translate(0 -0.02)"/><path d="M105,326.7v-8.59h1.69l3.53,5.73v-5.73h1.61v8.59h-1.74l-3.47-5.6v5.6Z" transform="translate(0 -0.02)"/><path d="M117.62,323.54v-1.45h3.74v3.42a4.68,4.68,0,0,1-1.58.93,5.8,5.8,0,0,1-2.1.4,4.69,4.69,0,0,1-2.35-.56,3.62,3.62,0,0,1-1.5-1.62,5.07,5.07,0,0,1-.51-2.29,4.81,4.81,0,0,1,.57-2.38,3.63,3.63,0,0,1,1.64-1.6,4.32,4.32,0,0,1,2.06-.43,4.11,4.11,0,0,1,2.5.67,3.06,3.06,0,0,1,1.16,1.86l-1.73.32a1.81,1.81,0,0,0-.68-1,2,2,0,0,0-1.25-.37,2.33,2.33,0,0,0-1.81.72,3,3,0,0,0-.67,2.14,3.4,3.4,0,0,0,.68,2.3,2.3,2.3,0,0,0,1.78.76,3.15,3.15,0,0,0,1.09-.21,4.33,4.33,0,0,0,1-.52v-1.09Z" transform="translate(0 -0.02)"/><path d="M123,326.7v-8.52h1.74v7.07h4.31v1.45Z" transform="translate(0 -0.02)"/><path d="M130.29,326.7v-8.59h6.37v1.45H132v1.87h4.31v1.44H132v2.34h4.8v1.45Z" transform="translate(0 -0.02)"/><path d="M141.27,322.43a5.38,5.38,0,0,1,.4-2.21,4,4,0,0,1,.8-1.17,3.07,3.07,0,0,1,1.11-.78,4.71,4.71,0,0,1,1.85-.34,4,4,0,0,1,3,1.18,5.25,5.25,0,0,1,0,6.53,4,4,0,0,1-3,1.17,4.1,4.1,0,0,1-3-1.16A4.5,4.5,0,0,1,141.27,322.43Zm1.79-.06a3.21,3.21,0,0,0,.67,2.21,2.35,2.35,0,0,0,3.31.11l.11-.11a3.27,3.27,0,0,0,.66-2.25,3.11,3.11,0,0,0-.65-2.2,2.37,2.37,0,0,0-3.36-.08l-.08.08a3.26,3.26,0,0,0-.66,2.3Z" transform="translate(0 -0.02)"/><path d="M151,326.7v-8.59h5.9v1.45h-4.16v2h3.59V323h-3.59v3.65Z" transform="translate(0 -0.02)"/><path d="M161.58,326.7v-8.59h1.73v8.59Z" transform="translate(0 -0.02)"/><path d="M165,326.7v-8.59h1.69l3.52,5.73v-5.73h1.61v8.59h-1.74l-3.46-5.6v5.6Z" transform="translate(0 -0.02)"/><path d="M179.13,323.54l1.68.53a3.78,3.78,0,0,1-1.29,2.09,4.06,4.06,0,0,1-5.09-.48,4.52,4.52,0,0,1-1.1-3.2,4.64,4.64,0,0,1,1.11-3.33,3.76,3.76,0,0,1,2.91-1.19,3.56,3.56,0,0,1,2.56.93,3.47,3.47,0,0,1,.88,1.59l-1.72.41a1.77,1.77,0,0,0-1.81-1.45,2,2,0,0,0-1.55.69,3.35,3.35,0,0,0-.59,2.22,3.61,3.61,0,0,0,.58,2.32,1.92,1.92,0,0,0,1.52.69,1.72,1.72,0,0,0,1.19-.44A2.57,2.57,0,0,0,179.13,323.54Z" transform="translate(0 -0.02)"/><path d="M182.35,326.7v-8.52h1.73v7.07h4.31v1.45Z" transform="translate(0 -0.02)"/><path d="M189.58,326.7v-8.59h1.73v8.59Z" transform="translate(0 -0.02)"/><path d="M193,326.7v-8.59h1.7l3.51,5.73v-5.73h1.61v8.59h-1.74l-3.46-5.6v5.6Z" transform="translate(0 -0.02)"/><path d="M209.39,326.7h-1.9l-.75-1.95H203.3l-.7,1.95h-1.84l3.34-8.59h1.84Zm-3.2-3.4L205,320.11l-1.16,3.19Z" transform="translate(0 -0.02)"/><path d="M212.24,326.7v-7.14h-2.55v-1.45h6.8v1.45h-2.55v7.14Z" transform="translate(0 -0.02)"/><path d="M217.58,326.7v-8.59h1.74v8.59Z" transform="translate(0 -0.02)"/><path d="M220.62,322.43a5.55,5.55,0,0,1,.39-2.21,4.12,4.12,0,0,1,.8-1.17,3.29,3.29,0,0,1,1.11-.78,4.71,4.71,0,0,1,1.85-.34,4,4,0,0,1,3,1.18,5.25,5.25,0,0,1,0,6.53,4,4,0,0,1-3,1.17,4.12,4.12,0,0,1-3.05-1.16A4.44,4.44,0,0,1,220.62,322.43Zm1.78-.06a3.27,3.27,0,0,0,.68,2.21,2.32,2.32,0,0,0,3.28.13,1.59,1.59,0,0,0,.13-.13,3.33,3.33,0,0,0,.67-2.25,3.22,3.22,0,0,0-.65-2.2,2.38,2.38,0,0,0-3.38-.07l-.07.07a3.26,3.26,0,0,0-.66,2.3Z" transform="translate(0 -0.02)"/><path d="M230.32,326.7v-8.59H232l3.51,5.73v-5.73h1.62v8.59h-1.75l-3.46-5.6v5.6Z" transform="translate(0 -0.02)"/><path d="M241.87,323.9l1.69-.16a2,2,0,0,0,.62,1.25,2.3,2.3,0,0,0,2.52,0,1.09,1.09,0,0,0,.42-.83.8.8,0,0,0-.18-.52,1.32,1.32,0,0,0-.62-.37c-.2-.07-.67-.19-1.39-.37a4.82,4.82,0,0,1-2-.85,2.24,2.24,0,0,1-.8-1.73,2.15,2.15,0,0,1,.38-1.23,2.18,2.18,0,0,1,1.07-.87,4.05,4.05,0,0,1,1.69-.3,3.54,3.54,0,0,1,2.43.71,2.48,2.48,0,0,1,.86,1.89l-1.73.08a1.48,1.48,0,0,0-.48-1,1.67,1.67,0,0,0-1.1-.29,1.89,1.89,0,0,0-1.18.31.59.59,0,0,0-.28.53.65.65,0,0,0,.26.52,4.41,4.41,0,0,0,1.59.58,8.43,8.43,0,0,1,1.88.61,2.49,2.49,0,0,1,1,.88,2.71,2.71,0,0,1,.34,1.37,2.64,2.64,0,0,1-1.57,2.38,5,5,0,0,1-1.87.31,3.73,3.73,0,0,1-2.5-.75A3.26,3.26,0,0,1,241.87,323.9Z" transform="translate(0 -0.02)"/><path d="M252.25,326.7v-7.14H249.7v-1.45h6.8v1.45H254v7.14Z" transform="translate(0 -0.02)"/><path d="M257.65,326.7v-8.59H264v1.45h-4.64v1.87h4.31v1.44h-4.31v2.34h4.8v1.45Z" transform="translate(0 -0.02)"/><path d="M265.65,326.7v-8.59h2.78a9.53,9.53,0,0,1,2.07.13,2.17,2.17,0,0,1,1.23.84,3.06,3.06,0,0,1,.21,3,2.39,2.39,0,0,1-.73.85,2.44,2.44,0,0,1-.9.4,9.94,9.94,0,0,1-1.81.1h-1.13v3.24Zm1.74-7.14V322h.94a4.91,4.91,0,0,0,1.38-.14,1.11,1.11,0,0,0,.73-1.09,1.07,1.07,0,0,0-.27-.77,1.19,1.19,0,0,0-.7-.38,6.51,6.51,0,0,0-1.25-.06Z" transform="translate(0 -0.02)"/><path d="M276.55,323.9l1.69-.16a2.15,2.15,0,0,0,.61,1.25,1.92,1.92,0,0,0,1.26.4,2,2,0,0,0,1.27-.36,1,1,0,0,0,.43-.83.86.86,0,0,0-.18-.52,1.58,1.58,0,0,0-.62-.37c-.21-.07-.68-.19-1.4-.37a4.93,4.93,0,0,1-2-.85,2.29,2.29,0,0,1-.79-1.73,2.22,2.22,0,0,1,.37-1.23,2.38,2.38,0,0,1,1.07-.87A4.11,4.11,0,0,1,280,318a3.65,3.65,0,0,1,2.45.71,2.55,2.55,0,0,1,.86,1.89l-1.74.08a1.47,1.47,0,0,0-.47-.95,1.69,1.69,0,0,0-1.11-.29,2,2,0,0,0-1.19.31.64.64,0,0,0-.27.53.66.66,0,0,0,.26.52,4.55,4.55,0,0,0,1.59.58,8.27,8.27,0,0,1,1.88.61,2.43,2.43,0,0,1,1,.88,2.61,2.61,0,0,1,.34,1.37,2.54,2.54,0,0,1-1.57,2.34,5,5,0,0,1-1.88.31,3.76,3.76,0,0,1-2.5-.75A3.34,3.34,0,0,1,276.55,323.9Z" transform="translate(0 -0.02)"/><path d="M285,326.7v-8.59h1.73v8.59Z" transform="translate(0 -0.02)"/><path d="M287.59,326.7v-1.57l4.51-5.57h-4v-1.45h6.29v1.32l-4.71,5.79h4.89v1.45Z" transform="translate(0 -0.02)"/><path d="M295.67,326.7v-8.59H302v1.45H297.4v1.87h4.31v1.44H297.4v2.34h4.8v1.45Z" transform="translate(0 -0.02)"/><path d="M303.62,325.05h1.64v1.18a4.3,4.3,0,0,1-.12,1.13,1.85,1.85,0,0,1-.46.74,2.47,2.47,0,0,1-.87.51l-.33-.68a1.34,1.34,0,0,0,.71-.45,1.29,1.29,0,0,0,.22-.78h-.79Z" transform="translate(0 -0.02)"/><path d="M310.34,326.7v-8.59h2.78a9.48,9.48,0,0,1,2.06.13,2.19,2.19,0,0,1,1.24.84,2.62,2.62,0,0,1,.5,1.67,2.69,2.69,0,0,1-.29,1.33,2.39,2.39,0,0,1-.73.85,2.44,2.44,0,0,1-.9.4,9.79,9.79,0,0,1-1.8.13h-1.13v3.24Zm1.73-7.14V322H313a4.84,4.84,0,0,0,1.37-.14,1.27,1.27,0,0,0,.55-.42,1.16,1.16,0,0,0,.19-.67,1.07,1.07,0,0,0-.27-.77,1.19,1.19,0,0,0-.7-.38,6.51,6.51,0,0,0-1.25-.06Z" transform="translate(0 -0.02)"/><path d="M324.41,329.22h-1.15a12.16,12.16,0,0,1-1.36-2.81,9.31,9.31,0,0,1-.47-2.82,9,9,0,0,1,.58-3.21,11.43,11.43,0,0,1,1.28-2.42h1.13a17.7,17.7,0,0,0-1.11,3,11.54,11.54,0,0,0-.12,4.61,14.22,14.22,0,0,0,.49,1.92A16.64,16.64,0,0,0,324.41,329.22Z" transform="translate(0 -0.02)"/><path d="M325.68,318.11h3.17a6,6,0,0,1,1.63.16,2.88,2.88,0,0,1,1.3.79,3.77,3.77,0,0,1,.82,1.39,6.71,6.71,0,0,1,.28,2,5.66,5.66,0,0,1-.27,1.82,3.84,3.84,0,0,1-.92,1.52,3.18,3.18,0,0,1-1.21.69,5.74,5.74,0,0,1-1.54.18h-3.26Zm1.73,1.45v5.69h1.3a5.62,5.62,0,0,0,1-.08,1.65,1.65,0,0,0,.71-.36,2,2,0,0,0,.45-.83,5.56,5.56,0,0,0,.17-1.57,5.21,5.21,0,0,0-.17-1.53,2,2,0,0,0-.49-.83,1.61,1.61,0,0,0-.81-.41,7.52,7.52,0,0,0-1.42-.08Z" transform="translate(0 -0.02)"/><path d="M337.94,324.72l1.64.27a2.77,2.77,0,0,1-1,1.38,3,3,0,0,1-1.71.47,2.78,2.78,0,0,1-2.4-1.06,3.59,3.59,0,0,1-.61-2.15,3.44,3.44,0,0,1,.81-2.42,2.64,2.64,0,0,1,2-.88,2.73,2.73,0,0,1,2.19.92,4,4,0,0,1,.77,2.81h-4.11a1.71,1.71,0,0,0,.4,1.14,1.3,1.3,0,0,0,.95.41,1.07,1.07,0,0,0,.65-.18A1.37,1.37,0,0,0,337.94,324.72Zm.09-1.67a1.56,1.56,0,0,0-.36-1.08,1.19,1.19,0,0,0-1.67-.09l-.08.09a1.45,1.45,0,0,0-.35,1.06Z" transform="translate(0 -0.02)"/><path d="M340.86,327.11l1.88.23a.61.61,0,0,0,.22.45,1.24,1.24,0,0,0,.73.17,1.93,1.93,0,0,0,1-.19.76.76,0,0,0,.33-.42,2.4,2.4,0,0,0,.08-.75v-.91a2.27,2.27,0,0,1-1.87,1,2.29,2.29,0,0,1-2-1.06,3.52,3.52,0,0,1-.58-2.09,3.43,3.43,0,0,1,.75-2.39,2.44,2.44,0,0,1,1.88-.83,2.27,2.27,0,0,1,1.9,1v-.87h1.54V326a5.76,5.76,0,0,1-.18,1.65,2.06,2.06,0,0,1-.51.85,2.25,2.25,0,0,1-.88.49,4.93,4.93,0,0,1-1.38.17,3.63,3.63,0,0,1-2.25-.54,1.71,1.71,0,0,1-.66-1.37Zm1.47-3.65a2.27,2.27,0,0,0,.38,1.45,1.21,1.21,0,0,0,1,.46,1.36,1.36,0,0,0,1-.47,2.07,2.07,0,0,0,.41-1.4,2.23,2.23,0,0,0-.39-1.44,1.29,1.29,0,0,0-1-.47,1.24,1.24,0,0,0-1,.46,2.17,2.17,0,0,0-.35,1.38Z" transform="translate(0 -0.02)"/><path d="M349.92,326.7h-1.65v-6.22h1.53v.88a2.59,2.59,0,0,1,.71-.83,1.2,1.2,0,0,1,.71-.2,2,2,0,0,1,1.08.32l-.51,1.43a1.33,1.33,0,0,0-.77-.27.91.91,0,0,0-.59.19,1.39,1.39,0,0,0-.38.69,10.44,10.44,0,0,0-.13,2.09Z" transform="translate(0 -0.02)"/><path d="M356.61,324.72l1.64.27a2.81,2.81,0,0,1-1,1.38,3,3,0,0,1-1.71.47,2.79,2.79,0,0,1-2.4-1.06,3.58,3.58,0,0,1-.62-2.15,3.44,3.44,0,0,1,.81-2.42,2.64,2.64,0,0,1,2-.88,2.78,2.78,0,0,1,2.2.92,4,4,0,0,1,.76,2.81h-4.07a1.66,1.66,0,0,0,.4,1.14,1.3,1.3,0,0,0,.95.41,1,1,0,0,0,.65-.21A1.34,1.34,0,0,0,356.61,324.72Zm.1-1.67a1.52,1.52,0,0,0-.37-1.08,1.1,1.1,0,0,0-.86-.38,1.14,1.14,0,0,0-.89.4,1.49,1.49,0,0,0-.34,1.06Z" transform="translate(0 -0.02)"/><path d="M363.29,324.72l1.64.27a2.7,2.7,0,0,1-1,1.38,3,3,0,0,1-1.71.47,2.79,2.79,0,0,1-2.4-1.06,3.58,3.58,0,0,1-.62-2.15,3.44,3.44,0,0,1,.81-2.42,2.69,2.69,0,0,1,2.05-.88,2.74,2.74,0,0,1,2.19.92,4,4,0,0,1,.77,2.81h-4.13a1.71,1.71,0,0,0,.4,1.14,1.28,1.28,0,0,0,1,.41,1,1,0,0,0,.65-.21A1.24,1.24,0,0,0,363.29,324.72Zm.09-1.67A1.52,1.52,0,0,0,363,322a1.06,1.06,0,0,0-.85-.38,1.14,1.14,0,0,0-.89.4,1.5,1.5,0,0,0-.35,1.06Z" transform="translate(0 -0.02)"/><path d="M365.78,324.92l1.66-.25a1.18,1.18,0,0,0,.43.73,1.43,1.43,0,0,0,.9.25,1.6,1.6,0,0,0,1-.24A.53.53,0,0,0,370,325a.45.45,0,0,0-.12-.32,1.28,1.28,0,0,0-.55-.21,8.83,8.83,0,0,1-2.52-.8,1.65,1.65,0,0,1-.75-1.41,1.68,1.68,0,0,1,.65-1.35,2.85,2.85,0,0,1,2-.56,3.39,3.39,0,0,1,1.89.42,2.16,2.16,0,0,1,.86,1.23l-1.55.29a1,1,0,0,0-.38-.56,1.38,1.38,0,0,0-.79-.19,1.69,1.69,0,0,0-.94.18.37.37,0,0,0-.18.33.32.32,0,0,0,.16.3,6.25,6.25,0,0,0,1.54.47,4.4,4.4,0,0,1,1.84.73,1.54,1.54,0,0,1,.51,1.22,2,2,0,0,1-.71,1.47,3.23,3.23,0,0,1-2.12.62,3.41,3.41,0,0,1-2-.52A2.38,2.38,0,0,1,365.78,324.92Z" transform="translate(0 -0.02)"/><path d="M372.59,329.22c.32-.69.55-1.23.68-1.6a11.66,11.66,0,0,0,.37-1.28,13.34,13.34,0,0,0,.25-1.38,11.85,11.85,0,0,0-.21-4,17.39,17.39,0,0,0-1.11-3h1.12a11.09,11.09,0,0,1,1.38,2.67,9,9,0,0,1,.49,2.87,9.72,9.72,0,0,1-.39,2.62,11.11,11.11,0,0,1-1.45,3.1Z" transform="translate(0 -0.02)"/><path d="M8.74,232.53H.15v-2.6L6,228.4.15,226.86v-2.6H8.74v1.61H2l6.77,1.71v1.67L2,231H8.74Z" transform="translate(0 -0.02)"/><path d="M8.74,222.55H.15v-1.73H8.74Z" transform="translate(0 -0.02)"/><path d="M8.74,219.15H.15v-1.69l5.73-3.52H.15v-1.61H8.74v1.74l-5.61,3.47H8.74Z" transform="translate(0 -0.02)"/><path d="M8.74,210.55H.15v-1.73H8.74Z" transform="translate(0 -0.02)"/><path d="M8.74,207.19H.15v-2.6L6,203,.15,201.49v-2.6H8.74v1.61H2l6.77,1.71v1.67L2,205.58H8.74Z" transform="translate(0 -0.02)"/><path d="M.15,197.18v-1.73H4.8a9.72,9.72,0,0,0,1.43,0,1.33,1.33,0,0,0,.85-.53,1.88,1.88,0,0,0,.36-1.16,1.71,1.71,0,0,0-.3-1.12,1.15,1.15,0,0,0-.74-.45,8.88,8.88,0,0,0-1.46-.08H.15v-1.73H4.66a11.36,11.36,0,0,1,2.18.14,2.23,2.23,0,0,1,1.08.52,2.52,2.52,0,0,1,.7,1,4,4,0,0,1,.26,1.65,4.78,4.78,0,0,1-.28,1.87,2.69,2.69,0,0,1-.74,1,2.39,2.39,0,0,1-1,.49,10.63,10.63,0,0,1-2.18.17Z" transform="translate(0 -0.02)"/><path d="M8.74,188.53H.15v-2.61L6,184.39.15,182.85v-2.6H8.74v1.61H2l6.77,1.71v1.66L2,186.94H8.74Z" transform="translate(0 -0.02)"/><path d="M8.74,167.39v1.88l-2,.75v3.44l2,.71V176L.15,172.69v-1.83Zm-3.4,3.19-3.19,1.21L5.34,173Z" transform="translate(0 -0.02)"/><path d="M5.58,161l.53-1.68A3.73,3.73,0,0,1,8.2,160.6a4.06,4.06,0,0,1-.49,5.1,4.48,4.48,0,0,1-3.19,1.1,4.65,4.65,0,0,1-3.33-1.11A3.79,3.79,0,0,1,0,162.78a3.56,3.56,0,0,1,.93-2.56,3.45,3.45,0,0,1,1.58-.83l.41,1.72a1.77,1.77,0,0,0-1.48,1.76,2,2,0,0,0,.73,1.52,3.37,3.37,0,0,0,2.22.59,3.65,3.65,0,0,0,2.32-.59,1.9,1.9,0,0,0,.73-1.49A1.74,1.74,0,0,0,7,161.71,2.54,2.54,0,0,0,5.58,161Z" transform="translate(0 -0.02)"/><path d="M5.58,152.33l.53-1.68a3.74,3.74,0,0,1,2.09,1.29A4,4,0,0,1,7.71,157a4.44,4.44,0,0,1-3.19,1.1A4.7,4.7,0,0,1,1.19,157,3.82,3.82,0,0,1,0,154.12a3.57,3.57,0,0,1,.93-2.57,3.34,3.34,0,0,1,1.58-.87l.41,1.71a1.81,1.81,0,0,0-1,.64,1.78,1.78,0,0,0-.43,1.17,1.94,1.94,0,0,0,.69,1.55,3.35,3.35,0,0,0,2.31.64,3.65,3.65,0,0,0,2.32-.59,1.91,1.91,0,0,0,.68-1.56A1.74,1.74,0,0,0,7,153.05,2.49,2.49,0,0,0,5.58,152.33Z" transform="translate(0 -0.02)"/><path d="M8.74,149.16H.15v-6.38H1.6v4.61H3.5v-4.32H5v4.32H7.29v-4.81H8.74Z" transform="translate(0 -0.02)"/><path d="M8.74,141.1H.22v-1.72H7.29v-4.31H8.74Z" transform="translate(0 -0.02)"/><path d="M8.74,133.82H.15v-6.37H1.6v4.64H3.5v-4.32H5v4.32H7.29v-4.8H8.74Z" transform="translate(0 -0.02)"/><path d="M8.74,125.81H.15v-3.65a5.9,5.9,0,0,1,.23-2,2,2,0,0,1,.82-1,2.46,2.46,0,0,1,1.35-.38,2.28,2.28,0,0,1,1.6.57,2.68,2.68,0,0,1,.79,1.7,4.11,4.11,0,0,1,.73-.93,9.79,9.79,0,0,1,1.39-1l1.68-1.05v2.07l-1.87,1.24a14,14,0,0,0-1.27.91,1.23,1.23,0,0,0-.35.52,2.84,2.84,0,0,0-.1.87V124H8.74Zm-5-1.73v-1.29a6.28,6.28,0,0,0-.11-1.56.91.91,0,0,0-.36-.48,1.11,1.11,0,0,0-.64-.18,1,1,0,0,0-.7.23,1.06,1.06,0,0,0-.34.66v2.62Z" transform="translate(0 -0.02)"/><path d="M4.49,117.5a5.53,5.53,0,0,1-2.2-.39,4.17,4.17,0,0,1-1.18-.8,3.52,3.52,0,0,1-.77-1.11A4.74,4.74,0,0,1,0,113.38a4,4,0,0,1,1.18-3,4.48,4.48,0,0,1,3.26-1.21A4.53,4.53,0,0,1,7.7,110.3a4.52,4.52,0,0,1,0,6.07A4.45,4.45,0,0,1,4.49,117.5Zm0-1.79A3.2,3.2,0,0,0,6.7,115a2.27,2.27,0,0,0,0-3.36A3.21,3.21,0,0,0,4.44,111a3.22,3.22,0,0,0-2.2.65,2.15,2.15,0,0,0-.8,1.77,2.23,2.23,0,0,0,.74,1.73,3.25,3.25,0,0,0,2.26.6Z" transform="translate(0 -0.02)"/><path d="M8.74,107.84H.15v-2.6L6,103.69.15,102.14V99.53H8.74v1.62H2l6.77,1.71v1.67L2,106.23H8.74Z" transform="translate(0 -0.02)"/><path d="M8.74,97.81H.15V91.44H1.6v4.64H3.5V91.76H5v4.32H7.29v-4.8H8.74Z" transform="translate(0 -0.02)"/><path d="M8.74,87.87H1.6v2.55H.15V83.6H1.6v2.54H8.74Z" transform="translate(0 -0.02)"/><path d="M8.74,82.48H.15V76.11H1.6v4.63H3.5V76.43H5v4.31H7.29v-4.8H8.74Z" transform="translate(0 -0.02)"/><path d="M8.74,74.47H.15V70.82a6.13,6.13,0,0,1,.23-2,2,2,0,0,1,.82-1,2.38,2.38,0,0,1,1.35-.38,2.28,2.28,0,0,1,1.6.57,2.65,2.65,0,0,1,.79,1.7,3.66,3.66,0,0,1,.73-.93,10.4,10.4,0,0,1,1.39-1l1.68-1v2.08L6.87,70.07A14.12,14.12,0,0,0,5.6,71a1.23,1.23,0,0,0-.35.52,2.8,2.8,0,0,0-.1.87v.35H8.74Zm-5-1.74V71.45a6.28,6.28,0,0,0-.11-1.56,1,1,0,0,0-.32-.52,1.1,1.1,0,0,0-.64-.17,1,1,0,0,0-.7.23,1,1,0,0,0-.34.65V72.7Z" transform="translate(0 -0.02)"/><path d="M22.75,225.69h-8.6V222a6.44,6.44,0,0,1,.23-2,2.11,2.11,0,0,1,.82-1,2.6,2.6,0,0,1,1.35-.38,2.28,2.28,0,0,1,1.6.57,2.7,2.7,0,0,1,.79,1.7,4.68,4.68,0,0,1,.73-.93,10.4,10.4,0,0,1,1.39-1L22.75,218V220l-1.88,1.26a14,14,0,0,0-1.27.91,1.54,1.54,0,0,0-.35.52,2.88,2.88,0,0,0-.1.87v.36h3.6Zm-5-1.73v-1.29a6.31,6.31,0,0,0-.11-1.56,1,1,0,0,0-.36-.48,1.19,1.19,0,0,0-.64-.18,1.05,1.05,0,0,0-.7.23,1.2,1.2,0,0,0-.34.66V224Z" transform="translate(0 -0.02)"/><path d="M22.75,217h-8.6v-6.37H15.6v4.64h1.9V211H19v4.32h2.34v-4.8h1.46Z" transform="translate(0 -0.02)"/><path d="M19.94,209.47l-.16-1.69a2,2,0,0,0,1.24-.62,2.31,2.31,0,0,0,.05-2.52,1,1,0,0,0-.83-.42.9.9,0,0,0-.52.17,1.49,1.49,0,0,0-.37.63c-.07.2-.2.66-.38,1.39a4.46,4.46,0,0,1-.85,2,2.26,2.26,0,0,1-3,.42,2.34,2.34,0,0,1-.87-1.07,4.43,4.43,0,0,1-.3-1.69,3.65,3.65,0,0,1,.71-2.43,2.46,2.46,0,0,1,1.89-.86l.08,1.73a1.48,1.48,0,0,0-.95.48,1.71,1.71,0,0,0-.29,1.1,2,2,0,0,0,.31,1.18.63.63,0,0,0,.53.28.65.65,0,0,0,.52-.26,4.34,4.34,0,0,0,.57-1.59,9.42,9.42,0,0,1,.62-1.88,2.58,2.58,0,0,1,.88-1,2.73,2.73,0,0,1,2.76.07,2.41,2.41,0,0,1,.95,1.16,5.18,5.18,0,0,1,.32,1.87,3.74,3.74,0,0,1-.75,2.5A3.39,3.39,0,0,1,19.94,209.47Z" transform="translate(0 -0.02)"/><path d="M18.49,201.4a5.53,5.53,0,0,1-2.2-.39,3.79,3.79,0,0,1-1.18-.8,3.88,3.88,0,0,1-.77-1.11,4.71,4.71,0,0,1-.34-1.85,4,4,0,0,1,1.18-3A4.48,4.48,0,0,1,18.44,193a4.51,4.51,0,0,1,3.27,1.13,4.52,4.52,0,0,1,0,6.07A4.44,4.44,0,0,1,18.49,201.4Zm0-1.81a3.24,3.24,0,0,0,2.21-.68,2.17,2.17,0,0,0,.79-1.71,2.13,2.13,0,0,0-.75-1.7,3.26,3.26,0,0,0-2.24-.67,3.24,3.24,0,0,0-2.2.65,2.2,2.2,0,0,0-.81,1.72,2.23,2.23,0,0,0,.74,1.73A3.28,3.28,0,0,0,18.44,199.59Z" transform="translate(0 -0.02)"/><path d="M22.75,191.64H14.22v-1.73h7.07v-4.33h1.46Z" transform="translate(0 -0.02)"/><path d="M14.15,184.39v-1.73H18.8a8.51,8.51,0,0,0,1.43-.07,1.31,1.31,0,0,0,.85-.53,1.81,1.81,0,0,0,.36-1.17,1.73,1.73,0,0,0-.3-1.12,1.24,1.24,0,0,0-.74-.45,10.13,10.13,0,0,0-1.46-.08H14.15v-1.73h4.51a12.23,12.23,0,0,1,2.18.14,2.45,2.45,0,0,1,1.09.52,2.92,2.92,0,0,1,.7,1,4.42,4.42,0,0,1,.26,1.65,4.91,4.91,0,0,1-.28,1.87,2.72,2.72,0,0,1-.74,1,2.27,2.27,0,0,1-1,.49,9.88,9.88,0,0,1-2.18.17Z" transform="translate(0 -0.02)"/><path d="M22.75,173.75H15.6v2.55H14.15v-6.83H15.6V172h7.15Z" transform="translate(0 -0.02)"/><path d="M22.75,168.39h-8.6v-1.73h8.6Z" transform="translate(0 -0.02)"/><path d="M18.49,165.39a5.53,5.53,0,0,1-2.2-.39,4.47,4.47,0,0,1-1.18-.8,3.74,3.74,0,0,1-.77-1.11,4.89,4.89,0,0,1-.34-1.85,4,4,0,0,1,1.18-3,4.49,4.49,0,0,1,3.26-1.2,4.51,4.51,0,0,1,3.27,1.13,4,4,0,0,1,1.17,3,4.09,4.09,0,0,1-1.17,3A4.48,4.48,0,0,1,18.49,165.39Zm0-1.81a3.18,3.18,0,0,0,2.21-.67,2.16,2.16,0,0,0,.75-1.71,2.13,2.13,0,0,0-.75-1.7,3.21,3.21,0,0,0-2.24-.67,3.24,3.24,0,0,0-2.2.65,2.15,2.15,0,0,0-.73,1.72,2.23,2.23,0,0,0,.74,1.73A3.29,3.29,0,0,0,18.44,163.58Z" transform="translate(0 -0.02)"/><path d="M22.75,155.67h-8.6V154l5.73-3.52H14.15v-1.61h8.6v1.74l-5.62,3.47h5.62Z" transform="translate(0 -0.02)"/><path d="M21.09,147.07v-1.68h1.19a3.93,3.93,0,0,1,1.13.13,1.65,1.65,0,0,1,.74.46,2.3,2.3,0,0,1,.51.87l-.68.33a1.18,1.18,0,0,0-1.23-.94v.8Z" transform="translate(0 -0.02)"/><path d="M22.75,132.59v8.62l-8.6-3.34V136ZM21.29,135,16.15,137l5.14,1.88Z" transform="translate(0 -0.02)"/><path d="M22.75,124v1.89l-2,.75V130l2,.71v1.84l-8.6-3.35v-1.86Zm-3.41,3.19-3.19,1.22,3.19,1.16Z" transform="translate(0 -0.02)"/><path d="M22.21,123.49a4.53,4.53,0,0,1-1.85-.33,3.38,3.38,0,0,1-1-.67,2.82,2.82,0,0,1-.64-.92,4,4,0,0,1-.28-1.54,3.4,3.4,0,0,1,1-2.54,3.75,3.75,0,0,1,2.74-1,3.78,3.78,0,0,1,2.71,1,3.35,3.35,0,0,1,1,2.52,3.44,3.44,0,0,1-1,2.54A3.73,3.73,0,0,1,22.21,123.49ZM22.16,122a2.7,2.7,0,0,0,1.85-.56,1.89,1.89,0,0,0,.62-1.43,1.79,1.79,0,0,0-.62-1.42,2.74,2.74,0,0,0-1.87-.55,2.7,2.7,0,0,0-1.84.54,1.85,1.85,0,0,0-.61,1.43,1.9,1.9,0,0,0,.61,1.44A2.7,2.7,0,0,0,22.16,122Z" transform="translate(0 -0.02)"/><path d="M18.58,115.43V114h3.87c.39,0,.8,0,1.2,0a1.23,1.23,0,0,0,.71-.45,1.68,1.68,0,0,0,.26-1,1.52,1.52,0,0,0-.25-.93,1,1,0,0,0-.62-.37,7.08,7.08,0,0,0-1.21-.07h-4v-1.44h3.82a9.33,9.33,0,0,1,1.82.12,1.93,1.93,0,0,1,.9.43,2.35,2.35,0,0,1,.58.84,3.8,3.8,0,0,1,.22,1.38,4.09,4.09,0,0,1-.24,1.55,2.42,2.42,0,0,1-.61.84,2.08,2.08,0,0,1-.8.4,7.91,7.91,0,0,1-1.81.15Z" transform="translate(0 -0.02)"/><path d="M25.75,106.58h-6v2.13H18.58V103h1.21v2.12h6Z" transform="translate(0 -0.02)"/><path d="M25.27,95.88V97a11,11,0,0,1-2.82,1.36,9,9,0,0,1-6-.11A10.76,10.76,0,0,1,14,97V95.86A17.14,17.14,0,0,0,17,97a10.25,10.25,0,0,0,2.64.31,11.3,11.3,0,0,0,2-.18,11.91,11.91,0,0,0,1.91-.49C24,96.46,24.53,96.22,25.27,95.88Z" transform="translate(0 -0.02)"/><path d="M16.51,94.74V93.22h.85a2.46,2.46,0,0,1-1-1.94,1.89,1.89,0,0,1,1-1.72,3,3,0,0,1-.74-.88,2.18,2.18,0,0,1-.25-1,2.37,2.37,0,0,1,.28-1.16,1.88,1.88,0,0,1,.82-.71,3.79,3.79,0,0,1,1.29-.17h4v1.65H19.18a2.92,2.92,0,0,0-1.2.17.81.81,0,0,0-.35.7,1.14,1.14,0,0,0,.21.65,1.1,1.1,0,0,0,.62.44,4.37,4.37,0,0,0,1.29.14h3V91H19.33a4.7,4.7,0,0,0-1.18.09.89.89,0,0,0-.39.27,1,1,0,0,0-.13.5,1.2,1.2,0,0,0,.21.69,1.12,1.12,0,0,0,.59.44,4.26,4.26,0,0,0,1.28.13h3v1.65Z" transform="translate(0 -0.02)"/><path d="M23.07,84.37l.26-1.77a.75.75,0,0,0,.41-.09.66.66,0,0,0,.23-.29,1.22,1.22,0,0,0,.1-.53,1.61,1.61,0,0,0-.21-.86,1.21,1.21,0,0,0-.53-.39,9.07,9.07,0,0,0-1-.24l-.3-.06A2.83,2.83,0,0,1,22.76,82a2,2,0,0,1-.65,1.5,2.7,2.7,0,0,1-1.89.58,5,5,0,0,1-2-.4,3,3,0,0,1-1.38-1.12A2.65,2.65,0,0,1,16.37,81a2.15,2.15,0,0,1,.32-1.13,2.32,2.32,0,0,1,.92-.81l-1.1-.23v-1.5l5.2,1c.83.18,1.42.33,1.78.45a3.17,3.17,0,0,1,.85.41,2.14,2.14,0,0,1,.53.59,2.8,2.8,0,0,1,.31.85,5.63,5.63,0,0,1,.09,1,3.66,3.66,0,0,1-.45,2,1.67,1.67,0,0,1-1.5.68Zm-3-2a1.61,1.61,0,0,0,1.08-.32,1,1,0,0,0,.37-.8,1.29,1.29,0,0,0-.33-.85,1.88,1.88,0,0,0-.95-.63A3.44,3.44,0,0,0,19,79.55,1.62,1.62,0,0,0,18,79.9a1.1,1.1,0,0,0-.4.83,1.24,1.24,0,0,0,.36.83,2.52,2.52,0,0,0,1.1.62,3.11,3.11,0,0,0,1,.25Z" transform="translate(0 -0.02)"/><path d="M25.27,77.07c-.69-.32-1.23-.55-1.6-.69A11.86,11.86,0,0,0,22.39,76c-.48-.12-1-.19-1.39-.25a11.9,11.9,0,0,0-1.34-.08A11.26,11.26,0,0,0,17,76a18,18,0,0,0-3,1.1V76a10.71,10.71,0,0,1,2.67-1.37,8.57,8.57,0,0,1,2.87-.49,9.79,9.79,0,0,1,2.63.39,10.94,10.94,0,0,1,3.1,1.44Z" transform="translate(0 -0.02)"/><path d="M428.36,329.74a5.29,5.29,0,0,1-1.63-.21,2.1,2.1,0,0,1-1-.62,1.58,1.58,0,0,1-.33-1,1.63,1.63,0,0,1,.18-.81,1.48,1.48,0,0,1,.54-.57,2.66,2.66,0,0,1,.85-.36,5.11,5.11,0,0,1,1.35-.13,5,5,0,0,1,1.63.21,2,2,0,0,1,1,.62,1.71,1.71,0,0,1-.26,2.3A3.74,3.74,0,0,1,428.36,329.74Zm0-.73a3.6,3.6,0,0,0,1.88-.33.94.94,0,0,0,0-1.63,5.52,5.52,0,0,0-3.76,0,1,1,0,0,0-.46.83.89.89,0,0,0,.41.77A3.69,3.69,0,0,0,428.36,329Z" transform="translate(0 -0.02)"/><path d="M428.08,324.2a1.3,1.3,0,0,1-.46.65,1.21,1.21,0,0,1-.71.21,1.46,1.46,0,0,1-1.05-.44,1.91,1.91,0,0,1,0-2.41,1.38,1.38,0,0,1,1.06-.45,1.17,1.17,0,0,1,.7.2,1.39,1.39,0,0,1,.45.64,1.44,1.44,0,0,1,.56-.8,1.35,1.35,0,0,1,.91-.28,1.56,1.56,0,0,1,1.23.52,2.12,2.12,0,0,1,0,2.74,1.68,1.68,0,0,1-1.25.51,1.55,1.55,0,0,1-.94-.28A1.42,1.42,0,0,1,428.08,324.2Zm-1.19.15a.86.86,0,0,0,.66-.27,1,1,0,0,0,0-1.34.88.88,0,0,0-.63-.26.84.84,0,0,0-.65.27.86.86,0,0,0-.27.66.93.93,0,0,0,.26.67.87.87,0,0,0,.63.27Zm2.64.22a1.5,1.5,0,0,0,.59-.14,1.16,1.16,0,0,0,.43-.42,1.32,1.32,0,0,0,.16-.61,1.12,1.12,0,0,0-.33-.83,1.09,1.09,0,0,0-.82-.33,1.1,1.1,0,0,0-.84.34,1.13,1.13,0,0,0-.33.84,1.11,1.11,0,0,0,.32.83,1.2,1.2,0,0,0,.83.32Z" transform="translate(0 -0.02)"/><path d="M426.21,320.79h-.67v-3.71h.55a8,8,0,0,0,1.55,1.09,9.48,9.48,0,0,0,2,.83,8.56,8.56,0,0,0,1.58.27V320a7.49,7.49,0,0,1-1.64-.27,8.8,8.8,0,0,1-3.34-1.72Z" transform="translate(0 -0.02)"/><path d="M426.86,312.73l.06.7a1.51,1.51,0,0,0-.61.26,1,1,0,0,0-.3.71,1,1,0,0,0,.19.59,1.53,1.53,0,0,0,.71.52,3.29,3.29,0,0,0,1.32.2,1.55,1.55,0,0,1-.57-.62,1.65,1.65,0,0,1,.33-2,1.89,1.89,0,0,1,1.34-.49,2.29,2.29,0,0,1,1,.23,1.68,1.68,0,0,1,.95,1.56,1.82,1.82,0,0,1-.64,1.45,3.34,3.34,0,0,1-2.1.56,3.91,3.91,0,0,1-2.42-.61,1.8,1.8,0,0,1-.65-1.45,1.62,1.62,0,0,1,.37-1.11A1.67,1.67,0,0,1,426.86,312.73Zm2.47,2.87a1.69,1.69,0,0,0,.7-.15,1.16,1.16,0,0,0,.5-.43,1,1,0,0,0,.18-.59,1,1,0,0,0-.36-.76,1.45,1.45,0,0,0-1-.32,1.34,1.34,0,0,0-.94.31,1.07,1.07,0,0,0-.34.8,1.11,1.11,0,0,0,.34.81A1.21,1.21,0,0,0,429.33,315.6Z" transform="translate(0 -0.02)"/><path d="M426.21,311.88h-.67v-3.7h.55a7.55,7.55,0,0,0,1.55,1.08,9,9,0,0,0,2,.83,7.16,7.16,0,0,0,1.58.27v.72a7.1,7.1,0,0,1-1.64-.26,8.61,8.61,0,0,1-1.84-.73,7.54,7.54,0,0,1-1.5-1Z" transform="translate(0 -0.02)"/><path d="M429.47,307.56h-.71v-2.14h.71Z" transform="translate(0 -0.02)"/><path d="M428.36,304.82a5,5,0,0,1-1.63-.21,2,2,0,0,1-1-.62,1.58,1.58,0,0,1-.33-1,1.63,1.63,0,0,1,.18-.81,1.55,1.55,0,0,1,.54-.57,3.2,3.2,0,0,1,.85-.36,5.57,5.57,0,0,1,1.35-.13,5.29,5.29,0,0,1,1.63.21,2.1,2.1,0,0,1,1,.62,1.58,1.58,0,0,1,.33,1,1.55,1.55,0,0,1-.59,1.3A3.74,3.74,0,0,1,428.36,304.82Zm0-.73a3.6,3.6,0,0,0,1.88-.33,1,1,0,0,0,.47-.81,1,1,0,0,0-.47-.82,5.52,5.52,0,0,0-3.76,0,1,1,0,0,0-.46.83.88.88,0,0,0,.41.77,3.57,3.57,0,0,0,1.93.36Z" transform="translate(0 -0.02)"/><path d="M428.36,300.42a5,5,0,0,1-1.63-.21,2,2,0,0,1-1-.62,1.58,1.58,0,0,1-.33-1,1.63,1.63,0,0,1,.18-.81,1.55,1.55,0,0,1,.54-.57,2.9,2.9,0,0,1,.85-.36,6.12,6.12,0,0,1,1.35-.13,5,5,0,0,1,1.63.21,2.1,2.1,0,0,1,1,.62,1.58,1.58,0,0,1,.33,1,1.53,1.53,0,0,1-.59,1.3A3.74,3.74,0,0,1,428.36,300.42Zm0-.73a3.6,3.6,0,0,0,1.88-.33.92.92,0,0,0,.35-1.27.91.91,0,0,0-.35-.35,5.52,5.52,0,0,0-3.76,0,1,1,0,0,0-.46.82.88.88,0,0,0,.41.77,3.56,3.56,0,0,0,1.93.31Z" transform="translate(0 -0.02)"/><path d="M429.86,295.81l-.06-.67a1.21,1.21,0,0,0,.69-.33.88.88,0,0,0,.22-.62,1,1,0,0,0-.15-.57,1.27,1.27,0,0,0-.4-.4,2.28,2.28,0,0,0-.67-.26,3.56,3.56,0,0,0-.86-.11h-.09a1.67,1.67,0,0,1,.55.57,1.55,1.55,0,0,1,.2.79,1.62,1.62,0,0,1-.51,1.21,1.94,1.94,0,0,1-1.36.49,1.86,1.86,0,0,1-1.4-.52,1.68,1.68,0,0,1-.53-1.28,1.78,1.78,0,0,1,.3-1,1.85,1.85,0,0,1,.85-.71,4.25,4.25,0,0,1,1.62-.24,5.12,5.12,0,0,1,1.74.24,2,2,0,0,1,1,.71,1.81,1.81,0,0,1,.34,1.1,1.58,1.58,0,0,1-.37,1.1A1.66,1.66,0,0,1,429.86,295.81Zm-2.53-2.88a1.34,1.34,0,0,0-1,.33,1,1,0,0,0-.35.77,1.08,1.08,0,0,0,.38.82,1.4,1.4,0,0,0,1,.34,1.18,1.18,0,0,0,.89-.33,1.07,1.07,0,0,0,.34-.81,1,1,0,0,0-.34-.8A1.36,1.36,0,0,0,427.33,292.93Z" transform="translate(0 -0.02)"/><line x1="364.75" y1="4.8" x2="364.75" y2="292.86" fill="none" stroke="#000" stroke-width="1"/><line x1="313.32" y1="4.8" x2="313.32" y2="292.86" fill="none" stroke="#000" stroke-width="1"/><line x1="261.88" y1="4.8" x2="261.88" y2="292.86" fill="none" stroke="#000" stroke-width="1"/><line x1="210.37" y1="4.8" x2="210.37" y2="292.86" fill="none" stroke="#000" stroke-width="1"/><line x1="158.94" y1="4.8" x2="158.94" y2="292.86" fill="none" stroke="#000" stroke-width="1"/><line x1="107.52" y1="4.8" x2="107.52" y2="292.86" fill="none" stroke="#000" stroke-width="1"/><rect x="126.72" y="249.22" width="50.68" height="29.34" fill="#fff"/><path d="M129.39,260.57l2.94-4.48L129.67,252h2l1.72,2.76,1.69-2.76h2l-2.61,4.17,2.94,4.42h-2.09l-1.91-3-1.91,3Z" transform="translate(0 -0.02)"/><path d="M138.57,256v-1.64h1.65V256Zm0,4.58v-1.65h1.65v1.65Z" transform="translate(0 -0.02)"/><path d="M148,252a2.3,2.3,0,0,1,1.95.89,7.65,7.65,0,0,1,0,7,2.31,2.31,0,0,1-1.94.88,2.44,2.44,0,0,1-2-1,7.86,7.86,0,0,1,.07-6.92A2.37,2.37,0,0,1,148,252Zm0,1.36a.8.8,0,0,0-.53.19,1.46,1.46,0,0,0-.37.68,10.34,10.34,0,0,0-.17,2.15,9,9,0,0,0,.16,2.08,1.38,1.38,0,0,0,.38.75.82.82,0,0,0,1.06,0,1.21,1.21,0,0,0,.37-.68,9.14,9.14,0,0,0,.17-2.15,8.47,8.47,0,0,0-.16-2.07,1.49,1.49,0,0,0-.38-.76A.77.77,0,0,0,148,253.31Z" transform="translate(0 -0.02)"/><path d="M152.27,260.57v-1.65h1.65v1.65Z" transform="translate(0 -0.02)"/><path d="M160.81,259v1.53H155a3.88,3.88,0,0,1,.57-1.64,10.34,10.34,0,0,1,1.85-2.06,12.1,12.1,0,0,0,1.36-1.41,1.79,1.79,0,0,0,.34-1,1.17,1.17,0,0,0-.29-.84,1.09,1.09,0,0,0-.82-.3,1.07,1.07,0,0,0-.82.31,1.58,1.58,0,0,0-.35,1l-1.64-.16a2.59,2.59,0,0,1,.92-1.95,3,3,0,0,1,1.93-.59,2.81,2.81,0,0,1,2,.68,2.29,2.29,0,0,1,.72,1.71,3.15,3.15,0,0,1-.2,1.1,4.53,4.53,0,0,1-.66,1.1,12.47,12.47,0,0,1-1.08,1.1c-.52.47-.85.79-1,.94a3,3,0,0,0-.34.46Z" transform="translate(0 -0.02)"/><path d="M162,258.41l1.64-.17a1.38,1.38,0,0,0,.42.88,1.12,1.12,0,0,0,1.58,0l.09-.1a1.94,1.94,0,0,0,.36-1.26,1.75,1.75,0,0,0-.36-1.19,1.2,1.2,0,0,0-.92-.39,1.68,1.68,0,0,0-1.27.62l-1.34-.19.84-4.47h4.36v1.54h-3.11l-.26,1.46a2.45,2.45,0,0,1,1.13-.28,2.49,2.49,0,0,1,1.86.8,2.92,2.92,0,0,1,.76,2.07,3.06,3.06,0,0,1-.62,1.89,2.71,2.71,0,0,1-2.32,1.14,2.91,2.91,0,0,1-1.94-.64A2.62,2.62,0,0,1,162,258.41Z" transform="translate(0 -0.02)"/><path d="M132.52,275v-3.57l-3.15-5h2l2,3.4,2-3.4h2l-3.16,5V275Z" transform="translate(0 -0.02)"/><path d="M137.68,270.41v-1.64h1.65v1.64Zm0,4.59v-1.65h1.65V275Z" transform="translate(0 -0.02)"/><path d="M147.57,275v-1.73h-3.51V271.8l3.72-5.45h1.39v5.45h1.06v1.45h-1.06V275Zm0-3.18v-2.94l-2,2.94Z" transform="translate(0 -0.02)"/><path d="M151.38,275v-1.65H153V275Z" transform="translate(0 -0.02)"/><path d="M154.3,272.69l1.6-.19a1.52,1.52,0,0,0,.41.94,1.13,1.13,0,0,0,.81.32,1.18,1.18,0,0,0,.86-.38,1.54,1.54,0,0,0,.34-1,1.46,1.46,0,0,0-.33-1,1.1,1.1,0,0,0-.81-.37,3.77,3.77,0,0,0-.76.13l.18-1.34a1.46,1.46,0,0,0,1-.29,1,1,0,0,0,.35-.82,1,1,0,0,0-.26-.69,1,1,0,0,0-.68-.26,1,1,0,0,0-.72.29,1.33,1.33,0,0,0-.36.86l-1.52-.26a3.15,3.15,0,0,1,.48-1.24,2.14,2.14,0,0,1,.89-.74,3,3,0,0,1,1.28-.26,2.58,2.58,0,0,1,1.94.77,2,2,0,0,1,.07,2.76,1.92,1.92,0,0,1-.7.47,2,2,0,0,1,1.62,2,2.61,2.61,0,0,1-.82,1.94,3.09,3.09,0,0,1-4,.13A2.66,2.66,0,0,1,154.3,272.69Z" transform="translate(0 -0.02)"/><path d="M166.62,268.48l-1.6.18a1.25,1.25,0,0,0-.3-.73,1,1,0,0,0-.64-.23,1.1,1.1,0,0,0-.88.47,3.92,3.92,0,0,0-.46,1.95,2,2,0,0,1,1.53-.73,2.38,2.38,0,0,1,1.77.79,3.2,3.2,0,0,1,0,4.12,2.82,2.82,0,0,1-4-.05l-.14-.16a7,7,0,0,1,0-6.73,2.82,2.82,0,0,1,2.27-1,2.44,2.44,0,0,1,1.62.54A2.65,2.65,0,0,1,166.62,268.48Zm-3.74,3.6a1.92,1.92,0,0,0,.37,1.25,1.11,1.11,0,0,0,.85.43,1.06,1.06,0,0,0,.76-.36,1.82,1.82,0,0,0,.3-1.18,1.9,1.9,0,0,0-.33-1.22,1,1,0,0,0-.82-.39,1,1,0,0,0-.8.37A1.63,1.63,0,0,0,162.88,272.08Z" transform="translate(0 -0.02)"/><path d="M167.65,272.69l1.6-.19a1.52,1.52,0,0,0,.41.94,1.17,1.17,0,0,0,1.64,0l0,0a1.48,1.48,0,0,0,.35-1,1.41,1.41,0,0,0-.33-1,1.12,1.12,0,0,0-.82-.37,3.68,3.68,0,0,0-.75.13l.18-1.34a1.44,1.44,0,0,0,1-.29,1,1,0,0,0,.35-.82.9.9,0,0,0-.83-.95h-.11a1,1,0,0,0-.72.29,1.4,1.4,0,0,0-.37.86l-1.51-.26a3.29,3.29,0,0,1,.47-1.24,2.22,2.22,0,0,1,.89-.74,3.12,3.12,0,0,1,1.28-.26,2.58,2.58,0,0,1,1.95.77,2,2,0,0,1,0,2.83,2,2,0,0,1-.6.4,2,2,0,0,1,1.62,2,2.59,2.59,0,0,1-.83,1.94,2.85,2.85,0,0,1-2,.8,2.9,2.9,0,0,1-1.94-.67A2.7,2.7,0,0,1,167.65,272.69Z" transform="translate(0 -0.02)"/><rect x="164.74" y="146.53" width="42.68" height="29.34" fill="#fff"/><path d="M182.73,157.89l2.94-4.49L183,149.3h2l1.72,2.76,1.69-2.76h2l-2.67,4.17,2.94,4.42h-2.1l-1.9-3-1.91,3Z" transform="translate(0 -0.02)"/><path d="M191.91,153.31v-1.65h1.65v1.65Zm0,4.58v-1.65h1.65v1.65Z" transform="translate(0 -0.02)"/><path d="M204.14,156.39v1.53h-5.77a3.86,3.86,0,0,1,.56-1.65,10.71,10.71,0,0,1,1.86-2.06,12.85,12.85,0,0,0,1.36-1.4,1.79,1.79,0,0,0,.34-1,1.19,1.19,0,0,0-.29-.85,1.09,1.09,0,0,0-.82-.29,1,1,0,0,0-.82.31,1.46,1.46,0,0,0-.35,1l-1.64-.17a2.63,2.63,0,0,1,.92-1.95,3,3,0,0,1,1.93-.59,2.73,2.73,0,0,1,2,.69,2.25,2.25,0,0,1,.72,1.7,3.25,3.25,0,0,1-.2,1.11,4.66,4.66,0,0,1-.66,1.09,12.47,12.47,0,0,1-1.08,1.1c-.52.48-.85.79-1,.95a2.61,2.61,0,0,0-.34.46Z" transform="translate(0 -0.02)"/><path d="M170.07,172.29v-3.62l-3.15-5h2l2,3.39,2-3.39h2l-3.15,5v3.61Z" transform="translate(0 -0.02)"/><path d="M175.23,167.71v-1.65h1.65v1.65Zm0,4.58v-1.65h1.65v1.65Z" transform="translate(0 -0.02)"/><path d="M181.83,170l1.6-.2a1.47,1.47,0,0,0,.41.93,1.09,1.09,0,0,0,.81.33,1.07,1.07,0,0,0,.85-.39,1.46,1.46,0,0,0,.35-1,1.37,1.37,0,0,0-.33-1,1.1,1.1,0,0,0-.82-.36,3.26,3.26,0,0,0-.75.12l.18-1.34a1.43,1.43,0,0,0,1-.29,1,1,0,0,0,.35-.82.88.88,0,0,0-.26-.69.9.9,0,0,0-.68-.26,1,1,0,0,0-.72.3,1.46,1.46,0,0,0-.37.85l-1.51-.26a3.29,3.29,0,0,1,.47-1.24,2.18,2.18,0,0,1,.89-.73,3,3,0,0,1,1.28-.27,2.58,2.58,0,0,1,1.95.77,2,2,0,0,1-.63,3.24,2,2,0,0,1,1.18.71,2,2,0,0,1,.44,1.33,2.54,2.54,0,0,1-.83,1.92,3,3,0,0,1-3.94.13A2.72,2.72,0,0,1,181.83,170Z" transform="translate(0 -0.02)"/><path d="M191.79,172.29v-1.73h-3.51v-1.44l3.72-5.46h1.39v5.45h1.1v1.45h-1.07v1.73Zm0-3.18v-2.94l-2,2.94Z" transform="translate(0 -0.02)"/><path d="M195.6,172.29v-1.65h1.65v1.65Z" transform="translate(0 -0.02)"/><path d="M198.62,170.3l1.59-.18a1.08,1.08,0,0,0,.31.72.86.86,0,0,0,.65.24,1,1,0,0,0,.86-.47,3.9,3.9,0,0,0,.46-2,2,2,0,0,1-1.55.72,2.29,2.29,0,0,1-1.75-.78,2.8,2.8,0,0,1-.74-2,2.85,2.85,0,0,1,.78-2.11,2.81,2.81,0,0,1,4,0l.15.16a5.23,5.23,0,0,1,.84,3.33,5.28,5.28,0,0,1-.87,3.39,2.81,2.81,0,0,1-2.28,1.05,2.32,2.32,0,0,1-1.62-.54A2.56,2.56,0,0,1,198.62,170.3Zm3.72-3.6a2,2,0,0,0-.36-1.24,1.11,1.11,0,0,0-.85-.43,1,1,0,0,0-.76.36,2.44,2.44,0,0,0,0,2.4,1,1,0,0,0,1.39.22,1,1,0,0,0,.23-.22A1.63,1.63,0,0,0,202.34,166.7Z" transform="translate(0 -0.02)"/><rect x="58.72" y="235.22" width="50.68" height="29.34" fill="#fff"/><path d="M74.7,246.57l2.94-4.48L75,238h2l1.73,2.76L80.46,238h2l-2.67,4.17,2.94,4.42H80.6l-1.91-3-1.91,3Z" transform="translate(0 -0.02)"/><path d="M83.88,242v-1.64h1.65V242Zm0,4.58v-1.65h1.65v1.65Z" transform="translate(0 -0.02)"/><path d="M93.33,238a2.3,2.3,0,0,1,2,.89,7.65,7.65,0,0,1,0,7,2.35,2.35,0,0,1-1.94.88,2.44,2.44,0,0,1-2-1,7.86,7.86,0,0,1,.07-6.92A2.33,2.33,0,0,1,93.33,238Zm0,1.36a.75.75,0,0,0-.53.19,1.27,1.27,0,0,0-.37.68,12.16,12.16,0,0,0,0,4.23,1.47,1.47,0,0,0,.39.75.84.84,0,0,0,1.06,0,1.27,1.27,0,0,0,.37-.68,9.14,9.14,0,0,0,.17-2.15,9,9,0,0,0-.16-2.07,1.45,1.45,0,0,0-.38-.76A.77.77,0,0,0,93.33,239.31Z" transform="translate(0 -0.02)"/><path d="M97.57,246.57v-1.65h1.65v1.65Z" transform="translate(0 -0.02)"/><path d="M104.77,246.57h-1.65v-6.16a5.64,5.64,0,0,1-2.13,1.24v-1.49a4.85,4.85,0,0,0,1.4-.8,3,3,0,0,0,1-1.37h1.34Z" transform="translate(0 -0.02)"/><path d="M65.37,261v-3.56l-3.15-5h2l2,3.4,2-3.4h2l-3.16,5V261Z" transform="translate(0 -0.02)"/><path d="M70.54,256.41v-1.64h1.64v1.64Zm0,4.58v-1.65h1.64V261Z" transform="translate(0 -0.02)"/><path d="M81.46,261h-1.7v-6.2A5.68,5.68,0,0,1,77.64,256v-1.49a5,5,0,0,0,1.4-.8,3,3,0,0,0,1-1.37h1.42Z" transform="translate(0 -0.02)"/><path d="M84.22,261v-1.65h1.65V261Z" transform="translate(0 -0.02)"/><path d="M87.21,254V252.5h5.63v1.19a9.07,9.07,0,0,0-1.42,2,11.74,11.74,0,0,0-1.1,2.73A9.81,9.81,0,0,0,90,261H88.36a11,11,0,0,1,.74-3.63A12.11,12.11,0,0,1,91,254.06Z" transform="translate(0 -0.02)"/><path d="M97.11,261v-1.73H93.59V257.8l3.73-5.45H98.7v5.45h1.07v1.44H98.7V261Zm0-3.17v-2.94l-2,2.94Z" transform="translate(0 -0.02)"/><path d="M100.58,258.76l1.64-.17a1.37,1.37,0,0,0,.41.88,1.15,1.15,0,0,0,.8.33,1.09,1.09,0,0,0,.87-.42,1.83,1.83,0,0,0,.36-1.26,1.71,1.71,0,0,0-.35-1.19,1.19,1.19,0,0,0-.93-.39,1.7,1.7,0,0,0-1.27.62l-1.33-.19.84-4.47H106V254h-3.1l-.26,1.46a2.5,2.5,0,0,1,3,.52,2.84,2.84,0,0,1,.76,2.07,3,3,0,0,1-.61,1.89,2.71,2.71,0,0,1-2.33,1.14,2.91,2.91,0,0,1-1.94-.64A2.66,2.66,0,0,1,100.58,258.76Z" transform="translate(0 -0.02)"/><rect x="104.72" y="189.87" width="50.68" height="29.34" fill="#fff"/><path d="M130.72,201.23l2.93-4.48L131,192.64h2l1.72,2.76,1.69-2.76h2l-2.67,4.17,2.93,4.42h-2.09l-1.9-3-1.91,3Z" transform="translate(0 -0.02)"/><path d="M139.9,196.65V195h1.65v1.64Zm0,4.58v-1.65h1.65v1.65Z" transform="translate(0 -0.02)"/><path d="M150.77,201.23h-1.64V195a5.46,5.46,0,0,1-2.13,1.25v-1.49a4.85,4.85,0,0,0,1.4-.8,3,3,0,0,0,1-1.38h1.33Z" transform="translate(0 -0.02)"/><path d="M111.38,215.63V212l-3.14-5h2l2,3.4,2-3.4h2l-3.16,5v3.61Z" transform="translate(0 -0.02)"/><path d="M116.54,211.05V209.4h1.65V211Zm0,4.58V214h1.65v1.65Z" transform="translate(0 -0.02)"/><path d="M127.47,215.63h-1.7V209.4a5.57,5.57,0,0,1-2.12,1.25v-1.49a5,5,0,0,0,1.4-.8,2.94,2.94,0,0,0,1-1.38h1.42Z" transform="translate(0 -0.02)"/><path d="M129.88,208.68v-1.52h5.59v1.24a9.07,9.07,0,0,0-1.42,2,11.74,11.74,0,0,0-1.1,2.73,10.24,10.24,0,0,0-.37,2.58H131a11,11,0,0,1,.74-3.63,12,12,0,0,1,1.85-3.32Z" transform="translate(0 -0.02)"/><path d="M136.91,215.63V214h1.64v1.65Z" transform="translate(0 -0.02)"/><path d="M143.12,215.63V213.9H139.6v-1.44l3.73-5.46h1.38v5.45h1.07v1.45h-1.07v1.73Zm0-3.18v-2.93l-2,2.93Z" transform="translate(0 -0.02)"/><path d="M146.58,213.4l1.65-.17a1.45,1.45,0,0,0,.41.88,1.15,1.15,0,0,0,.8.33,1.09,1.09,0,0,0,.87-.42,1.87,1.87,0,0,0,.36-1.27,1.65,1.65,0,0,0-.36-1.18,1.13,1.13,0,0,0-.92-.4,1.67,1.67,0,0,0-1.27.63l-1.34-.19.85-4.47H152v1.54h-3.11l-.26,1.46a2.44,2.44,0,0,1,1.12-.28,2.5,2.5,0,0,1,1.87.8,2.88,2.88,0,0,1,.76,2.07,3.2,3.2,0,0,1-.61,1.89,2.73,2.73,0,0,1-2.34,1.13,2.9,2.9,0,0,1-1.94-.63A2.71,2.71,0,0,1,146.58,213.4Z" transform="translate(0 -0.02)"/><polyline points="107.61 265.87 108.43 265.03 109.26 264.19 110.09 263.35 110.95 262.51 111.77 262.51 113.43 260.83 112.61 260.83 113.43 260.83 114.26 260 115.09 259.16 115.92 258.32 116.75 257.48 117.57 257.48 119.24 255.78 119.24 254.94 120.06 254.94 120.89 254.09 121.71 253.25 122.55 252.41 123.37 251.57 124.2 251.57 125.86 249.89 125.86 249.05 126.71 249.05 127.55 248.21 128.37 247.37 129.2 246.53 130.04 245.67 130.86 244.83 131.69 243.99 132.52 243.99 133.35 243.15 134.18 242.31 135 241.47 135.84 240.63 136.66 239.79 137.5 238.95 138.32 238.11 139.16 238.11 139.99 237.28 140.81 236.44 141.65 235.6 142.5 234.76 143.34 233.89 144.16 233.05 144.99 232.21 145.81 232.21 146.65 231.37 147.47 230.53 148.3 229.69 149.13 228.86 149.96 228.02 150.79 227.18 151.61 226.34 152.45 226.34 153.28 225.5 154.1 224.66 154.94 223.82 155.76 222.95 156.59 222.12 157.45 221.28 158.28 221.28 159.1 220.44 159.93 219.6 160.76 218.75 161.59 217.92 162.42 217.08 163.25 216.25 164.08 215.4 164.9 215.4 165.73 214.57 167.39 212.88 166.56 212.88 167.39 212.88 168.22 212.04 169.04 211.18 169.88 210.34 170.7 209.5 171.53 209.5 173.22 207.81 173.22 206.98 174.04 206.98 174.88 206.13 175.7 205.3 176.53 204.46 177.36 203.61 178.19 203.61 179.84 201.94 179.03 201.94 179.84 201.94 180.69 201.1 181.51 200.24 182.34 199.39 183.18 198.55 184 198.55 185.65 196.88 185.65 196.04 186.49 196.04 187.32 195.2 188.18 194.36 189 193.52 189.83 192.68 190.65 192.68 192.32 191 192.32 190.17 193.14 190.17 193.98 189.33 194.8 188.46 195.63 187.62 196.46 186.78 197.29 185.94 198.12 185.11 198.94 184.27 199.77 184.27 200.61 183.42 201.43 182.59 202.26 181.74 203.09 180.91 203.94 180.07 204.77 179.23 205.61 179.23 206.43 178.39 207.26 177.53 208.09 176.68 208.92 175.85 209.75 175.01 210.57 174.17" fill="none" stroke="#000" stroke-linejoin="round" stroke-width="2.5"/><polyline points="210.57 174.17 211.41 173.33 212.23 173.33 213.06 172.49 213.89 171.65 214.72 170.81 215.55 169.97 216.37 169.13 217.21 168.28 218.03 167.46 218.88 167.46 219.72 166.6 220.55 165.74 221.38 164.89 222.22 164.06 223.03 163.22 223.87 162.38 224.69 161.54 225.53 161.54 226.36 160.71 227.18 159.86 228.02 159.02 228.85 158.19 229.67 157.34 230.51 156.51 231.33 156.51 232.16 155.67 232.99 154.8 233.82 153.96 234.67 153.13 235.51 152.28 236.33 151.45 237.16 150.61 237.98 150.61 238.82 149.76 240.47 148.09 239.65 148.09 240.47 148.09 241.31 147.26 242.13 146.41 242.96 145.57 243.79 144.73 244.62 144.73 246.27 143.02 245.45 143.02 246.27 143.02 247.11 142.19 247.94 141.35 248.76 140.5 249.62 139.67 250.45 138.83 251.27 138.83 252.94 137.15 252.11 137.15 252.94 137.15 253.76 136.32 254.6 135.48 255.42 134.63 256.25 133.8 257.07 133.8 258.74 132.12 258.74 131.26 259.56 131.26 260.39 130.42 261.21 129.57 262.05 128.74 262.88 127.89 263.7 127.89 265.39 126.22 265.39 125.38 266.21 125.38 267.06 124.53 267.88 123.69 268.71 122.86 269.55 122.01 270.37 121.17 271.2 120.3 272.04 120.3 272.86 119.47 273.69 118.62 274.51 117.79 275.35 116.95 276.18 116.11 277 115.27 277.84 114.43 278.66 114.43 279.49 113.6 280.35 112.75 281.17 111.92 282 111.08 282.83 110.23 283.66 109.4 284.49 108.54 285.31 108.54 286.14 107.69 286.98 106.86 287.8 106.02 288.63 105.17 289.46 104.34 290.29 103.5 291.12 102.66 291.95 102.66 292.78 101.82 293.6 100.97 294.44 100.14 295.27 99.3 296.12 98.47 296.95 97.6 297.78 97.6 298.6 96.76 299.43 95.91 300.27 95.08 301.09 94.24 301.92 93.4 302.75 92.56 303.58 91.72 304.4 91.72 305.24 90.89 306.07 90.04 306.89 89.21 307.73 88.36 308.56 87.53 309.38 86.69 310.21 85.82 311.07 85.82 311.9 84.97 312.73 84.14 313.56 83.3" fill="none" stroke="#000" stroke-linejoin="round" stroke-width="2.5"/><polyline points="313.56 83.3 314.39 82.47 315.22 81.61 316.04 80.78 316.88 79.94 317.7 79.94 318.53 79.1 319.36 78.27 320.19 77.42 321.02 76.58 321.84 75.74 322.68 74.88 323.5 74.88 324.33 74.04 325.16 73.2 325.99 72.36 326.84 71.52 327.68 70.68 328.5 69.84 329.33 69.01 330.16 69.01 330.99 68.16 331.82 67.32 332.64 66.49 333.47 65.64 334.31 64.81 335.13 63.97 335.97 63.1 336.79 63.1 337.62 62.27 338.45 61.42 339.27 60.58 340.11 59.75 340.93 58.9 341.79 58.07 342.62 57.23 343.45 57.23 344.27 56.38 345.11 55.55 345.93 54.71 346.76 53.87 347.58 53.03 348.42 52.16 349.25 52.16 350.08 51.32 351.74 49.65 350.92 49.65 351.74 49.65 352.56 48.81 353.4 47.97 354.23 47.12 355.06 46.29 355.88 46.29 356.72 45.45 358.4 43.77 357.57 43.77 358.4 43.77 359.23 42.93 360.06 42.1 360.88 41.24 361.72 40.38 362.55 40.38 363.37 39.55 364.2 38.7 365.03 37.88" fill="none" stroke="#000" stroke-linejoin="round" stroke-width="2.5"/><rect x="206.37" y="169.9" width="9.19" height="9.32" fill="#fff"/><rect x="208.16" y="171.71" width="5.61" height="5.69"/><rect x="155.03" y="216.66" width="9.19" height="9.32" fill="#fff"/><rect x="156.82" y="218.47" width="5.61" height="5.69"/><rect x="115.97" y="249.33" width="9.19" height="9.32" fill="#fff"/><rect x="117.76" y="251.14" width="5.61" height="5.69"/><rect x="107.97" y="256.68" width="9.19" height="9.32" fill="#fff"/><rect x="109.76" y="258.48" width="5.61" height="5.69"/></svg>