<svg id="f9fbe03d-d285-465a-afc3-0ea7e309328d" data-name="beb554f8-f2cb-4dae-bfb3-794b4c5ee356" xmlns="http://www.w3.org/2000/svg" width="6.14in" height="5.32in" viewBox="0 0 442.06 383.09"><title>08767-011</title><line x1="373.14" y1="80.2" x2="431.24" y2="80.2" fill="none" stroke="#000" stroke-width="1.5" stroke-dasharray="6 4"/><line x1="301.27" y1="97.25" x2="270.5" y2="162.93" fill="none" stroke="#000" stroke-width="1.5"/><polygon points="274.76 162.12 265.99 173 268.16 159.19 274.76 162.12"/><line x1="46.07" y1="127.03" x2="21.97" y2="151.8" fill="none" stroke="#000" stroke-width="1.5"/><polygon points="21.13 147.54 14.31 159.72 26.32 152.58 21.13 147.54"/><line x1="79.44" y1="127.49" x2="79.44" y2="158.64" fill="none" stroke="#000" stroke-width="1.5"/><polygon points="75.87 156.18 79.48 169.67 83.09 156.18 75.87 156.18"/><line x1="79.44" y1="70.57" x2="79.44" y2="25.23" fill="none" stroke="#000" stroke-width="1.5"/><polygon points="75.87 27.69 79.48 14.2 83.09 27.69 75.87 27.69"/><line x1="150.66" y1="93.51" x2="188.64" y2="93.51" fill="none" stroke="#000" stroke-width="1.5"/><polygon points="186.17 97.08 199.67 93.46 186.17 89.85 186.17 97.08"/><polygon points="116.93 127.93 116.93 104.02 150.84 70.1 150.84 93.99 116.93 127.93" fill="#b2b2b2" fill-rule="evenodd"/><line x1="116.93" y1="127.93" x2="150.83" y2="93.99" fill="none" stroke="#a9a9a9" stroke-miterlimit="10" stroke-width="0.24"/><polygon points="116.93 104.02 45.03 104.02 78.94 70.1 150.84 70.1 116.93 104.02" fill="#666" fill-rule="evenodd"/><line x1="116.93" y1="104.02" x2="150.83" y2="70.1" fill="none" stroke="#727272" stroke-miterlimit="10" stroke-width="0.24"/><polygon points="45.03 103.74 45.03 127.64 116.93 127.64 116.93 103.74 45.03 103.74 45.03 103.74" fill="#8c8c8c" fill-rule="evenodd"/><path d="M2.28,152v-2.24H0v-1.54H2.28V146h1.5v2.23H6v1.54H3.78V152Z" transform="translate(-0.03)"/><path d="M6.53,153.19l2.93-4.48L6.8,144.6h2l1.73,2.77,1.69-2.76h2l-2.67,4.18,3,4.4h-2.1l-1.9-3-1.91,3Z" transform="translate(-0.03)"/><path d="M271.73,178.62v-2.23h-2.25v-1.54h2.25v-2.23h1.5v2.23h2.25v1.54h-2.25v2.23Z" transform="translate(-0.03)"/><path d="M276,179.85l2.93-4.47-2.66-4.11h2L280,174l1.68-2.76h2L281,175.44l2.93,4.41h-2.09l-1.89-3-1.91,3Z" transform="translate(-0.03)"/><path d="M85.92,18V15.78H83.67V14.24h2.25V12h1.5v2.23h2.24v1.54H87.42V18Z" transform="translate(-0.03)"/><path d="M90.3,19.24V17.69l4.51-5.57h-4V10.67h6.28V12l-4.7,5.8h4.89v1.43Z" transform="translate(-0.03)"/><path d="M348.7,7.36V5.13h-2.25V3.58h2.25V1.35h1.5V3.58h2.26V5.13H350.2V7.36Z" transform="translate(-0.03)"/><path d="M353.08,8.59V7l4.51-5.57h-4V0h6.29V1.35l-4.71,5.8h4.89V8.59Z" transform="translate(-0.03)"/><path d="M194.31,86.65V84.42h-2.25V82.89h2.25V80.66h1.5v2.23h2.25v1.53h-2.25v2.23Z" transform="translate(-0.03)"/><path d="M201.7,87.89V84.27l-3.15-5h2l2,3.4,2-3.4h2l-3.16,5v3.6Z" transform="translate(-0.03)"/><path d="M413.77,132.63v-2.22h-2.25v-1.54h2.25v-2.23h1.5v2.23h2.26v1.54h-2.26v2.22Z" transform="translate(-0.03)"/><path d="M421.16,133.87v-3.61l-3.14-5h2l2,3.4,2-3.4h2l-3.15,5v3.59Z" transform="translate(-0.03)"/><path d="M92.71,153.19H91.07V147A5.47,5.47,0,0,1,89,148.23v-1.49a4.93,4.93,0,0,0,1.39-.8,3,3,0,0,0,1-1.37h1.33Z" transform="translate(-0.03)"/><path d="M95.06,153.53l1.77.26a.73.73,0,0,0,.09.4.68.68,0,0,0,.29.24,1.39,1.39,0,0,0,.53.1,1.54,1.54,0,0,0,.86-.22,1.11,1.11,0,0,0,.39-.52,9.07,9.07,0,0,0,.24-1l.06-.29a2.9,2.9,0,0,1-1.8.69,2,2,0,0,1-1.5-.65,2.75,2.75,0,0,1-.58-1.89,4.9,4.9,0,0,1,.4-2,3,3,0,0,1,1.12-1.38,2.7,2.7,0,0,1,1.47-.47,2,2,0,0,1,1.09.39,2.25,2.25,0,0,1,.81.92l.23-1.1h1.58l-1,5.18c-.18.84-.33,1.43-.45,1.79a3.92,3.92,0,0,1-.41.85,2.11,2.11,0,0,1-1.44.82,4.19,4.19,0,0,1-1,.1,3.67,3.67,0,0,1-2-.44,1.7,1.7,0,0,1-.67-1.5Zm2-3a1.71,1.71,0,0,0,.32,1.09,1,1,0,0,0,.8.37,1.32,1.32,0,0,0,.85-.34,2,2,0,0,0,.63-1,3.48,3.48,0,0,0,.22-1.19,1.56,1.56,0,0,0-.35-1.06,1.11,1.11,0,0,0-.83-.41,1.15,1.15,0,0,0-.83.36,2.73,2.73,0,0,0-.62,1.1,3.5,3.5,0,0,0-.21,1Z" transform="translate(-0.03)"/><path d="M439.13,382.27a5,5,0,0,1-1.64-.21,2,2,0,0,1-.95-.62,1.52,1.52,0,0,1-.34-1,1.64,1.64,0,0,1,.19-.81,1.53,1.53,0,0,1,.53-.57,2.66,2.66,0,0,1,.85-.36,5.65,5.65,0,0,1,1.36-.13,5.23,5.23,0,0,1,1.62.21,2,2,0,0,1,1,.62,1.63,1.63,0,0,1,.34,1,1.56,1.56,0,0,1-.6,1.3A3.7,3.7,0,0,1,439.13,382.27Zm0-.73a3.55,3.55,0,0,0,1.87-.33,1,1,0,0,0,.47-.81,1,1,0,0,0-.47-.82,5.49,5.49,0,0,0-3.75,0,1,1,0,0,0-.47.83.89.89,0,0,0,.41.77,3.7,3.7,0,0,0,1.94.36Z" transform="translate(-0.03)"/><path d="M438.85,376.73a1.26,1.26,0,0,1-.46.65,1.21,1.21,0,0,1-.71.21,1.36,1.36,0,0,1-1.05-.45,1.63,1.63,0,0,1-.43-1.19,1.7,1.7,0,0,1,.44-1.21,1.45,1.45,0,0,1,1.06-.45,1.32,1.32,0,0,1,.69.2,1,1,0,0,0,2-.4,1.65,1.65,0,0,1,1.24.52,1.94,1.94,0,0,1,.5,1.37,1.9,1.9,0,0,1-.5,1.36,1.68,1.68,0,0,1-1.26.52,1.42,1.42,0,0,1-.93-.28A1.4,1.4,0,0,1,438.85,376.73Zm-1.2.15a.9.9,0,0,0,.67-.27.93.93,0,0,0,.26-.68.92.92,0,0,0-.26-.66.82.82,0,0,0-.63-.26.91.91,0,0,0-.91.93.87.87,0,0,0,.26.67A.76.76,0,0,0,437.65,376.88Zm2.7.21a1.3,1.3,0,0,0,.58-.14,1.11,1.11,0,0,0,.44-.42,1.25,1.25,0,0,0,.15-.61,1.17,1.17,0,0,0-.32-.83,1.12,1.12,0,0,0-.83-.33,1.14,1.14,0,0,0-.84.34,1.16,1.16,0,0,0,0,1.64,1.11,1.11,0,0,0,.86.36Z" transform="translate(-0.03)"/><path d="M437,373.32h-.62v-3.7h.55a7.65,7.65,0,0,0,1.54,1.09,10,10,0,0,0,2,.82,7,7,0,0,0,1.57.27v.72a6.46,6.46,0,0,1-1.63-.27,8.93,8.93,0,0,1-3.35-1.71Z" transform="translate(-0.03)"/><path d="M437.63,365.28l.05.7a1.2,1.2,0,0,0-.6.26,1,1,0,0,0-.11,1.3,1.65,1.65,0,0,0,.7.52,4,4,0,0,0,1.33.2,1.81,1.81,0,0,1-.58-.62,1.74,1.74,0,0,1-.18-.77,1.59,1.59,0,0,1,.51-1.2,1.83,1.83,0,0,1,1.34-.49,2.32,2.32,0,0,1,1,.23,1.7,1.7,0,0,1,1,1.56,1.82,1.82,0,0,1-.65,1.43,3.36,3.36,0,0,1-2.13.56,3.93,3.93,0,0,1-2.41-.61,1.78,1.78,0,0,1-.66-1.45,1.54,1.54,0,0,1,1.43-1.62Zm2.47,2.87a1.65,1.65,0,0,0,.69-.15,1.28,1.28,0,0,0,.51-.44,1.12,1.12,0,0,0,.17-.58,1,1,0,0,0-.36-.76,1.36,1.36,0,0,0-1-.32,1.31,1.31,0,0,0-.93.31,1,1,0,0,0-.34.8,1.05,1.05,0,0,0,.34.81A1.25,1.25,0,0,0,440.1,368.15Z" transform="translate(-0.03)"/><path d="M437,364.43h-.62v-3.71h.55a7.27,7.27,0,0,0,1.54,1.09,9.48,9.48,0,0,0,2,.83,8.32,8.32,0,0,0,1.57.27v.72a6.93,6.93,0,0,1-1.63-.26,9.49,9.49,0,0,1-1.85-.73,8.9,8.9,0,0,1-1.5-1Z" transform="translate(-0.03)"/><path d="M440.23,360.1h-.71v-2.16h.71Z" transform="translate(-0.03)"/><path d="M439.13,357.37a5,5,0,0,1-1.64-.21,2,2,0,0,1-.95-.62,1.52,1.52,0,0,1-.34-1,1.64,1.64,0,0,1,.19-.81,1.53,1.53,0,0,1,.53-.57,3.2,3.2,0,0,1,.85-.36,5.65,5.65,0,0,1,1.36-.13,5.55,5.55,0,0,1,1.62.21,2,2,0,0,1,1,.62,1.65,1.65,0,0,1,.34,1,1.56,1.56,0,0,1-.6,1.3A3.7,3.7,0,0,1,439.13,357.37Zm0-.73a3.55,3.55,0,0,0,1.87-.33,1,1,0,0,0,.47-.81,1,1,0,0,0-.47-.82,5.49,5.49,0,0,0-3.75,0,1,1,0,0,0-.47.83.89.89,0,0,0,.41.77,3.7,3.7,0,0,0,1.94.36Z" transform="translate(-0.03)"/><path d="M442,350.27v.7h-4.48a3.43,3.43,0,0,1,.48.67,4.26,4.26,0,0,1,.37.74h-.68a4.49,4.49,0,0,0-.67-1,2.76,2.76,0,0,0-.77-.63v-.45Z" transform="translate(-0.03)"/><path d="M442,346.42v.69h-4.48a4.36,4.36,0,0,1,.48.65,4.65,4.65,0,0,1,.37.74h-.68a4.73,4.73,0,0,0-.67-1,2.66,2.66,0,0,0-.77-.61v-.46Z" transform="translate(-0.03)"/><line x1="336.4" y1="274.95" x2="308.52" y2="226.62" fill="none" stroke="#000" stroke-width="1.5"/><polygon points="312.84 227.06 303.21 216.95 306.49 230.53 312.84 227.06"/><line x1="346.07" y1="313.79" x2="346.07" y2="357.89" fill="none" stroke="#000" stroke-width="1.5"/><polygon points="342.5 355.42 346.12 368.92 349.73 355.42 342.5 355.42"/><line x1="346.07" y1="269.93" x2="346.07" y2="213.17" fill="none" stroke="#000" stroke-width="1.5" stroke-dasharray="6 4"/><polygon points="378.41 298.99 368.32 277.32 402.22 243.37 412.29 265.03 378.41 298.99" fill="#b2b2b2" fill-rule="evenodd"/><line x1="378.41" y1="298.99" x2="412.29" y2="265.03" fill="none" stroke="#a4a4a4" stroke-miterlimit="10" stroke-width="0.24"/><polygon points="368.32 277.32 303.24 307.71 337.13 273.76 402.22 243.37 368.32 277.32" fill="#666" fill-rule="evenodd"/><rect x="304.95" y="291.43" width="71.81" height="23.89" transform="translate(-96.28 172.4) rotate(-24.99)" fill="#8c8c8c"/><polygon points="330.83 228.53 317.76 233.44 326.62 222.65 330.83 228.53"/><path d="M341,223.84c-11.37-1.07-15.33,4-17,5.93" transform="translate(-0.03)" fill="none" stroke="#000" stroke-width="1.5"/><path d="M287.22,225.93V223.7H285v-1.54h2.25v-2.23h1.5v2.23H291v1.54h-2.25v2.23Z" transform="translate(-0.03)"/><path d="M291.61,227.16v-1.57l4.51-5.57h-4v-1.45h6.29v1.35l-4.7,5.79h4.88v1.45Z" transform="translate(-0.03)"/><path d="M360.66,354.44H359v-6.2a5.57,5.57,0,0,1-2.12,1.25V348a4.43,4.43,0,0,0,1.4-.8,2.94,2.94,0,0,0,1-1.36h1.34Z" transform="translate(-0.03)"/><path d="M363,354.77l1.78.26a.73.73,0,0,0,.09.41.57.57,0,0,0,.28.23,1.11,1.11,0,0,0,.54.1,1.5,1.5,0,0,0,.85-.21,1.15,1.15,0,0,0,.39-.53,5.61,5.61,0,0,0,.24-1l.06-.29a2.73,2.73,0,0,1-1.8.73,1.92,1.92,0,0,1-1.5-.65,2.77,2.77,0,0,1-.59-1.88,5.14,5.14,0,0,1,.4-2,3.17,3.17,0,0,1,1.12-1.39,2.73,2.73,0,0,1,1.52-.45,2.18,2.18,0,0,1,1.14.32,2.37,2.37,0,0,1,.8.92l.23-1.1h1.58l-1.08,5.19a17.79,17.79,0,0,1-.44,1.78,3.37,3.37,0,0,1-.42.85,1.86,1.86,0,0,1-.59.53,2.84,2.84,0,0,1-.84.31,6.32,6.32,0,0,1-1.06.09,3.57,3.57,0,0,1-2-.45A1.69,1.69,0,0,1,363,355Zm2-3a1.66,1.66,0,0,0,.32,1.08,1,1,0,0,0,.8.37,1.3,1.3,0,0,0,.86-.33,2.19,2.19,0,0,0,.63-1,3.69,3.69,0,0,0,.22-1.19,1.55,1.55,0,0,0-.36-1.07,1.1,1.1,0,0,0-.83-.4,1.25,1.25,0,0,0-.82.35,2.74,2.74,0,0,0-.63,1.11,3.34,3.34,0,0,0-.21,1.08Z" transform="translate(-0.03)"/><path d="M324.18,167.18h-1.64V161a5.61,5.61,0,0,1-2.13,1.25v-1.49a4.54,4.54,0,0,0,1.4-.8,3.09,3.09,0,0,0,1-1.38h1.33Z" transform="translate(-0.03)"/><path d="M326.53,167.52l1.77.26a.7.7,0,0,0,.09.4.73.73,0,0,0,.28.24,1.21,1.21,0,0,0,.53.09,1.59,1.59,0,0,0,.86-.21,1.06,1.06,0,0,0,.39-.52,5.82,5.82,0,0,0,.24-1l.06-.29a2.8,2.8,0,0,1-1.81.72,1.93,1.93,0,0,1-1.49-.64,2.69,2.69,0,0,1-.58-1.89,4.74,4.74,0,0,1,.4-2,2.94,2.94,0,0,1,1.11-1.38,2.75,2.75,0,0,1,1.47-.47,2,2,0,0,1,1.13.33,2.1,2.1,0,0,1,.8.92L332,161h1.58l-1.08,5.2c-.12.6-.27,1.19-.45,1.78a3,3,0,0,1-.41.85,2,2,0,0,1-.6.53,2.24,2.24,0,0,1-.84.31,6,6,0,0,1-1.05.1,3.63,3.63,0,0,1-2-.46,1.67,1.67,0,0,1-.67-1.5A1.23,1.23,0,0,1,326.53,167.52Zm2-3a1.55,1.55,0,0,0,.31,1.08,1,1,0,0,0,.8.38,1.32,1.32,0,0,0,.85-.34,2,2,0,0,0,.63-.95,3.22,3.22,0,0,0,.22-1.19,1.54,1.54,0,0,0-.36-1.06,1.06,1.06,0,0,0-.82-.41,1.24,1.24,0,0,0-.83.36,2.62,2.62,0,0,0-.62,1.1,3.24,3.24,0,0,0-.2,1Z" transform="translate(-0.03)"/><path d="M21.88,383.09H20.52a14.21,14.21,0,0,1-1.59-3.28,11.19,11.19,0,0,1-.55-3.3,10.67,10.67,0,0,1,.68-3.74A13,13,0,0,1,20.55,370h1.31a21.07,21.07,0,0,0-1.28,3.51,13.36,13.36,0,0,0-.36,3.08,14.79,14.79,0,0,0,.21,2.3,17.09,17.09,0,0,0,.57,2.24C21.2,381.51,21.52,382.18,21.88,383.09Z" transform="translate(-0.03)"/><path d="M29.69,375l-1.89.34a1.41,1.41,0,0,0-.44-.85,1.32,1.32,0,0,0-.88-.29,1.5,1.5,0,0,0-1.14.49,2.58,2.58,0,0,0-.43,1.66,3,3,0,0,0,.44,1.83,1.41,1.41,0,0,0,1.16.53,1.24,1.24,0,0,0,.9-.31,1.92,1.92,0,0,0,.49-1.07l1.89.32a3.35,3.35,0,0,1-1.13,2,3.47,3.47,0,0,1-2.24.67,3.32,3.32,0,0,1-2.54-1,4.59,4.59,0,0,1,0-5.58,3.39,3.39,0,0,1,2.57-1,3.63,3.63,0,0,1,2.11.57A3.21,3.21,0,0,1,29.69,375Z" transform="translate(-0.03)"/><path d="M30.61,383.09c.38-.81.65-1.43.8-1.87a12.7,12.7,0,0,0,.43-1.49,14.71,14.71,0,0,0,.3-1.61,13.64,13.64,0,0,0,.09-1.57,12.83,12.83,0,0,0-.35-3.08A21.07,21.07,0,0,0,30.6,370h1.31a13.08,13.08,0,0,1,1.6,3.11,10.33,10.33,0,0,1,.57,3.34,11.67,11.67,0,0,1-.45,3.06,13,13,0,0,1-1.69,3.62Z" transform="translate(-0.03)"/><path d="M414.67,383.09h-1.31a13.47,13.47,0,0,1-1.6-3.28,10.86,10.86,0,0,1-.54-3.3,10.43,10.43,0,0,1,.67-3.74,13,13,0,0,1,1.49-2.81h1.31a21.07,21.07,0,0,0-1.28,3.51,12.84,12.84,0,0,0-.36,3.08,12.7,12.7,0,0,0,.21,2.3,14.42,14.42,0,0,0,.57,2.24C414,381.51,414.27,382.18,414.67,383.09Z" transform="translate(-0.03)"/><path d="M422.81,380.09H421v-1a2.91,2.91,0,0,1-1,.92,2.72,2.72,0,0,1-3.37-.69,4.11,4.11,0,0,1-.89-2.82,4,4,0,0,1,.87-2.8,2.87,2.87,0,0,1,2.19-1,2.78,2.78,0,0,1,2.11,1v-3.6h1.92Zm-5.13-3.78A3.35,3.35,0,0,0,418,378a1.46,1.46,0,0,0,1.3.75,1.42,1.42,0,0,0,1.13-.57,2.64,2.64,0,0,0,.47-1.68,2.88,2.88,0,0,0-.46-1.8,1.44,1.44,0,0,0-1.15-.55,1.49,1.49,0,0,0-1.15.54,2.48,2.48,0,0,0-.46,1.64Z" transform="translate(-0.03)"/><path d="M424.17,383.09c.37-.81.63-1.43.79-1.87a15.51,15.51,0,0,0,.72-3.1,10.27,10.27,0,0,0,.1-1.57,12.83,12.83,0,0,0-.35-3.08,21,21,0,0,0-1.27-3.51h1.29a12.76,12.76,0,0,1,1.61,3.11,10.33,10.33,0,0,1,.57,3.34,11.28,11.28,0,0,1-.46,3.06,12.71,12.71,0,0,1-1.68,3.62Z" transform="translate(-0.03)"/><path d="M21.88,13.24H20.52A14.14,14.14,0,0,1,18.93,10a11.24,11.24,0,0,1-.55-3.3,10.58,10.58,0,0,1,.68-3.74A13.12,13.12,0,0,1,20.55.11h1.31a21.18,21.18,0,0,0-1.24,3.48,13.3,13.3,0,0,0-.36,3.08A14.79,14.79,0,0,0,20.47,9,18.09,18.09,0,0,0,21,11.25C21.2,11.67,21.52,12.33,21.88,13.24Z" transform="translate(-0.03)"/><path d="M24.8,5.25l-1.75-.32a2.81,2.81,0,0,1,1-1.56,3.73,3.73,0,0,1,2.14-.5,4.62,4.62,0,0,1,1.91.3,1.91,1.91,0,0,1,.89.77,4,4,0,0,1,.25,1.72V7.91a8.68,8.68,0,0,0,.08,1.34,4.57,4.57,0,0,0,.35,1h-1.9c-.05-.13-.11-.32-.19-.57l-.06-.21a3.55,3.55,0,0,1-1.06.72,3,3,0,0,1-1.19.24,2.55,2.55,0,0,1-1.75-.61,2.17,2.17,0,0,1-.35-2.64A1.89,1.89,0,0,1,24,6.44,6.37,6.37,0,0,1,25.52,6a10.07,10.07,0,0,0,1.87-.48V5.33a1,1,0,0,0-.28-.79,1.67,1.67,0,0,0-1-.23,1.22,1.22,0,0,0-1.31.94Zm2.57,1.56c-.25.08-.64.18-1.17.29a3.29,3.29,0,0,0-1.05.33.81.81,0,0,0-.37.68,1,1,0,0,0,.3.7,1.13,1.13,0,0,0,.76.29,1.65,1.65,0,0,0,1-.34,1.1,1.1,0,0,0,.46-.64,3.66,3.66,0,0,0,.08-.93Z" transform="translate(-0.03)"/><path d="M30.61,13.24c.38-.81.65-1.43.8-1.86a13.44,13.44,0,0,0,.43-1.5,14.71,14.71,0,0,0,.3-1.61,13.6,13.6,0,0,0,.09-1.56,12.77,12.77,0,0,0-.35-3.08A20.85,20.85,0,0,0,30.6.11h1.31a13.1,13.1,0,0,1,1.61,3.08,10.23,10.23,0,0,1,.57,3.34,11.8,11.8,0,0,1-.45,3.06,12.93,12.93,0,0,1-1.7,3.65Z" transform="translate(-0.03)"/><path d="M414.67,13.24h-1.31a13.23,13.23,0,0,1-1.6-3.27,10.91,10.91,0,0,1-.54-3.3,10.36,10.36,0,0,1,.67-3.74A12.9,12.9,0,0,1,413.36.07h1.31a20.85,20.85,0,0,0-1.28,3.52A12.78,12.78,0,0,0,413,6.67a12.7,12.7,0,0,0,.21,2.3,14.71,14.71,0,0,0,.57,2.24C414,11.67,414.27,12.33,414.67,13.24Z" transform="translate(-0.03)"/><path d="M416.07,10.25V.25H418v3.6a2.72,2.72,0,0,1,2.11-1,2.85,2.85,0,0,1,2.19,1,4,4,0,0,1,.87,2.76,4.27,4.27,0,0,1-.89,2.86,2.78,2.78,0,0,1-2.15,1,2.7,2.7,0,0,1-1.22-.32,3,3,0,0,1-1-.91v1ZM418,6.46a3,3,0,0,0,.38,1.68,1.54,1.54,0,0,0,1.33.77,1.37,1.37,0,0,0,1.08-.55,2.66,2.66,0,0,0,.45-1.71,2.9,2.9,0,0,0-.45-1.79,1.43,1.43,0,0,0-1.16-.55,1.45,1.45,0,0,0-1.15.53A2.45,2.45,0,0,0,418,6.47Z" transform="translate(-0.03)"/><path d="M424.17,13.24c.37-.81.63-1.43.79-1.86a12.07,12.07,0,0,0,.43-1.5,12.64,12.64,0,0,0,.29-1.61,10.22,10.22,0,0,0,.1-1.56,12.77,12.77,0,0,0-.35-3.08A20.82,20.82,0,0,0,424.16.11h1.29a12.65,12.65,0,0,1,1.61,3.12,10,10,0,0,1,.57,3.34,11.4,11.4,0,0,1-.46,3.06,12.77,12.77,0,0,1-1.68,3.61Z" transform="translate(-0.03)"/><polygon points="356.23 151.38 363.73 133.58 387.65 85.04 380.15 102.86 356.23 151.38" fill="#b2b2b2" fill-rule="evenodd"/><line x1="356.23" y1="151.38" x2="380.14" y2="102.86" fill="none" stroke="#9f9f9f" stroke-miterlimit="10" stroke-width="0.28"/><polygon points="363.73 133.58 294.93 108.72 318.83 60.17 387.65 85.04 363.73 133.58" fill="#666" fill-rule="evenodd"/><polygon points="294.93 108.72 287.43 126.51 356.23 151.38 363.73 133.58 294.93 108.72" fill="#8c8c8c" fill-rule="evenodd"/><line x1="387.64" y1="85.04" x2="363.73" y2="133.58" fill="none" stroke="#a4a4a4" stroke-width="1"/><line x1="356.23" y1="151.38" x2="363.73" y2="133.58" fill="none" stroke="#a4a4a4" stroke-width="1"/><line x1="363.73" y1="133.58" x2="294.92" y2="108.71" fill="none" stroke="#a4a4a4" stroke-width="1"/><line x1="310.9" y1="134.54" x2="310.9" y2="166.73" fill="none" stroke="#000" stroke-width="1.5"/><polygon points="307.32 164.26 310.94 177.76 314.56 164.26 307.32 164.26"/><line x1="310.9" y1="77.34" x2="310.9" y2="1.26" fill="none" stroke="#000" stroke-width="1.5" stroke-dasharray="6 4"/><line x1="241.13" y1="149.2" x2="309.81" y2="80.29" fill="none" stroke="#000" stroke-width="1.5" stroke-dasharray="6 4"/><line x1="309.77" y1="79.23" x2="337.1" y2="12.03" fill="none" stroke="#000" stroke-width="1.5"/><polygon points="332.88 13.06 341.08 1.76 339.64 15.65 332.88 13.06"/><line x1="379.63" y1="105.31" x2="409.48" y2="116.56" fill="none" stroke="#000" stroke-width="1.5"/><polygon points="408.3 112.37 419.89 120.17 405.96 119.22 408.3 112.37"/><polygon points="318.94 15.47 332.75 17.5 321.8 8.84 318.94 15.47"/><path d="M313.4,11.71c8-2.55,17.38,7.13,12.55,3.52" transform="translate(-0.03)" fill="none" stroke="#000" stroke-width="1.5"/><polygon points="259.66 144.58 270.77 153.06 256.91 151.27 259.66 144.58"/><path d="M253.13,143.26c3.78,7.53,17.25,7.46,11.28,6.52" transform="translate(-0.03)" fill="none" stroke="#000" stroke-width="1.5"/><path d="M268.94,134.34c2.16,0,3.25,1.73,3.25,5.18s-1.09,5.18-3.25,5.18a2.84,2.84,0,0,1-2.39-1.17,7.06,7.06,0,0,1-.87-4Q265.68,134.34,268.94,134.34Zm1.27,4.38a5.63,5.63,0,0,0-.38-2.26,1,1,0,0,0-1.34-.45,1,1,0,0,0-.45.45,5.58,5.58,0,0,0-.37,2.25Zm0,1.6h-2.54a5.46,5.46,0,0,0,.37,2.26,1,1,0,0,0,1.34.45,1,1,0,0,0,.45-.45,5.63,5.63,0,0,0,.38-2.26Z" transform="translate(-0.03)"/><path d="M154.61,342.55v-2.23h-2.25v-1.54h2.25v-2.24h1.5v2.24h2.26v1.54h-2.26v2.23Z" transform="translate(-0.03)"/><path d="M159,343.79v-1.57l4.5-5.57h-4V335.2h6.28v1.34l-4.7,5.8H166v1.45Z" transform="translate(-0.03)"/><path d="M58.59,212v-2.24H56.34v-1.54h2.25V206h1.5v2.23h2.26v1.54H60.09V212Z" transform="translate(-0.03)"/><path d="M66,213.24v-3.61l-3.14-5h2l2,3.4,2-3.4h2l-3.16,5v3.6Z" transform="translate(-0.03)"/><line x1="136.34" y1="270.66" x2="184.09" y2="247.46" fill="none" stroke="#000" stroke-width="1.5"/><polygon points="183.36 251.74 194.05 242.75 180.31 245.19 183.36 251.74"/><line x1="75.47" y1="258.68" x2="59.23" y2="224.21" fill="none" stroke="#000" stroke-width="1.5"/><polygon points="63.51 224.92 54.49 214.26 56.97 228 63.51 224.92"/><line x1="90.24" y1="327.2" x2="90.24" y2="365.31" fill="none" stroke="#000" stroke-width="1.5"/><polygon points="86.66 362.84 90.28 376.32 93.9 362.84 86.66 362.84"/><line x1="147.25" y1="290.75" x2="201.9" y2="290.75" fill="none" stroke="#000" stroke-width="1.5" stroke-dasharray="6 4"/><path d="M184.46,236v-2.23h-2.25v-1.54h2.25V230H186v2.24h2.26v1.54H186V236Z" transform="translate(-0.03)"/><path d="M188.68,237.24l2.94-4.49-2.66-4.1h2l1.73,2.76,1.68-2.76h2l-2.67,4.17,2.94,4.42h-2.1l-1.9-3-1.91,3Z" transform="translate(-0.03)"/><path d="M103.61,368.52H102v-6.2a5.72,5.72,0,0,1-2.13,1.24V362.1a5,5,0,0,0,1.41-.8,3,3,0,0,0,1-1.37h1.34Z" transform="translate(-0.03)"/><path d="M106,368.85l1.78.26a.73.73,0,0,0,.09.4.6.6,0,0,0,.28.24,1.76,1.76,0,0,0,1.39-.12,1.32,1.32,0,0,0,.39-.52,5.82,5.82,0,0,0,.24-1l.06-.29a2.87,2.87,0,0,1-1.8.72,2,2,0,0,1-1.5-.64,2.71,2.71,0,0,1-.59-1.89,4.9,4.9,0,0,1,.4-2,3.09,3.09,0,0,1,1.12-1.38,2.65,2.65,0,0,1,1.47-.47,2.1,2.1,0,0,1,1.14.33,2.24,2.24,0,0,1,.8.92l.23-1.1H113L112,367.49c-.12.6-.26,1.19-.44,1.78a3.37,3.37,0,0,1-.42.85,2.14,2.14,0,0,1-.59.53,2.58,2.58,0,0,1-.84.31,6.32,6.32,0,0,1-1.06.09,3.56,3.56,0,0,1-2-.45,1.67,1.67,0,0,1-.68-1.5A1,1,0,0,1,106,368.85Zm2-3a1.57,1.57,0,0,0,.32,1.08,1,1,0,0,0,.8.38,1.48,1.48,0,0,0,.85-.34,2.14,2.14,0,0,0,.64-1,4,4,0,0,0,.22-1.19,1.55,1.55,0,0,0-.36-1.06,1.05,1.05,0,0,0-.83-.41,1.17,1.17,0,0,0-.83.36,2.52,2.52,0,0,0-.62,1.1,3,3,0,0,0-.21,1Z" transform="translate(-0.03)"/><path d="M167,271.06q3.26,0,3.25,5.18c0,3.46-1.08,5.19-3.25,5.17a2.83,2.83,0,0,1-2.39-1.17,7,7,0,0,1-.87-4Q163.72,271.07,167,271.06Zm1.27,4.38a5.63,5.63,0,0,0-.37-2.26,1,1,0,0,0-1.33-.47,1,1,0,0,0-.47.47,5.55,5.55,0,0,0-.37,2.25Zm0,1.59h-2.54a5.63,5.63,0,0,0,.37,2.26,1,1,0,0,0,1.8,0,5.63,5.63,0,0,0,.37-2.26Z" transform="translate(-0.03)"/><polygon points="140.1 308.2 109.65 242.89 120.25 232.3 150.7 297.62 140.1 308.2" fill="#b2b2b2" fill-rule="evenodd"/><line x1="140.1" y1="308.2" x2="150.7" y2="297.61" fill="none" stroke="#a4a4a4" stroke-miterlimit="10" stroke-width="0.28"/><polygon points="109.65 242.89 44.42 273.33 55.02 262.7 120.25 232.3 109.65 242.89" fill="#666" fill-rule="evenodd"/><line x1="109.65" y1="242.89" x2="120.25" y2="232.29" fill="none" stroke="#898989" stroke-miterlimit="10" stroke-width="0.28"/><rect x="56.29" y="254.75" width="71.98" height="72.06" transform="translate(-114.23 66.21) rotate(-24.99)" fill="#8c8c8c"/><line x1="44.42" y1="273.32" x2="74.87" y2="338.63" fill="none" stroke="#9d9d9d" stroke-miterlimit="10" stroke-width="1.92"/><path d="M142.41,332.8a6,6,0,1,0,.06,0Z" transform="translate(-0.03)" fill="none" stroke="#000" stroke-linecap="round" stroke-linejoin="round" stroke-width="1.5"/><path d="M142.47,336.5a2.15,2.15,0,1,0,2.1,2.2v-.06a2.12,2.12,0,0,0-2.1-2.14Z" transform="translate(-0.03)" fill-rule="evenodd"/><path d="M142.47,336.5a2.15,2.15,0,1,0,2.1,2.2v-.06a2.12,2.12,0,0,0-2.1-2.14Z" transform="translate(-0.03)" fill="none" stroke="#000" stroke-linecap="round" stroke-linejoin="round" stroke-width="1.5"/><polygon points="174.7 270.08 170.66 258.08 181.07 265.26 174.7 270.08"/><path d="M179.33,284.91c2.76-8.21,2.27-14.54-4.26-20" transform="translate(-0.03)" fill="none" stroke="#000" stroke-miterlimit="10" stroke-width="1.5"/><line x1="139.88" y1="308.81" x2="109.51" y2="243.68" fill="none" stroke="#a4a4a4" stroke-miterlimit="10" stroke-width="1"/><line x1="109.51" y1="243.68" x2="120.11" y2="233.06" fill="none" stroke="#a4a4a4" stroke-miterlimit="10" stroke-width="1"/><line x1="109.51" y1="243.68" x2="44.28" y2="274.09" fill="none" stroke="#a4a4a4" stroke-miterlimit="10" stroke-width="1"/><polyline points="117.15 104.69 45.26 104.69 45.26 104.69" fill="none" stroke="#a4a4a4" stroke-width="1"/><line x1="117.15" y1="128.31" x2="117.15" y2="104.4" fill="none" stroke="#a4a4a4" stroke-width="1"/><line x1="117.15" y1="104.4" x2="151.06" y2="70.48" fill="none" stroke="#a4a4a4" stroke-width="1"/><polyline points="378.55 298.99 368.46 277.32 402.37 243.37" fill="none" stroke="#a4a4a4" stroke-width="1"/><line x1="368.46" y1="277.32" x2="303.38" y2="307.71" fill="none" stroke="#a4a4a4" stroke-width="1"/><ellipse cx="320.01" cy="27.7" rx="3.5" ry="4.37" fill="none" stroke="#000" stroke-width="1.2"/><ellipse cx="320.87" cy="27.7" rx="3.5" ry="4.37" fill="none" stroke="#000" stroke-width="1"/><line x1="320.44" y1="19.33" x2="320.44" y2="36.57" fill="none" stroke="#000" stroke-linecap="round" stroke-width="1.5"/><ellipse cx="332.67" cy="242.95" rx="3.5" ry="4.37" fill="none" stroke="#000" stroke-width="1.2"/><ellipse cx="333.53" cy="242.95" rx="3.5" ry="4.37" fill="none" stroke="#000" stroke-width="1"/><line x1="333.1" y1="234.57" x2="333.1" y2="251.81" fill="none" stroke="#000" stroke-linecap="round" stroke-width="1.5"/></svg>