<svg id="bc87b48d-f21c-474d-8595-d4a9f6d4c81d" data-name="a50f8419-302a-4a57-b5ac-7edc5e2bb68d" xmlns="http://www.w3.org/2000/svg" width="5.05in" height="2.46in" viewBox="0 0 363.44 177.15"><title>08767-007</title><path d="M360.56,176.28a5.13,5.13,0,0,1-1.65-.21,2,2,0,0,1-1-.62,1.63,1.63,0,0,1-.34-1,1.69,1.69,0,0,1,.19-.8,1.56,1.56,0,0,1,.53-.58,2.94,2.94,0,0,1,.86-.35,6.91,6.91,0,0,1,3,.07,2.07,2.07,0,0,1,1,.62,1.63,1.63,0,0,1,.34,1,1.57,1.57,0,0,1-.6,1.3A3.78,3.78,0,0,1,360.56,176.28Zm0-.72a3.56,3.56,0,0,0,1.87-.33.93.93,0,0,0,.34-1.28.88.88,0,0,0-.34-.35,5.52,5.52,0,0,0-3.76,0,1,1,0,0,0-.47.82.91.91,0,0,0,.41.77A3.65,3.65,0,0,0,360.56,175.56Z" transform="translate(-0.12 0.03)"/><path d="M360.23,170.75a1.3,1.3,0,0,1-.45.65,1.28,1.28,0,0,1-.71.21,1.41,1.41,0,0,1-1.06-.45,1.87,1.87,0,0,1,0-2.4,1.39,1.39,0,0,1,1.07-.46,1.17,1.17,0,0,1,.69.21,1.25,1.25,0,0,1,.45.63,1.51,1.51,0,0,1,.56-.8,1.46,1.46,0,0,1,.91-.27,1.67,1.67,0,0,1,1.24.52,1.9,1.9,0,0,1,.5,1.36,1.92,1.92,0,0,1-.5,1.37,1.71,1.71,0,0,1-1.26.52,1.52,1.52,0,0,1-.93-.28A1.43,1.43,0,0,1,360.23,170.75Zm-1.19.14a.94.94,0,0,0,.67-.26,1,1,0,0,0,0-1.35.92.92,0,0,0-1.29,0,1,1,0,0,0-.26.67.89.89,0,0,0,.26.66.86.86,0,0,0,.66.27Zm2.65.23a1.19,1.19,0,0,0,.58-.15,1,1,0,0,0,.44-.42,1.31,1.31,0,0,0,.15-.61,1.2,1.2,0,0,0-.32-.83,1.12,1.12,0,0,0-.83-.33,1.1,1.1,0,0,0-.84.34,1.17,1.17,0,0,0-.33.85,1.12,1.12,0,0,0,1.11,1.15Z" transform="translate(-0.12 0.03)"/><path d="M358.39,167.34h-.67v-3.71h.5a8.85,8.85,0,0,0,1.56,1.08,9.48,9.48,0,0,0,2,.83,8.18,8.18,0,0,0,1.57.27v.72a6.85,6.85,0,0,1-1.63-.26,8.48,8.48,0,0,1-1.85-.73,9,9,0,0,1-1.51-1Z" transform="translate(-0.12 0.03)"/><path d="M359.06,159.27l.05.71a1.4,1.4,0,0,0-.61.27,1,1,0,0,0-.11,1.29,1.71,1.71,0,0,0,.71.53,4.2,4.2,0,0,0,1.33.2,1.67,1.67,0,0,1-.58-.63,1.62,1.62,0,0,1-.19-.77,1.53,1.53,0,0,1,.52-1.19,1.89,1.89,0,0,1,1.34-.51,2.2,2.2,0,0,1,1,.24,1.69,1.69,0,0,1,.71.64,1.75,1.75,0,0,1,.25.93,1.84,1.84,0,0,1-.65,1.43,3.35,3.35,0,0,1-2.13.55,3.91,3.91,0,0,1-2.42-.61,1.82,1.82,0,0,1-.66-1.44,1.7,1.7,0,0,1,.38-1.11A1.67,1.67,0,0,1,359.06,159.27Zm2.46,2.89a1.88,1.88,0,0,0,.7-.16,1.42,1.42,0,0,0,.51-.43,1.34,1.34,0,0,0,.17-.58,1,1,0,0,0-.36-.77,1.42,1.42,0,0,0-1-.32,1.26,1.26,0,0,0-.93.32,1,1,0,0,0-.34.8,1,1,0,0,0,.34.8,1.22,1.22,0,0,0,.91.34Z" transform="translate(-0.12 0.03)"/><path d="M358.39,158.43h-.67v-3.71h.5a7.9,7.9,0,0,0,1.56,1.08,8.54,8.54,0,0,0,2,.83,6.88,6.88,0,0,0,1.57.27v.73a6.39,6.39,0,0,1-1.63-.27,7.59,7.59,0,0,1-1.85-.73,7.2,7.2,0,0,1-1.51-1Z" transform="translate(-0.12 0.03)"/><path d="M361.66,154.1H361v-2.16h.71Z" transform="translate(-0.12 0.03)"/><path d="M360.56,151.33a5.13,5.13,0,0,1-1.65-.21,2,2,0,0,1-1-.62,1.61,1.61,0,0,1-.34-1,1.75,1.75,0,0,1,.19-.81,1.61,1.61,0,0,1,.53-.57,2.94,2.94,0,0,1,.86-.35,6.91,6.91,0,0,1,3,.07,2.14,2.14,0,0,1,1,.62,1.65,1.65,0,0,1,.34,1,1.56,1.56,0,0,1-.6,1.3A3.71,3.71,0,0,1,360.56,151.33Zm0-.72a3.56,3.56,0,0,0,1.87-.33.93.93,0,0,0,.34-1.28.88.88,0,0,0-.34-.35,5.52,5.52,0,0,0-3.76,0,1,1,0,0,0-.47.82.91.91,0,0,0,.41.77,3.56,3.56,0,0,0,1.95.4Z" transform="translate(-0.12 0.03)"/><path d="M360.56,146.91a5.13,5.13,0,0,1-1.65-.21,2,2,0,0,1-1-.62,1.63,1.63,0,0,1-.34-1,1.71,1.71,0,0,1,.19-.8,1.56,1.56,0,0,1,.53-.58,2.8,2.8,0,0,1,.89-.37,6.91,6.91,0,0,1,3,.07,2.14,2.14,0,0,1,1,.62,1.75,1.75,0,0,1-.26,2.35A3.84,3.84,0,0,1,360.56,146.91Zm0-.72a3.56,3.56,0,0,0,1.87-.33.93.93,0,0,0,.34-1.28.88.88,0,0,0-.34-.35,5.52,5.52,0,0,0-3.76,0,1,1,0,0,0-.47.82.93.93,0,0,0,.41.78A3.66,3.66,0,0,0,360.56,146.19Z" transform="translate(-0.12 0.03)"/><path d="M358.39,142.42h-.67v-3.71h.5a8.35,8.35,0,0,0,1.56,1.08,9,9,0,0,0,2,.83,6.88,6.88,0,0,0,1.57.27v.72a6.38,6.38,0,0,1-1.63-.26,8,8,0,0,1-1.85-.73,8.41,8.41,0,0,1-1.51-1Z" transform="translate(-0.12 0.03)"/><line x1="283.76" y1="70.28" x2="331.9" y2="47.82" fill="none" stroke="#000" stroke-width="1.5"/><polygon points="331.11 52.09 341.96 43.27 328.15 45.49 331.11 52.09"/><line x1="36.54" y1="44.44" x2="36.54" y2="13.26" fill="none" stroke="#000" stroke-width="1.5"/><polygon points="32.96 15.73 36.58 2.24 40.2 15.73 32.96 15.73"/><line x1="227.64" y1="64.89" x2="209.02" y2="26.47" fill="none" stroke="#000" stroke-width="1.5"/><polygon points="206.88 30.25 204.25 16.52 213.39 27.09 206.88 30.25"/><line x1="36.54" y1="126.17" x2="36.54" y2="157.34" fill="none" stroke="#000" stroke-width="1.5"/><polygon points="32.96 154.87 36.58 168.37 40.2 154.87 32.96 154.87"/><line x1="237.85" y1="121.98" x2="237.85" y2="166.12" fill="none" stroke="#000" stroke-width="1.5"/><polygon points="234.27 163.65 237.89 177.15 241.51 163.65 234.27 163.65"/><line x1="82.92" y1="85.31" x2="130.77" y2="85.31" fill="none" stroke="#000" stroke-width="1.5"/><polygon points="128.3 88.89 141.8 85.27 128.3 81.65 128.3 88.89"/><polygon points="320.72 73.4 314.59 60.84 326.18 68.65 320.72 73.4"/><line x1="296.23" y1="92.85" x2="350.91" y2="92.85" fill="none" stroke="#000" stroke-width="1.5" stroke-dasharray="6 4"/><path d="M327,87.31c0-11.42-3.58-20.67-8-20.67" transform="translate(-0.12 0.03)" fill="none" stroke="#000" stroke-width="1.5"/><path d="M311.21,72.88c2.16,0,3.25,1.73,3.25,5.19s-1.09,5.17-3.25,5.17a2.79,2.79,0,0,1-2.39-1.17,7,7,0,0,1-.87-4Q307.91,72.88,311.21,72.88Zm1.23,4.43a5.35,5.35,0,0,0-.38-2.27,1,1,0,0,0-1.34-.45,1.08,1.08,0,0,0-.45.45,5.63,5.63,0,0,0-.37,2.26Zm0,1.59H309.9a5.46,5.46,0,0,0,.37,2.26,1,1,0,0,0,1.34.45.94.94,0,0,0,.45-.45,5.46,5.46,0,0,0,.38-2.3Z" transform="translate(-0.12 0.03)"/><path d="M334.87,36.69V34.46h-2.25V32.91h2.25V30.68h1.5v2.23h2.25v1.55h-2.25v2.23Z" transform="translate(-0.12 0.03)"/><path d="M339.13,37.92l2.93-4.48L339.4,29.3h2l1.72,2.76,1.72-2.76h2l-2.62,4.21,2.93,4.41H345l-1.9-3-1.91,3Z" transform="translate(-0.12 0.03)"/><path d="M131.47,75.37V73.14h-2.25V71.6h2.25V69.36H133V71.6h2.26v1.54H133v2.23Z" transform="translate(-0.12 0.03)"/><path d="M135.73,76.61l2.93-4.49L136,68h2l1.72,2.76L141.41,68h2l-2.67,4.17,2.94,4.42h-2.1l-1.9-3-1.91,3Z" transform="translate(-0.12 0.03)"/><path d="M213.6,17.35V15.12h-2.25V13.58h2.25V11.34h1.5v2.24h2.26v1.54H215.1v2.23Z" transform="translate(-0.12 0.03)"/><path d="M221,18.6V15l-3.15-5h2l2,3.39,2-3.39h2l-3.15,5V18.6Z" transform="translate(-0.12 0.03)"/><path d="M45.56,7.35V5.12H43.31V3.58h2.25V1.34h1.5V3.58h2.25V5.12H47.06V7.35Z" transform="translate(-0.12 0.03)"/><path d="M53,8.59V5L49.8,0h2l2,3.39L55.8,0h2L54.65,5V8.59Z" transform="translate(-0.12 0.03)"/><path d="M48.59,164H47v-6.22A5.48,5.48,0,0,1,44.82,159v-1.49a4.54,4.54,0,0,0,1.4-.8,3,3,0,0,0,1-1.38h1.33Z" transform="translate(-0.12 0.03)"/><path d="M50.94,164.34l1.77.26a.62.62,0,0,0,.38.64,1.6,1.6,0,0,0,.53.09,1.61,1.61,0,0,0,.86-.21,1.18,1.18,0,0,0,.39-.52,9.07,9.07,0,0,0,.24-1l.06-.29a2.82,2.82,0,0,1-1.81.72,1.94,1.94,0,0,1-1.5-.64,2.7,2.7,0,0,1-.58-1.89,5,5,0,0,1,.4-2,3,3,0,0,1,1.12-1.38,2.73,2.73,0,0,1,1.47-.47,2.07,2.07,0,0,1,1.13.33,2.32,2.32,0,0,1,.81.92l.23-1.1H58L56.94,163c-.12.6-.27,1.19-.45,1.78a3,3,0,0,1-.41.85,2.14,2.14,0,0,1-.59.53,2.55,2.55,0,0,1-.85.31,5.63,5.63,0,0,1-1,.09,3.66,3.66,0,0,1-2-.45,1.69,1.69,0,0,1-.67-1.5A1.13,1.13,0,0,1,50.94,164.34Zm2-3a1.66,1.66,0,0,0,.3,1,1,1,0,0,0,.8.37,1.41,1.41,0,0,0,.85-.33,2,2,0,0,0,.63-.95,3.53,3.53,0,0,0,.22-1.19,1.59,1.59,0,0,0-.35-1.07,1.11,1.11,0,0,0-.83-.41,1.24,1.24,0,0,0-.83.36,2.5,2.5,0,0,0-.62,1.11,3.2,3.2,0,0,0-.19,1.11Z" transform="translate(-0.12 0.03)"/><path d="M250,168.64h-1.65v-6.21a5.75,5.75,0,0,1-2.12,1.25v-1.5a4.85,4.85,0,0,0,1.4-.8,3,3,0,0,0,1-1.37H250Z" transform="translate(-0.12 0.03)"/><path d="M252.32,169l1.79.26a.75.75,0,0,0,.09.41.63.63,0,0,0,.28.23,1.21,1.21,0,0,0,.54.1,1.6,1.6,0,0,0,.85-.21,1.29,1.29,0,0,0,.39-.53,7,7,0,0,0,.25-1l.05-.3a2.83,2.83,0,0,1-1.8.73,2,2,0,0,1-1.5-.65,2.72,2.72,0,0,1-.6-1.88,5.08,5.08,0,0,1,.41-2,3,3,0,0,1,1.13-1.38,2.5,2.5,0,0,1,1.47-.47,2.12,2.12,0,0,1,1.14.32,2.24,2.24,0,0,1,.8.92l.24-1.1h1.57l-1.08,5.19c-.12.6-.26,1.19-.44,1.78a3.37,3.37,0,0,1-.42.85,2,2,0,0,1-.59.53,3.28,3.28,0,0,1-.84.31,6.32,6.32,0,0,1-1.06.09,3.56,3.56,0,0,1-2-.45,1.67,1.67,0,0,1-.68-1.5C252.31,169.12,252.32,169,252.32,169Zm2-3a1.57,1.57,0,0,0,.32,1.08,1,1,0,0,0,.8.37,1.43,1.43,0,0,0,.86-.33,2.34,2.34,0,0,0,.63-1,4.1,4.1,0,0,0,.22-1.19,1.6,1.6,0,0,0-.36-1.07,1.06,1.06,0,0,0-.83-.4,1.14,1.14,0,0,0-.82.35,2.51,2.51,0,0,0-.63,1.11,3.29,3.29,0,0,0-.21,1.08Z" transform="translate(-0.12 0.03)"/><polygon points="72.02 126.44 72.02 54.41 82.62 43.81 82.62 115.83 72.02 126.44" fill="#b2b2b2" fill-rule="evenodd"/><polygon points="72.02 54.41 0 54.41 10.6 43.81 82.62 43.81 72.02 54.41" fill="#666" fill-rule="evenodd"/><line x1="72.02" y1="54.42" x2="82.62" y2="43.81" fill="none" stroke="#727272" stroke-miterlimit="10" stroke-width="0.28"/><rect y="54.42" width="72.02" height="72.02" fill="#8c8c8c"/><polygon points="287.9 110.05 257.51 44.87 268.12 34.25 298.5 99.45 287.9 110.05" fill="#b2b2b2" fill-rule="evenodd"/><polygon points="257.51 44.87 192.23 75.3 202.84 64.7 268.12 34.25 257.51 44.87" fill="#666" fill-rule="evenodd"/><line x1="257.51" y1="44.87" x2="268.12" y2="34.25" fill="none" stroke="#898989" stroke-miterlimit="10" stroke-width="0.28"/><rect x="204.18" y="56.68" width="72.02" height="71.91" transform="translate(-16.77 110.22) rotate(-25)" fill="#8c8c8c"/><polyline points="72.02 126.44 72.02 54.41 82.62 43.81" fill="none" stroke="#a4a4a4" stroke-miterlimit="10" stroke-width="1"/><line x1="72.02" y1="54.42" y2="54.42" fill="none" stroke="#a4a4a4" stroke-miterlimit="10" stroke-width="1"/><line x1="287.9" y1="110.05" x2="257.51" y2="44.87" fill="none" stroke="#a4a4a4" stroke-miterlimit="10" stroke-width="1"/><line x1="257.51" y1="44.87" x2="268.12" y2="34.25" fill="none" stroke="#a4a4a4" stroke-miterlimit="10" stroke-width="1"/><line x1="257.51" y1="44.87" x2="192.23" y2="75.3" fill="none" stroke="#a4a4a4" stroke-miterlimit="10" stroke-width="1"/></svg>